<?xml version="1.0" encoding="utf-8"?>
<!-- Generator: Adobe Illustrator 16.0.0, SVG Export Plug-In . SVG Version: 6.00 Build 0)  -->
<!DOCTYPE svg PUBLIC "-//W3C//DTD SVG 1.1//EN" "http://www.w3.org/Graphics/SVG/1.1/DTD/svg11.dtd">
<svg version="1.1" id="Logo" xmlns="http://www.w3.org/2000/svg" xmlns:xlink="http://www.w3.org/1999/xlink" x="0px" y="0px"
	 width="505.175px" height="508.97px" viewBox="0 0 505.175 508.97" enable-background="new 0 0 505.175 508.97"
	 xml:space="preserve">
<g>
	<g>
		<path fill="#EA5B0F" d="M281.506,318.25c23.18,16.006,69.045-10.148,102.433-58.508c33.392-48.359,41.67-100.48,18.49-116.487
			c-23.186-16.007-67.894,8.811-101.285,57.172C267.755,248.786,258.33,302.243,281.506,318.25z"/>
		<path fill="#0055A4" d="M223.686,318.25c-23.179,16.006-69.044-10.148-102.433-58.508c-33.392-48.359-41.669-100.48-18.49-116.487
			c23.186-16.007,67.894,8.811,101.285,57.172C237.436,248.786,246.861,302.243,223.686,318.25z"/>
		<ellipse fill="#009DCC" cx="252.577" cy="103.062" rx="106.511" ry="50.935"/>
	</g>
	<g>
		<g>
			<g>
				<path fill="#009DCC" d="M147.032,382.547c-5.047-5.883-12.332-7.424-18.293-7.43c-5.961-0.005-13.248,1.547-18.293,7.43
					c-5.036,5.865-5.761,13.603-5.761,21.146c0,7.547,0.725,16.33,5.761,22.198c5.046,5.881,12.332,7.435,18.293,7.427
					c5.961-0.006,13.246-1.546,18.293-7.427c5.037-5.868,5.761-14.189,5.761-22.198
					C152.793,395.688,152.069,388.413,147.032,382.547z M140.52,419.912c-2.852,3.613-7.186,5.024-11.781,5.024
					c-4.596,0-8.93-1.411-11.781-5.024c-2.877-3.646-3.22-9.711-3.22-16.218c0-6.504,0.343-11.522,3.22-15.169
					c2.852-3.614,7.185-5.013,11.781-5.013c4.595,0,8.929,1.398,11.781,5.013c2.878,3.646,3.221,8.671,3.221,15.169
					C143.741,410.194,143.398,416.265,140.52,419.912z"/>
				<path fill="#009DCC" d="M202.559,380.824c0-2.427-1.966-4.393-4.391-4.393c-2.427,0-4.393,1.966-4.393,4.393l-0.006,41.274
					c0,0.746-0.547,1.433-1.114,1.664c-0.566,0.23-3,1.182-11.292,1.182c-4.159,0-8.567-1.659-11.265-5.227
					c-2.72-3.597-3.048-9.861-3.048-16.274l-0.001-22.619c0-2.427-1.966-4.393-4.392-4.393c-2.426,0-4.392,1.966-4.392,4.393
					l-0.004,22.602c0,7.898,0.499,16.384,5.631,22.594c4.483,5.424,11.988,7.327,17.471,7.327c3.479,0,11.091,0.241,17.949-2.31
					c1.888-0.632,3.235-3.085,3.235-5.184L202.559,380.824z"/>
				<path fill="#009DCC" d="M354.915,380.824c0-2.427-1.967-4.393-4.392-4.393c-2.426,0-4.393,1.966-4.393,4.393l-0.006,41.274
					c0,0.746-0.548,1.433-1.115,1.664c-0.565,0.23-3,1.182-11.292,1.182c-4.159,0-8.567-1.659-11.265-5.227
					c-2.72-3.597-3.048-9.861-3.048-16.274l-0.001-22.619c0-2.427-1.965-4.393-4.392-4.393c-2.425,0-4.393,1.966-4.393,4.393
					l-0.002,22.602c0,7.898,0.498,16.384,5.63,22.594c4.482,5.424,11.988,7.327,17.471,7.327c3.479,0,11.09,0.241,17.949-2.31
					c1.888-0.632,3.235-3.085,3.235-5.184L354.915,380.824z"/>
				<path fill="#009DCC" d="M303.801,383.121c0-1.92-1.134-3.571-2.769-4.327c-7.422-3.189-15.839-3.656-19.646-3.656
					c-5.796,0-13.248,1.506-18.292,7.311c-5.038,5.786-5.761,14.64-5.761,22.538s0.723,15.179,5.761,20.967
					c5.044,5.804,12.313,7.372,18.292,7.372c5.503,0,11.575-2.465,13.495-4.554v7.547c0,4.051-0.966,7.249-2.915,9.493
					c-1.925,2.229-4.659,3.355-8.125,3.355c-2.288,0-4.655-0.301-7.037-0.886c-2.37-0.586-6.387-2.499-7.811-3.184
					c-1.424-0.688-4.061-0.159-5.257,1.768c-1.197,1.928-0.401,4.804,1.483,5.841c1.884,1.035,4.278,2.452,9.297,3.745
					c3.203,0.824,6.341,1.214,9.325,1.214c3.275,0,6.199-0.527,8.691-1.631c2.493-1.099,4.598-2.616,6.25-4.512
					c1.647-1.885,2.911-4.182,3.755-6.81c0.839-2.611,1.263-5.439,1.263-8.395L303.801,383.121z M294.765,415.088
					c0,3.165-1.333,5.295-2.829,6.702c-1.846,1.73-5.952,3.149-10.55,3.149c-4.595,0-8.928-1.321-11.78-4.888
					c-2.876-3.596-3.221-8.656-3.221-15.066c0-6.414,0.344-13.043,3.221-16.639c2.853-3.566,7.28-4.843,11.78-4.843
					c3.49,0,8.244,0.756,12.207,2.155c0.683,0.235,1.172,0.887,1.172,1.65V415.088z"/>
				<path fill="#009DCC" d="M445.237,386.86c0.31,0.08,0.638,0.122,0.974,0.12c2.18,0,3.949-1.772,3.949-3.958
					c0.001-0.051-0.003-0.1-0.003-0.146c0-1.274-0.804-3.156-2.354-4.119c-3.824-2.648-9.659-3.641-14.738-3.641
					c-5.086,0-10.462,1.286-13.804,3.819c-3.378,2.568-5.092,6.186-5.092,10.759c0,8.377,6.193,14.464,18.412,16.986
					c5.396,1.132,11.28,3.908,11.28,8.716c0,2.427-1.156,5.065-3.122,6.486c-3.146,2.29-7.696,2.744-9.932,2.76
					c-2.95,0.025-7.58-0.616-11.482-2.803c-0.167-0.118-0.351-0.217-0.537-0.319c-0.604-0.329-1.293-0.518-2.028-0.518
					c-2.339,0-4.233,1.9-4.233,4.247c0,0.998,0.345,1.915,0.918,2.638c0.351,0.478,0.785,0.901,1.308,1.229
					c5.274,3.648,12.787,4.2,16.201,4.2c3.227,0,6.356-0.667,9.812-1.736c2.481-0.772,4.633-1.896,6.401-3.344
					c1.764-1.454,3.167-3.231,4.168-5.279c1.001-2.056,1.714-5.108,1.714-7.562c0-11.236-9.977-15.679-18.684-17.375
					c-7.396-1.536-11.145-4.71-11.145-8.327c0-1.048,0.26-1.962,0.774-2.722c0.529-0.772,1.207-1.393,2.021-1.842
					c0.837-0.459,1.816-0.8,2.909-1.013c1.118-0.215,2.365-0.33,4.14-0.324c2.507,0.01,7.836,1.142,10.138,2.278
					C443.848,386.392,444.535,386.688,445.237,386.86z"/>
				<path fill="#009DCC" d="M92.829,382.448c-5.045-5.805-12.313-7.33-18.293-7.33c-5.5,0-11.572,2.42-13.494,4.51l0.001-26.333
					c0-2.461-1.995-4.456-4.454-4.456c-2.46,0-4.455,1.995-4.455,4.456l-0.011,71.896c0,2.121,1.323,3.933,3.19,4.653
					c7.314,3.031,15.487,3.472,19.222,3.472c5.798,0,13.248-1.486,18.293-7.29c5.038-5.79,5.762-13.896,5.762-21.795
					C98.591,396.33,97.867,388.234,92.829,382.448z M86.318,420.125c-2.851,3.564-7.28,4.825-11.782,4.825
					c-3.513,0-8.307-0.743-12.287-2.159h0.003c-0.634-0.207-1.092-0.803-1.092-1.504v-27.978c0-3.163,1.332-5.296,2.826-6.698
					c1.846-1.733,5.955-3.089,10.55-3.089c4.597,0,8.931,1.259,11.782,4.825c2.877,3.596,3.22,9.47,3.22,15.883
					S89.195,416.527,86.318,420.125z"/>
				<path fill="#009DCC" d="M233.718,418.227c-0.246,0.523-0.77,0.854-1.336,0.851c-0.688-0.005-1.185-0.722-1.371-0.989
					c-1.398-2-12.312-32.255-14.678-38.826c-0.826-2.229-3.335-3.379-5.559-2.559c-2.217,0.818-3.375,3.315-2.565,5.542
					l14.188,37.625c1.663,4.451,4.061,6.975,7.579,8.237l-8.623,22.841c-0.854,2.251,0.278,4.767,2.53,5.621
					c2.252,0.855,4.769-0.275,5.623-2.529l27.169-71.764c0.826-2.219-0.308-4.718-2.503-5.56c-2.215-0.848-4.75,0.282-5.598,2.514
					L233.718,418.227z"/>
				<path fill="#009DCC" d="M404.185,382.448c-6.319-7.405-16.47-7.341-18.546-7.33c-1.922,0.012-11.963,0.061-18.041,7.33
					c-2.754,3.293-3.845,6.9-4.599,10.082c-0.949,4.003-1.074,7.695-1.074,11.655c0,7.447,0.638,16.015,5.673,21.804
					c5.044,5.802,12.332,7.328,18.292,7.328c6.587,0,13.756-0.546,19.029-4.183c1.026-0.638,1.734-1.673,2.086-2.669
					c0.171-0.453,0.265-0.943,0.265-1.456c0-2.264-1.832-4.096-4.094-4.096c-0.528,0-1.023,0.115-1.493,0.281
					c-0.265,0.094-0.601,0.295-1.338,0.688c-3.896,2.179-7.614,3.189-14.455,3.033c-4.596,0-8.929-1.262-11.78-4.828
					c-2.663-3.328-3.066-8.625-3.124-14.483h34.327c2.571,0,4.655-2.084,4.655-4.652
					C409.969,388.427,404.185,382.448,404.185,382.448z M371.21,397.609c-0.019-0.938-0.137-7.48,5.221-11.484
					c3.272-2.444,6.849-2.608,9.032-2.608c2.183,0,6.311-0.086,9.936,2.665c5.359,4.069,5.411,10.521,5.393,11.428H371.21z"/>
			</g>
		</g>
		<g>
			<g>
				<path fill="#009DCC" d="M316.454,456.844h-1.047c-0.382,0-0.69-0.274-0.69-0.618v-10.573h-3.41c-0.381,0-0.69-0.276-0.69-0.616
					v-0.986c0-0.339,0.309-0.613,0.69-0.613h9.262c0.382,0,0.693,0.274,0.693,0.613v0.986c0,0.34-0.311,0.616-0.693,0.616h-3.426
					v10.573C317.144,456.57,316.834,456.844,316.454,456.844z"/>
			</g>
			<g>
				<path fill="#009DCC" d="M362.865,456.844h-8.349c-0.386,0-0.69-0.274-0.69-0.618V444.05c0-0.339,0.305-0.613,0.69-0.613h1.042
					c0.388,0,0.697,0.274,0.697,0.613v10.575h6.61c0.382,0,0.695,0.274,0.695,0.617v0.983
					C363.561,456.57,363.247,456.844,362.865,456.844z"/>
			</g>
			<g>
				<path fill="#009DCC" d="M382.745,456.844h-8.347c-0.382,0-0.691-0.274-0.691-0.618V444.05c0-0.339,0.309-0.613,0.691-0.613
					h8.347c0.385,0,0.696,0.274,0.696,0.613v0.986c0,0.34-0.312,0.616-0.696,0.616h-6.61V449h5.526c0.387,0,0.692,0.273,0.692,0.606
					v0.941c0,0.335-0.305,0.608-0.692,0.608h-5.526v3.469h6.61c0.385,0,0.696,0.274,0.696,0.617v0.983
					C383.441,456.57,383.13,456.844,382.745,456.844z"/>
			</g>
			<g>
				<path fill="#009DCC" d="M341.169,456.844h-8.35c-0.381,0-0.688-0.274-0.688-0.618V444.05c0-0.339,0.308-0.613,0.688-0.613h8.35
					c0.384,0,0.695,0.274,0.695,0.613v0.986c0,0.34-0.311,0.616-0.695,0.616h-6.612V449h5.527c0.387,0,0.692,0.273,0.692,0.606
					v0.941c0,0.335-0.305,0.608-0.692,0.608h-5.527v3.469h6.612c0.384,0,0.695,0.274,0.695,0.617v0.983
					C341.864,456.57,341.554,456.844,341.169,456.844z"/>
			</g>
			<g>
				<path fill="#009DCC" d="M449.315,456.844h-1.044c-0.383,0-0.699-0.274-0.699-0.618v-6.583l-2.842,6.813
					c-0.111,0.219-0.366,0.362-0.639,0.362h-1.037c-0.275,0-0.521-0.142-0.636-0.362l-2.927-6.863v6.633
					c0,0.344-0.312,0.618-0.688,0.618h-1.048c-0.38,0-0.69-0.274-0.69-0.618V444.05c0-0.339,0.311-0.613,0.69-0.613h1.048
					c0.264,0,0.514,0.138,0.624,0.359l4.156,9.829l4.053-9.823c0.107-0.222,0.359-0.365,0.634-0.365h1.044
					c0.383,0,0.69,0.274,0.69,0.613v12.176C450.006,456.57,449.698,456.844,449.315,456.844z"/>
			</g>
			<path fill="#009DCC" d="M425.359,444.637c-1.061-0.941-2.533-1.413-4.006-1.413c-1.471,0-2.944,0.472-4.008,1.413
				c-1.509,1.335-1.736,2.721-1.736,5.482c0,2.766,0.228,4.148,1.736,5.48c1.07,0.944,2.487,1.461,4.008,1.461
				c1.522,0,2.939-0.517,4.006-1.461c1.511-1.332,1.736-2.715,1.736-5.48C427.096,447.358,426.87,445.972,425.359,444.637z
				 M423.509,454.197c-0.557,0.499-1.356,0.75-2.155,0.75s-1.595-0.251-2.159-0.75c-0.79-0.701-1.106-1.44-1.106-4.077
				c0-2.635,0.316-3.38,1.106-4.073c0.566-0.499,1.331-0.782,2.159-0.782c0.826,0,1.597,0.283,2.155,0.782
				c0.795,0.693,1.112,1.438,1.112,4.073C424.621,452.756,424.304,453.496,423.509,454.197z"/>
			<path fill="#009DCC" d="M404.786,452.782l-1.08-0.169c-0.32-0.05-0.64,0.11-0.76,0.382c-0.178,0.558-0.446,0.907-0.827,1.235
				c-0.56,0.499-1.33,0.779-2.157,0.779c-0.828,0-1.597-0.28-2.156-0.779c-0.793-0.694-1.109-1.44-1.109-4.075
				c0-2.633,0.316-3.403,1.109-4.098c0.56-0.5,1.328-0.782,2.156-0.782c0.827,0,1.598,0.282,2.157,0.782
				c0.381,0.326,0.649,0.675,0.827,1.231c0.12,0.276,0.439,0.434,0.76,0.385l1.08-0.169c0.21-0.035,0.383-0.148,0.493-0.309
				c0.114-0.158,0.129-0.362,0.062-0.537c-0.25-0.768-0.674-1.396-1.374-2.011c-1.061-0.94-2.528-1.412-4.005-1.412
				c-1.472,0-2.945,0.472-4.006,1.412c-1.511,1.336-1.737,2.722-1.737,5.481c0,2.764,0.227,4.176,1.737,5.504
				c1.061,0.946,2.534,1.414,4.006,1.414c1.477,0,2.944-0.468,4.005-1.414c0.7-0.61,1.124-1.237,1.374-2.006
				c0.067-0.175,0.053-0.378-0.062-0.54C405.169,452.929,404.996,452.817,404.786,452.782z"/>
		</g>
	</g>
</g>
</svg>
