<svg width="86px" height="32px" viewBox="0 0 86 32" version="1.1" xmlns="http://www.w3.org/2000/svg" xmlns:xlink="http://www.w3.org/1999/xlink"><g stroke="none" stroke-width="1" fill="none" fill-rule="evenodd"><g transform="translate(-677.000000, -10592.000000)" fill="#CC0000" fill-rule="nonzero"><g transform="translate(677.000000, 10592.000000)"><path d="M80.6637529,10.7033973 C80.6637529,9.91545521 79.7809737,9.39682665 78.2491314,9.39682665 C73.708361,9.39682665 69.0514002,13.6511807 68.1085226,15.6550335 C73.5320722,15.4723803 80.6624174,14.015154 80.6624174,10.7033973 M79.6060205,8.42623129 C82.2570291,8.42623129 85.3821476,8.9128622 85.3821476,10.5834061 C85.3821476,14.7164358 74.1197013,16.1416644 67.8133725,16.4496418 C67.4883215,17.1862919 67.3274657,17.984646 67.3419337,18.7894699 C67.3419337,20.3093582 69.4053132,21.1279648 72.1765187,21.1279648 C75.5954517,21.1279648 79.0731477,19.9733829 82.4346534,18.302839 L83.2600052,18.8201343 C79.3669623,21.0373047 75.06525,22.766511 69.876752,22.766511 C64.4518668,22.766511 62.6248745,20.7039959 62.6248745,18.6668122 C62.6248745,13.8071693 71.0573523,8.43156423 79.6060205,8.43156423"/><path d="M58.2563862,10.7033973 C58.2563862,9.91545521 57.3696004,9.39682665 55.8377581,9.39682665 C51.2969877,9.39682665 46.6413624,13.6511807 45.6984848,15.6550335 C51.1220344,15.4723803 58.2523796,14.015154 58.2523796,10.7033973 M57.1906406,8.42623129 C59.8456558,8.42623129 62.9694388,8.9128622 62.9694388,10.5834061 C62.9694388,14.7164358 51.7069925,16.1416644 45.4006637,16.4496418 C45.0739626,17.1858114 44.9125966,17.984435 44.9278893,18.7894699 C44.9278893,20.3093582 46.9912688,21.1279648 49.7624743,21.1279648 C53.1827429,21.1279648 56.6617744,19.9733829 60.020609,18.302839 L60.8472964,18.8201343 C56.955589,21.0373047 52.6498702,22.766511 47.4627077,22.766511 C42.039158,22.766511 40.2108301,20.7039959 40.2108301,18.6668122 C40.2108301,13.8071693 48.6419725,8.43156423 57.1906406,8.43156423"/><path d="M41.8321523,8.78887131 C43.07018,8.78887131 43.6591446,9.15551104 43.6591446,9.8247952 C43.576176,11.1177107 42.4802092,12.1114809 41.1830892,12.0699636 C40.4752632,12.0699636 39.7140164,11.9486392 39.0021839,11.9486392 C34.9341877,11.9486392 30.7486658,17.8415395 28.8028121,20.9399786 L27.7343955,22.8838357 C27.6275538,23.0944869 26.6806697,23.1251514 25.6242728,23.1251514 C24.8563483,23.1251514 23.739853,22.8585043 23.739853,22.5798581 C23.7522747,22.4793119 23.7925087,22.3842081 23.8560433,22.3052116 L28.5063265,13.9258272 C28.8028121,13.4405296 29.215488,12.5925919 29.215488,12.1339589 C29.215488,11.80065 28.861575,11.3446835 28.0949861,11.3446835 C26.5030454,11.3446835 24.0884239,12.7725786 23.1442108,13.3792007 L22.3762864,12.8592389 C23.8453592,11.7339883 28.3861296,8.78620484 31.2788675,8.78620484 C32.7479403,8.78620484 33.6974955,9.12218016 33.6974955,9.94211992 C33.6974955,10.2754288 33.4597729,10.8527197 33.1058599,11.5220038 L30.8661916,15.6856979 L30.9837174,15.6856979 C32.5756581,14.1378117 38.1180691,8.78887131 41.8321523,8.78887131"/><path d="M28.0789599,1.43074525 C28.0789599,1.86404675 27.4886597,2.91596946 26.4269207,2.91596946 C25.3077543,2.91596946 24.0697266,2.29734825 22.7141731,2.29734825 C19.1176158,2.29734825 18.0558768,4.39986044 17.230525,6.16373085 L15.1671455,10.4020861 L21.6524341,10.4020861 L20.9499502,11.6686597 L14.5180824,11.6686597 L4.67395914,30.5686045 L1.07606631,31.1245636 L0.898442054,30.9392439 L9.97998299,11.6673265 L4.67395914,11.6673265 L5.32435774,10.4020861 L10.5088492,10.4020861 C12.4026176,6.96767178 13.9277822,4.39986044 19.3473254,1.92670881 C20.9499502,1.18542994 23.4219991,0.4414846 25.6616673,0.4414846 C26.8409321,0.4414846 28.0789599,0.689466381 28.0789599,1.43074525"/><path d="M63.0068334,18.6614793 C63.0068334,13.8724978 71.5394753,8.80753661 79.6060205,8.80753661 C82.0940956,8.80753661 85.0001887,9.27283576 85.0001887,10.5834061 C85.0001887,13.7978366 76.3593696,15.6497006 67.7960107,16.0630035 C67.6521359,16.0705124 67.5244271,16.1573909 67.4648016,16.2883203 C67.1170454,17.0738151 66.9447799,17.9254794 66.9599747,18.784137 C66.9599747,20.4626803 68.9632558,21.5052704 72.1765187,21.5052704 C75.2589005,21.5052704 78.609722,20.5933374 82.407943,18.7321408 L82.5014294,18.7894699 C78.0140798,21.2586218 74.0876488,22.3798728 69.876752,22.3798728 C65.5750397,22.3798728 63.0068334,20.9893083 63.0068334,18.6614793 M67.7092019,11.39268 C64.236848,13.5258566 62.2429155,16.1749953 62.2429155,18.6574796 C62.2429155,19.7094023 62.7931501,23.1384837 69.876752,23.1384837 C74.4108449,23.1384837 78.5963668,21.905241 83.4483136,19.1387776 C83.5652797,19.0725636 83.6387542,18.9498302 83.6417659,18.8156305 C83.6447776,18.6814309 83.5768827,18.5555357 83.4630043,18.484159 L82.6376525,17.9681969 C82.5246543,17.8977427 82.3831813,17.8906812 82.2637067,17.9495316 C78.4921962,19.8240606 75.1854469,20.7346603 72.1765187,20.7346603 C69.4720892,20.7346603 67.7238926,19.9667167 67.7238926,18.7774708 C67.7148479,18.1034282 67.8359136,17.4339534 68.0804766,16.8056157 C72.5464579,16.5762992 85.7641065,15.4723803 85.7641065,10.57674 C85.7641065,8.28624157 81.4570522,8.04359274 79.6060205,8.04359274 C75.410921,8.07191241 71.3010769,9.22887942 67.7092019,11.39268"/><path d="M78.2437893,9.77813196 C79.479146,9.77813196 80.2764519,10.1421052 80.2764519,10.7033973 C80.2764519,13.3272045 74.6125085,14.9364196 68.7909736,15.2363976 C70.1398496,13.2685422 74.159767,9.77013255 78.2397828,9.77013255 M67.753274,15.4843794 C67.6972427,15.6045568 67.7075091,15.7451235 67.7804096,15.8559164 C67.8533101,15.9667093 67.9784584,16.0319436 68.1111936,16.0283394 C72.9123906,15.8656847 81.0363632,14.5617805 81.0363632,10.6953979 C81.0363632,9.87945785 80.3018268,9.00752192 78.2397828,9.00752192 C73.6268942,9.00752192 68.8283682,13.2018804 67.753274,15.4843794"/><path d="M40.5967956,18.6614793 C40.5967956,13.8724978 49.128102,8.80753661 57.1946472,8.80753661 C59.6840578,8.80753661 62.5914864,9.27283576 62.5914864,10.5834061 C62.5914864,13.7925037 53.9506673,15.6590332 45.3899795,16.0590038 C45.2462907,16.0660991 45.1187838,16.1531914 45.0601059,16.2843206 C44.7109852,17.0694245 44.5382222,17.9212949 44.5539435,18.7801372 C44.5539435,20.4586806 46.5572246,21.5012707 49.7704875,21.5012707 C52.8555403,21.5012707 56.2063618,20.5893377 60.0032473,18.7268078 L60.0967337,18.7854702 C55.6107196,21.2546221 51.6829532,22.3758731 47.4707208,22.3758731 C43.1690085,22.3758731 40.6008022,20.9853086 40.6008022,18.6574796 M39.8368843,18.6574796 C39.8368843,19.7094023 40.3871189,23.1384837 47.4707208,23.1384837 C52.0114913,23.1384837 56.1930066,21.905241 61.0449534,19.1387776 C61.1617708,19.0723225 61.2349844,18.9494474 61.2377222,18.8152518 C61.24046,18.6810563 61.1723187,18.5553072 61.0583086,18.484159 L60.2316213,17.9681969 C60.1191163,17.8977256 59.9780176,17.8906575 59.859011,17.9495316 C56.088836,19.8240606 52.7887643,20.7346603 49.7704875,20.7346603 C47.066058,20.7346603 45.3178614,19.9667167 45.3178614,18.7774708 C45.3083141,18.1033867 45.429397,17.4338168 45.6744454,16.8056157 C50.1404267,16.5762992 63.3594109,15.4723803 63.3594109,10.57674 C63.3594109,8.28624157 59.051021,8.04359274 57.1986537,8.04359274 C48.5992358,8.04359274 39.8368843,13.4018657 39.8368843,18.6601461"/><path d="M55.8377581,9.77813196 C57.0744503,9.77813196 57.8744272,10.1421052 57.8744272,10.7033973 C57.8744272,13.3272045 52.2091483,14.9364196 46.388949,15.2363976 C47.7378249,13.2685422 51.7577423,9.77013255 55.8364226,9.77013255 M45.3512494,15.4843794 C45.2952181,15.6045568 45.3054845,15.7451235 45.378385,15.8559164 C45.4512855,15.9667093 45.5764337,16.0319436 45.7091689,16.0283394 C50.5170436,15.8656847 58.6370096,14.5617805 58.6370096,10.6953979 C58.6370096,9.87945785 57.9011376,9.00752192 55.832416,9.00752192 C51.2195275,9.00752192 46.422337,13.2018804 45.3472428,15.4843794"/><path d="M30.9837174,16.0670033 C31.083434,16.0670614 31.179248,16.0283231 31.2508216,15.9590112 C37.0162645,10.3474235 40.1881263,9.17017663 41.8321523,9.17017663 C42.7910562,9.17017663 43.2771857,9.39016047 43.2771857,9.8247952 C43.1933793,10.9068478 42.2695304,11.7303014 41.1830892,11.6913247 C40.8452025,11.6913247 40.495296,11.6633268 40.1240213,11.6313291 C39.7527465,11.5993315 39.3721231,11.5700003 39.0021839,11.5700003 C35.0664043,11.5700003 31.1079209,16.5563006 28.4796161,20.7399933 L28.4675964,20.7599918 C28.4675964,20.7599918 27.5193767,22.4931978 27.445923,22.6265213 C27.2629567,22.7025157 26.6566303,22.7425128 25.6189307,22.7425128 C25.1302613,22.7401491 24.6457586,22.6526187 24.1872525,22.4838651 L28.8415422,14.1071472 C29.1166595,13.6538472 29.5974469,12.7099166 29.5974469,12.1299592 C29.5974469,11.5500018 29.0351927,10.9593785 28.0949861,10.9593785 C26.4923612,10.9593785 24.2353312,12.2406177 23.1535594,12.9205678 L23.0427112,12.8459066 C24.7508422,11.6286627 28.7226808,9.1688434 31.2815386,9.1688434 C32.0414498,9.1688434 33.3182077,9.26883605 33.3182077,9.94345315 C33.3182077,10.0527785 33.2647868,10.4087523 32.7706442,11.3460168 L30.5323114,15.5030447 C30.4682838,15.6212904 30.4713507,15.7644551 30.5403837,15.8798601 C30.6094166,15.9952651 30.7342167,16.0658605 30.8688626,16.06567 L30.9837174,16.0670033 Z M32.1963703,14.0191537 L33.4424111,11.7059903 C34.014014,10.6234032 34.0794545,10.1821023 34.0794545,9.94478639 C34.0794545,9.24350458 33.5946604,8.40756599 31.274861,8.40756599 C28.2445644,8.40756599 23.6530442,11.4033459 22.1398992,12.559261 C22.0420264,12.6332478 21.9862487,12.7500811 21.9903209,12.8725713 C21.9938241,12.9954733 22.0564771,13.1091477 22.1585965,13.1778822 L22.9265209,13.692511 C23.0541167,13.7765488 23.2196141,13.7765488 23.3472099,13.692511 C24.0670556,13.2298784 26.5377689,11.7193227 28.0909795,11.7193227 C28.6545693,11.7193227 28.8295225,12.0179674 28.8295225,12.1272927 C28.8295225,12.4499357 28.4903002,13.2058801 28.1764529,13.7271752 L23.5128145,22.1265581 C23.5165072,22.1185822 23.5209807,22.1109903 23.5261697,22.1038931 C23.420823,22.243389 23.3590366,22.4108081 23.3485454,22.585191 C23.3485454,23.457127 25.5922203,23.5184558 25.6189307,23.5184558 C27.3751404,23.5184558 27.8799673,23.429129 28.0749533,23.0811546 C28.0749533,23.0811546 29.0672452,21.2639548 29.1326857,21.14663 C31.2014073,17.8535387 35.2293378,12.3472765 39.0021839,12.3472765 C39.3400706,12.3472765 39.689977,12.3766077 40.0612518,12.4072721 C40.4325266,12.4379365 40.81315,12.468601 41.1830892,12.468601 C43.2023965,12.468601 44.0411036,10.75806 44.0411036,9.84212726 C44.0411036,9.1955081 43.6578091,8.42489805 41.8321523,8.42489805 C39.5083462,8.42489805 36.2697085,10.3154258 32.1963703,14.0364858 L32.1963703,14.0191537 Z"/><path d="M10.5088492,10.7833914 C10.6486535,10.7836569 10.7773514,10.7073893 10.8440649,10.5847394 C12.8259777,6.98500384 14.3057346,4.64650899 19.5115944,2.27201678 C20.9499502,1.60539909 23.4219991,0.822789919 25.6616673,0.822789919 C26.8222349,0.822789919 27.6970009,1.08943699 27.6970009,1.43074525 C27.6970009,1.64139644 27.2736409,2.53466415 26.4269207,2.53466415 C25.9407912,2.53466415 25.4065829,2.40134061 24.8416576,2.25868442 C24.1738973,2.09069676 23.4714134,1.91470969 22.7141731,1.91470969 C18.7957553,1.91470969 17.6391943,4.37452897 16.8846251,6.00240937 L14.8239167,10.2354317 C14.7664195,10.3535523 14.7738585,10.4928975 14.843606,10.6042484 C14.9133535,10.7155992 15.0355922,10.7832825 15.1671455,10.7833914 L21.0007,10.7833914 L20.7189051,11.2873544 L14.5180824,11.2873544 C14.3758763,11.2874086 14.2455606,11.3665954 14.1801957,11.4926727 L4.43089437,30.2219633 L1.44199899,30.6832627 C1.81995135,29.8833215 10.3245473,11.8299812 10.3245473,11.8299812 C10.3797691,11.7119165 10.370776,11.573876 10.3007008,11.4639462 C10.2306256,11.3540164 10.1091716,11.2874195 9.97864747,11.2873544 L5.30432493,11.2873544 L5.56074491,10.7833914 L10.5088492,10.7833914 Z M19.1897339,1.58406732 C13.6045862,4.12521395 12.0193231,6.85967972 10.2831462,10.0207808 L5.32435774,10.0207808 C5.18077671,10.0209599 5.04933688,10.1012326 4.98379995,10.2287655 L4.33740792,11.4953391 C4.30938258,11.5488316 4.29472091,11.6082927 4.29467126,11.6686597 C4.2956378,11.7386356 4.31497904,11.8071335 4.35076313,11.8673118 C4.42028093,11.9805167 4.54361911,12.0496496 4.67663019,12.0499651 L9.37632762,12.0499651 L0.552542186,30.7779224 C0.528906819,30.8289081 0.516605528,30.8843966 0.516483127,30.9405771 C0.515349527,31.0400714 0.55376957,31.1359571 0.623324785,31.2072242 L0.800949041,31.3912107 C0.887193552,31.4808877 1.01170306,31.5231485 1.13482922,31.5045357 L4.73272206,30.9472433 C4.85300115,30.9285827 4.95716862,30.8538095 5.01318141,30.7459248 L14.750463,12.0499651 L20.9499502,12.0499651 C21.0884766,12.049425 21.2160108,11.9745632 21.2838304,11.8539795 L21.9916564,10.5874058 C22.0242462,10.5310785 22.0412967,10.4671336 22.0410707,10.4020861 C22.041192,10.3339975 22.0227234,10.2671632 21.9876498,10.208767 C21.9191501,10.0925078 21.7942218,10.0210251 21.6591117,10.0207808 L15.7828205,10.0207808 L17.5737538,6.32638557 C18.3363362,4.6958387 19.2818848,2.67465386 22.7141731,2.67465386 C23.3819335,2.67465386 24.02699,2.83730858 24.6546847,2.99463035 C25.2823795,3.15195213 25.8473047,3.29327508 26.4269207,3.29327508 C27.6889878,3.29327508 28.4609188,2.08536382 28.4609188,1.42674555 C28.4609188,0.556142843 27.4405809,0.0561795752 25.6563253,0.0561795752 C23.2937891,0.0561795752 20.7656484,0.840121978 19.1857273,1.57473467 L19.1897339,1.58406732 Z"/></g></g></g></svg>