<?xml version="1.0" encoding="UTF-8"?>
<svg width="184px" height="61px" viewBox="0 0 184 61" version="1.1" xmlns="http://www.w3.org/2000/svg" xmlns:xlink="http://www.w3.org/1999/xlink">
    <!-- Generator: Sketch 50.2 (55047) - http://www.bohemiancoding.com/sketch -->
    <title>Logo</title>
    <desc>Created with Sketch.</desc>
    <defs>
        <polygon id="path-1" points="7.30830671e-05 0.00439960064 60.3621554 0.00439960064 60.3621554 60.3666134 7.30830671e-05 60.3666134"></polygon>
    </defs>
    <g id="Page-1" stroke="none" stroke-width="1" fill="none" fill-rule="evenodd">
        <g id="Enregistrement-SIM" transform="translate(-159.000000, -41.000000)">
            <g id="Nav" transform="translate(159.500000, 41.000000)">
                <g id="Logo">
                    <g id="Group-3" transform="translate(0.000000, 0.141781)">
                        <mask id="mask-2" fill="white">
                            <use xlink:href="#path-1"></use>
                        </mask>
                        <g id="Clip-2"></g>
                        <path d="M60.3621554,2.45399784 L60.3621554,57.9170298 C60.3621554,59.2699435 59.2654708,60.366628 57.9127033,60.366628 L2.44952516,60.366628 C1.09675759,60.366628 7.30830671e-05,59.2699435 7.30830671e-05,57.9170298 L7.30830671e-05,2.45399784 C7.30830671e-05,1.10108411 1.09675759,0.00439960064 2.44952516,0.00439960064 L57.9127033,0.00439960064 C59.2654708,0.00439960064 60.3621554,1.10108411 60.3621554,2.45399784" id="Fill-1" fill="#34AF4F" mask="url(#mask-2)"></path>
                    </g>
                    <path d="M30.3318554,30.3735565 L24.8944752,19.1797155 C24.2260574,17.7800286 22.8379177,16.9606212 21.3851724,16.9438121 C21.3465846,16.941912 21.3082891,16.9441045 21.2698474,16.9433736 C21.2312595,16.9441045 21.1931101,16.941912 21.1543761,16.9438121 C19.7016309,16.9606212 18.3134911,17.7800286 17.6450734,19.1797155 L8.79953746,37.7002802 C7.86641286,39.6540829 8.55397835,42.0840949 10.4829328,43.0673545 C12.4626069,44.0764855 14.8725942,43.250793 15.8242819,41.2579639 L21.0714999,30.2208129 L26.529051,40.8679927 C26.8640638,41.8201188 27.5627379,42.6442035 28.5452667,43.113543 C29.0977747,43.3772267 29.6806852,43.4963521 30.2543873,43.4938673 C30.8282355,43.4963521 31.4111461,43.3772267 31.9633617,43.113543 C32.9461828,42.6442035 33.5508721,41.7319807 33.9797236,40.8679927 L39.2867236,30.2208129 L44.5377419,41.2579639 C45.4895758,43.250793 47.8994169,44.0764855 49.8792371,43.0673545 C51.8081916,42.0842411 52.4959033,39.6540829 51.5627787,37.7004264 L42.7169504,19.1797155 C42.7134424,19.1721149 42.7086189,19.1656835 42.7048186,19.1582291 C42.6289584,19.0018313 42.5430127,18.8506955 42.4468354,18.7049679 C42.4311956,18.6814351 42.4140942,18.6596564 42.3981621,18.6365621 C42.3152859,18.5167059 42.2255399,18.4016732 42.1290702,18.2910254 C42.1065606,18.2653002 42.0847819,18.2389903 42.0615415,18.2138497 C41.8348378,17.9671212 41.5739312,17.7474335 41.2813066,17.5612179 C41.258797,17.5470398 41.2361413,17.534031 41.2133394,17.5201452 C41.0860287,17.4428233 40.9531637,17.3719327 40.8145982,17.307912 C40.7955966,17.299142 40.7768873,17.2897874 40.7577395,17.2813097 C40.7172515,17.2633313 40.6793945,17.2421372 40.6378833,17.2251819 C40.3589983,17.1123417 40.0744129,17.0394048 39.7890966,16.9962858 C39.749924,16.9901468 39.7106054,16.9862003 39.6714328,16.9810845 C39.5746708,16.9696835 39.4783474,16.9617906 39.3815854,16.9578441 C39.3234113,16.9544823 39.2662603,16.944543 39.2076477,16.9438121 C39.1690598,16.941912 39.1307643,16.9441045 39.0924688,16.9433736 C39.0538809,16.9441045 39.0155854,16.941912 38.9769975,16.9438121 C38.4304823,16.9502435 37.9145159,17.1288585 37.435091,17.3883034 C36.6358546,17.7934759 35.9576437,18.4607243 35.548817,19.3166732 L31.0603474,28.8304807 C31.0603474,28.8304807 33.1585622,35.3839855 32.7511972,35.7608018 C32.8938554,35.5061804 32.1707715,33.9787442 32.1707715,33.9787442 L30.3318554,30.3745797" id="Fill-4" fill="#FFFFFF"></path>
                    <path d="M70.1607091,23.9772242 L74.0481436,33.679586 C74.1340893,33.8941579 74.4379687,33.8941579 74.5239144,33.679586 L78.4113489,23.9772242 C78.6228513,23.4497106 79.1339942,23.1037354 79.7022882,23.1037354 L79.711789,23.1037354 C80.479892,23.1037354 81.1024136,23.7264031 81.1024136,24.4945062 L81.1024136,35.8903488 C81.1024136,36.3890677 80.6984104,36.7930708 80.1998377,36.7930708 C79.7014112,36.7930708 79.2972618,36.3890677 79.2972618,35.8903488 L79.2972618,31.4620996 L79.4245725,27.132951 C79.432904,26.8473424 79.0382554,26.76432 78.9309695,27.0290269 L75.2008097,36.2296004 C75.0626827,36.5701675 74.7319088,36.7930708 74.364301,36.7930708 L74.1982562,36.7930708 C73.8306484,36.7930708 73.4998744,36.5703137 73.3617474,36.2297466 L69.6438657,27.063376 C69.5364335,26.7983768 69.1412003,26.8819838 69.1501165,27.1677386 L69.2841508,31.4620996 L69.2841508,35.8903488 C69.2841508,36.3890677 68.8801476,36.7930708 68.3815749,36.7930708 C67.8831484,36.7930708 67.478999,36.3890677 67.478999,35.8903488 L67.478999,24.4945062 C67.478999,23.7264031 68.1016668,23.1037354 68.8696236,23.1037354 C69.4380637,23.1037354 69.9493529,23.4497106 70.1607091,23.9772242" id="Fill-6" fill="#4A494A"></path>
                    <path d="M87.4111632,35.4673148 C87.956509,35.4673148 88.4736448,35.3262645 88.9624244,35.0441638 C89.430156,34.7744873 89.7743772,34.4271966 89.9955266,34.0025839 C90.015259,33.9647269 90.024906,33.9219002 90.024906,33.8790736 L90.024906,32.1132405 C90.024906,31.9717517 89.9101656,31.8570113 89.7686768,31.8570113 L88.6616145,31.8570113 C86.5303661,31.8570113 85.4649611,32.4807022 85.4649611,33.7280839 C85.4649611,34.2732836 85.6464994,34.6996502 86.0103069,35.0067453 C86.373676,35.3136942 86.8405306,35.4673148 87.4111632,35.4673148 M90.1840809,36.4691375 L90.1815961,36.4593443 C90.1036895,36.1563419 89.7439747,36.0303467 89.4931536,36.217147 C88.8095346,36.7263899 88.0307614,36.9810113 87.1572726,36.9810113 C86.1542806,36.9810113 85.3316576,36.6975951 84.6891113,36.130032 C84.0465649,35.5629074 83.7255841,34.8434777 83.7255841,33.9723276 C83.7255841,32.9132077 84.1282718,32.0904386 84.9336472,31.5043124 C85.7390226,30.9184785 86.8721025,30.6252692 88.3325945,30.6252692 L89.7686768,30.6252692 C89.9101656,30.6252692 90.024906,30.510675 90.024906,30.36904 L90.024906,29.826179 C90.024906,29.218274 89.8430753,28.7341718 89.4795601,28.37358 C89.1158988,28.0131343 88.5799076,27.8330576 87.8718788,27.8330576 C87.2512574,27.8330576 86.7310522,27.9897477 86.3111169,28.3029817 C86.0486025,28.4989905 85.8680873,28.7205784 85.7697175,28.9678915 C85.6516153,29.2647549 85.3418892,29.4407389 85.0222239,29.4407389 C84.3802622,29.4407389 83.9739204,28.7312485 84.3190186,28.189703 C84.3660841,28.1158891 84.4175346,28.0423675 84.4732239,27.9692844 C84.8333772,27.4961446 85.322303,27.121667 85.9398549,26.8457054 C86.5569683,26.570036 87.2354715,26.4320552 87.9752183,26.4320552 C89.1473245,26.4320552 90.0655402,26.7251183 90.7300114,27.3110983 C91.3943365,27.8972245 91.7389962,28.7042077 91.764283,29.7321942 L91.764283,34.4143339 C91.764283,35.3484817 91.8832622,36.0911518 92.121513,36.6426367 L92.121513,36.7930416 L90.611763,36.7930416 C90.4125386,36.7930416 90.2339236,36.6622229 90.1840809,36.4691375" id="Fill-8" fill="#4A494A"></path>
                    <path d="M95.7789551,31.8194466 C95.7789551,32.947703 96.0405925,33.8534945 96.5640134,34.5365288 C97.087142,35.2197093 97.7877163,35.5614458 98.6652978,35.5614458 C99.5490182,35.5614458 100.251054,35.215032 100.771259,34.5223507 C101.291465,33.8298156 101.55164,32.8597109 101.55164,31.6126215 C101.55164,30.4969354 101.286934,29.5927517 100.757374,28.9000704 C100.227375,28.2075352 99.5238776,27.8611215 98.6464423,27.8611215 C97.7877163,27.8611215 97.0951812,28.2028579 96.5685446,28.8860384 C96.0422003,29.5692189 95.7789551,30.5470704 95.7789551,31.8194466 Z M94.0300773,31.6126215 C94.0300773,30.6160608 94.2259399,29.7196239 94.6176652,28.9236031 C95.0092442,28.1277285 95.5545901,27.5133923 96.2535565,27.0808867 C96.952523,26.6483811 97.7500054,26.4320552 98.6464423,26.4320552 C100.031513,26.4320552 101.152315,26.9116263 102.007533,27.8706223 C102.863481,28.8296183 103.291164,30.105064 103.291164,31.6971055 L103.291164,31.8194466 C103.291164,32.8097221 103.10144,33.6982661 102.722139,34.4846399 C102.342838,35.2714522 101.800708,35.8843268 101.095894,36.3229713 C100.390497,36.7617621 99.5802978,36.9810113 98.6652978,36.9810113 C97.2862203,36.9810113 96.1692187,36.5015863 95.3132698,35.5425903 C94.4580518,34.5835943 94.0300773,33.3144338 94.0300773,31.7348164 L94.0300773,31.6126215 Z" id="Fill-10" fill="#4A494A"></path>
                    <path d="M110.389576,27.3378321 C110.389576,27.7754535 110.030446,28.1193824 109.592824,28.1152898 C109.573238,28.1151436 109.553652,28.1149974 109.533919,28.1149974 C108.413702,28.1149974 107.647061,28.5833137 107.234141,29.5200925 C107.219378,29.554003 107.211632,29.5917139 107.211632,29.6286939 L107.211632,35.9233385 C107.211632,36.4036404 106.822391,36.793027 106.342089,36.793027 C105.861641,36.793027 105.472255,36.4036404 105.472255,35.9233385 L105.472255,26.9398217 C105.472255,26.763253 105.615497,26.6201564 105.792066,26.6201564 L106.852501,26.6201564 C107.026001,26.6201564 107.167928,26.7587219 107.172167,26.9322211 C107.178744,27.2059903 107.507326,27.3482099 107.705965,27.1596556 C108.216378,26.6746764 108.853808,26.4320406 109.618696,26.4320406 L109.628781,26.4320406 C110.047108,26.4326252 110.389576,26.7753848 110.389576,27.1940046 L110.389576,27.3378321 Z" id="Fill-12" fill="#4A494A"></path>
                    <path d="M115.814415,27.86118 C115.112233,27.86118 114.523183,28.1166784 114.046828,28.6273828 C113.622215,29.0826903 113.342307,29.7006808 113.206373,30.4817926 C113.17977,30.6359978 113.303573,30.7757327 113.460117,30.7757327 L118.259043,30.7757327 L118.259043,30.6441831 C118.208762,29.7603165 117.970512,29.0756744 117.544437,28.5898181 C117.118071,28.1041081 116.541445,27.86118 115.814415,27.86118 M116.030595,36.9810697 C114.651517,36.9810697 113.529692,36.5283932 112.664827,35.6223093 C111.799816,34.7168101 111.36731,33.5056776 111.36731,31.9886192 L111.36731,31.6689539 C111.36731,30.6596768 111.559957,29.7588549 111.94569,28.9659036 C112.330837,28.1730985 112.869898,27.5524771 113.562872,27.1043317 C114.255115,26.6561863 115.00597,26.4321137 115.814415,26.4321137 C117.136926,26.4321137 118.164912,26.8678349 118.898374,27.7389851 C119.631543,28.6102814 119.998274,29.8576632 119.998274,31.4808381 C119.998274,31.8807486 119.674224,32.204799 119.27446,32.204799 L113.376802,32.204799 C113.229905,32.204799 113.109026,32.3286017 113.120281,32.4750601 C113.187517,33.3542494 113.476049,34.0742638 113.985584,34.6351033 C114.54657,35.2528014 115.259714,35.5613581 116.124726,35.5613581 C116.738769,35.5613581 117.259121,35.4359475 117.685488,35.1852726 C117.945517,35.0322367 118.18596,34.8487982 118.406379,34.6349571 C118.6553,34.393783 119.044686,34.3759507 119.318017,34.5887686 C119.637536,34.8376895 119.683725,35.3090753 119.411563,35.6091544 C118.582071,36.5238621 117.45513,36.9810697 116.030595,36.9810697" id="Fill-14" fill="#4A494A"></path>
                    <path d="M129.731463,23.9772242 L133.619043,33.679586 C133.704989,33.8941579 134.008722,33.8941579 134.094814,33.679586 L137.982102,23.9772242 C138.193605,23.4497106 138.704748,23.1037354 139.273042,23.1037354 L139.282542,23.1037354 C140.050645,23.1037354 140.673167,23.7264031 140.673167,24.4945062 L140.673167,35.8903488 C140.673167,36.3890677 140.269164,36.7930708 139.770737,36.7930708 C139.272018,36.7930708 138.868015,36.3890677 138.868015,35.8903488 L138.868015,31.4620996 L138.995472,27.132951 C139.003804,26.8473424 138.609009,26.76432 138.501723,27.0290269 L134.771563,36.2296004 C134.633436,36.5701675 134.302662,36.7930708 133.935201,36.7930708 L133.76901,36.7930708 C133.401402,36.7930708 133.070774,36.5703137 132.932501,36.2297466 L129.214619,27.063376 C129.107187,26.7983768 128.711954,26.8819838 128.721016,27.1677386 L128.85505,31.4620996 L128.85505,35.8903488 C128.85505,36.3890677 128.450901,36.7930708 127.952328,36.7930708 C127.453902,36.7930708 127.049752,36.3890677 127.049752,35.8903488 L127.049752,24.4945062 C127.049752,23.7264031 127.67242,23.1037354 128.440523,23.1037354 C129.008963,23.1037354 129.520106,23.4497106 129.731463,23.9772242" id="Fill-16" fill="#4A494A"></path>
                    <path d="M144.875926,31.8194466 C144.875926,32.947703 145.137563,33.8534945 145.66113,34.5365288 C146.184113,35.2197093 146.884687,35.5614458 147.762268,35.5614458 C148.646135,35.5614458 149.348025,35.215032 149.86823,34.5223507 C150.388435,33.8298156 150.648611,32.8597109 150.648611,31.6126215 C150.648611,30.4969354 150.383904,29.5927517 149.85449,28.9000704 C149.324492,28.2075352 148.620848,27.8611215 147.743413,27.8611215 C146.884687,27.8611215 146.192152,28.2028579 145.665661,28.8860384 C145.139171,29.5692189 144.875926,30.5470704 144.875926,31.8194466 Z M143.127048,31.6126215 C143.127048,30.6160608 143.322911,29.7196239 143.714636,28.9236031 C144.106215,28.1277285 144.651561,27.5133923 145.350527,27.0808867 C146.049494,26.6483811 146.846976,26.4320552 147.743413,26.4320552 C149.128629,26.4320552 150.249285,26.9116263 151.104503,27.8706223 C151.960452,28.8296183 152.388134,30.105064 152.388134,31.6971055 L152.388134,31.8194466 C152.388134,32.8097221 152.198411,33.6982661 151.819109,34.4846399 C151.439808,35.2714522 150.897678,35.8843268 150.192865,36.3229713 C149.487467,36.7617621 148.677268,36.9810113 147.762268,36.9810113 C146.383191,36.9810113 145.266189,36.5015863 144.41024,35.5425903 C143.555022,34.5835943 143.127048,33.3144338 143.127048,31.7348164 L143.127048,31.6126215 Z" id="Fill-18" fill="#4A494A"></path>
                    <path d="M161.442103,31.6218884 C161.442103,30.4373581 161.213353,29.5222119 160.755853,28.8765961 C160.298061,28.2311264 159.640021,27.9082454 158.781441,27.9082454 C157.654792,27.9082454 156.839478,28.4221656 156.335643,29.450152 C156.317957,29.4865474 156.308748,29.52762 156.308748,29.5681081 L156.308748,33.8418597 C156.308748,33.884394 156.318834,33.9273669 156.338566,33.9650777 C156.872073,34.9917486 157.692796,35.5049379 158.800296,35.5049379 C159.633736,35.5049379 160.282421,35.1820569 160.746352,34.5364411 C161.209991,33.8909715 161.442103,32.9194052 161.442103,31.6218884 Z M163.18148,31.819505 C163.18148,33.3738357 162.82425,34.6226792 162.109644,35.5658892 C161.395184,36.5095378 160.436188,36.9810697 159.232802,36.9810697 C158.167543,36.9810697 157.302678,36.6688589 156.638207,36.0444371 C156.481517,35.8972478 156.224995,35.9979563 156.209502,36.212382 C156.185969,36.539648 155.913661,36.7931001 155.585518,36.7931001 L155.194962,36.7931001 C154.849426,36.7931001 154.569225,36.5128996 154.569225,36.167509 L154.569225,23.2212822 C154.569225,22.7409803 154.958758,22.3515937 155.43906,22.3515937 C155.919362,22.3515937 156.308748,22.7409803 156.308748,23.2212822 L156.308748,27.1027239 C156.308748,27.3210961 156.566293,27.4410985 156.729853,27.2965402 C157.381608,26.7202071 158.209639,26.4321137 159.213946,26.4321137 C160.448466,26.4321137 161.418863,26.8991145 162.123676,27.8329699 C162.829073,28.7669715 163.18148,30.0456328 163.18148,31.6689539 L163.18148,31.819505 Z" id="Fill-20" fill="#4A494A"></path>
                    <path d="M166.392341,36.7930855 C165.912039,36.7930855 165.522652,36.4036989 165.522652,35.923397 L165.522652,27.4897572 C165.522652,27.0094553 165.912039,26.6200687 166.392341,26.6200687 C166.872643,26.6200687 167.261883,27.0094553 167.261883,27.4897572 L167.261883,35.923397 C167.261883,36.4036989 166.872643,36.7930855 166.392341,36.7930855 M165.381602,23.9216957 C165.381602,23.6397412 165.467548,23.4014904 165.64017,23.2072356 C165.8125,23.0129808 166.067852,22.9157804 166.406373,22.9157804 C166.744893,22.9157804 167.001707,23.0129808 167.177399,23.2072356 C167.352798,23.4014904 167.440644,23.6397412 167.440644,23.9216957 C167.440644,24.2037963 167.352798,24.4388315 167.177399,24.6269473 C167.001707,24.8149169 166.744893,24.9089018 166.406373,24.9089018 C166.067852,24.9089018 165.8125,24.8149169 165.64017,24.6269473 C165.467548,24.4388315 165.381602,24.2037963 165.381602,23.9216957" id="Fill-22" fill="#4A494A"></path>
                    <path d="M171.065082,36.7930855 C170.58478,36.7930855 170.195394,36.4036989 170.195394,35.923397 L170.195394,23.2212676 C170.195394,22.7409657 170.58478,22.3515791 171.065082,22.3515791 C171.545384,22.3515791 171.934771,22.7409657 171.934771,23.2212676 L171.934771,35.923397 C171.934771,36.4036989 171.545384,36.7930855 171.065082,36.7930855" id="Fill-24" fill="#4A494A"></path>
                    <path d="M178.72296,27.86118 C178.020778,27.86118 177.431728,28.1166784 176.955373,28.6273828 C176.53076,29.0826903 176.250706,29.7006808 176.114917,30.4817926 C176.088169,30.6359978 176.212118,30.7757327 176.368662,30.7757327 L181.167588,30.7757327 L181.167588,30.6441831 C181.117307,29.7603165 180.87891,29.0756744 180.452982,28.5898181 C180.026615,28.1041081 179.449844,27.86118 178.72296,27.86118 M178.939139,36.9810697 C177.560062,36.9810697 176.438237,36.5283932 175.573226,35.6223093 C174.708361,34.7168101 174.275855,33.5056776 174.275855,31.9886192 L174.275855,31.6689539 C174.275855,30.6596768 174.468502,29.7588549 174.854088,28.9659036 C175.239382,28.1730985 175.778443,27.5524771 176.471417,27.1043317 C177.163513,26.6561863 177.914369,26.4321137 178.72296,26.4321137 C180.045471,26.4321137 181.073457,26.8678349 181.806773,27.7389851 C182.540088,28.6102814 182.906819,29.8576632 182.906819,31.4808381 C182.906819,31.8807486 182.582623,32.204799 182.182858,32.204799 L176.285201,32.204799 C176.13845,32.204799 176.017571,32.3286017 176.028679,32.4750601 C176.095916,33.3542494 176.384594,34.0742638 176.894129,34.6351033 C177.454968,35.2528014 178.168259,35.5613581 179.03327,35.5613581 C179.647314,35.5613581 180.167666,35.4359475 180.594032,35.1852726 C180.854062,35.0322367 181.094505,34.8487982 181.314924,34.6349571 C181.563698,34.393783 181.953231,34.3759507 182.226562,34.5887686 C182.546081,34.8376895 182.59227,35.3090753 182.319962,35.6091544 C181.490615,36.5238621 180.363675,36.9810697 178.939139,36.9810697" id="Fill-26" fill="#4A494A"></path>
                    <polygon id="Fill-28" fill="#4A494A" points="116.545538 22.5711498 118.591425 22.5711498 116.143873 25.2566602 114.783651 25.2509597"></polygon>
                </g>
            </g>
        </g>
    </g>
</svg>
