<?xml version="1.0" encoding="UTF-8" standalone="no"?>
<!-- Created with Inkscape (http://www.inkscape.org/) -->

<svg
   xmlns:dc="http://purl.org/dc/elements/1.1/"
   xmlns:cc="http://creativecommons.org/ns#"
   xmlns:rdf="http://www.w3.org/1999/02/22-rdf-syntax-ns#"
   xmlns:svg="http://www.w3.org/2000/svg"
   xmlns="http://www.w3.org/2000/svg"
   xmlns:xlink="http://www.w3.org/1999/xlink"
   xmlns:sodipodi="http://sodipodi.sourceforge.net/DTD/sodipodi-0.dtd"
   xmlns:inkscape="http://www.inkscape.org/namespaces/inkscape"
   id="svg2"
   version="1.1"
   inkscape:version="0.91 r13725"
   xml:space="preserve"
   width="600"
   height="600"
   viewBox="0 0 599.99999 599.99998"
   sodipodi:docname="Logo SFR.svg"><metadata
     id="metadata8"><rdf:RDF><cc:Work
         rdf:about=""><dc:format>image/svg+xml</dc:format><dc:type
           rdf:resource="http://purl.org/dc/dcmitype/StillImage" /><dc:title></dc:title></cc:Work></rdf:RDF></metadata><defs
     id="defs6"><linearGradient
       inkscape:collect="always"
       id="linearGradient5219"><stop
         style="stop-color:#ee0004;stop-opacity:1"
         offset="0"
         id="stop5221" /><stop
         id="stop5227"
         offset="0.53130257"
         style="stop-color:#eb0004;stop-opacity:1" /><stop
         style="stop-color:#b30009;stop-opacity:1"
         offset="1"
         id="stop5223" /></linearGradient><radialGradient
       inkscape:collect="always"
       xlink:href="#linearGradient5219"
       id="radialGradient5225"
       cx="458.39304"
       cy="-32.368469"
       fx="458.39304"
       fy="-32.368469"
       r="11.480219"
       gradientUnits="userSpaceOnUse"
       gradientTransform="matrix(-1.3718905,-0.01611249,0.01770782,-1.5074058,1089.8431,-82.021509)" /></defs><sodipodi:namedview
     pagecolor="#ffffff"
     bordercolor="#666666"
     borderopacity="1"
     objecttolerance="10"
     gridtolerance="10"
     guidetolerance="10"
     inkscape:pageopacity="0"
     inkscape:pageshadow="2"
     inkscape:window-width="1280"
     inkscape:window-height="691"
     id="namedview4"
     showgrid="false"
     inkscape:zoom="1.1047945"
     inkscape:cx="116.31408"
     inkscape:cy="227.2207"
     inkscape:window-x="0"
     inkscape:window-y="1"
     inkscape:window-maximized="1"
     inkscape:current-layer="g10" /><g
     id="g10"
     inkscape:groupmode="layer"
     inkscape:label="Calendrier_Pro_A_2017-18 - copie"
     transform="matrix(1.25,0,0,-1.25,0,599.99995)"><g
       id="g4164"
       transform="matrix(1.9480519,0,0,1.9480519,1.8599955e-6,4.6539632e-5)"><g
         transform="matrix(10.731503,0,0,10.731503,-4773.601,-262.97853)"
         id="g3260"><rect
           transform="scale(1,-1)"
           y="-47.465717"
           x="444.82129"
           height="22.960438"
           width="22.960438"
           id="rect5139"
           style="opacity:1;fill:url(#radialGradient5225);fill-opacity:1;fill-rule:nonzero;stroke:none;stroke-width:0.1;stroke-linecap:round;stroke-linejoin:round;stroke-miterlimit:4;stroke-dasharray:none;stroke-dashoffset:8.40254879;stroke-opacity:1" /></g><path
         inkscape:connector-curvature="0"
         id="path3842"
         style="fill:#ffffff;fill-opacity:1;fill-rule:nonzero;stroke:none"
         d="m 80.15098,133.54837 c -9.044089,2.53263 -10.107469,7.29742 -10.107469,10.38809 0,5.91306 4.586492,9.86226 12.835734,9.86226 5.692842,0 10.719723,-2.42532 14.382481,-7.28669 l 9.935614,5.79501 c -4.82281,7.07206 -12.277199,12.96365 -24.350314,12.96365 -14.242836,0 -25.929272,-8.85349 -25.929272,-21.91373 0,-12.82414 11.031215,-18.68354 22.814318,-21.99958 0,0 5.41357,-1.55607 5.456539,-1.5668 10.10747,-2.67214 10.891578,-7.2223 10.891578,-11.17149 0,-7.21157 -7.56181,-11.66515 -14.113949,-11.66515 -6.85288,0 -12.25571,2.24289 -16.670348,10.04469 l -9.935615,-5.90233 c 6.433982,-11.05344 14.156908,-15.54994 26.659672,-15.54994 13.802447,0 27.132291,10.51687 27.132291,23.65223 0,15.54995 -12.631663,19.93913 -23.56621,22.77225 -0.03223,0.0215 -5.43505,1.57753 -5.43505,1.57753 m 125.14578,-4.18529 c 11.3642,0 14.9088,4.85064 14.9088,12.10514 0,4.78625 -2.15898,10.75296 -14.47915,10.75296 l -14.47914,0 0,-22.8581 14.04949,0 z m 15.71439,-42.01383 -17.04629,30.64917 -12.71759,0 0,-30.64917 -12.54573,0 0,76.11855 28.1527,0 c 11.33198,0 26.44485,-3.17652 26.44485,-22.11763 0,-12.88853 -6.69178,-18.83379 -17.2289,-21.61324 l 19.81752,-32.38768 -14.87656,0 z m -99.44208,0 0,76.11855 46.57386,0 0,-12.04075 -34.03887,0 0,-20.84058 29.29126,0 0,-11.80465 -29.29126,0 0,-31.43257 -12.53499,0 z" /></g></g></svg>