<?xml version="1.0" encoding="utf-8"?>
<!-- Generator: Adobe Illustrator 21.0.0, SVG Export Plug-In . SVG Version: 6.00 Build 0)  -->
<svg version="1.1" id="Layer_1" xmlns="http://www.w3.org/2000/svg" xmlns:xlink="http://www.w3.org/1999/xlink" x="0px" y="0px"
	 viewBox="0 0 176.3 173.9" style="enable-background:new 0 0 176.3 173.9;" xml:space="preserve">
<style type="text/css">
	.st0{fill:#D8DCE6;}
	.st1{fill:none;stroke:#FFFFFF;stroke-width:2;stroke-miterlimit:10;}
	.st2{fill:#F4A531;}
	.st3{fill:#DB7D0E;}
	.st4{fill:#A55A3E;}
	.st5{fill:#CC7E00;}
	.st6{fill:#F0B428;}
	.st7{fill:none;stroke:#FFFFFF;stroke-width:3;stroke-miterlimit:10;}
	.st8{fill:#F7B239;}
	.st9{fill:#EF8729;}
</style>
<title>Asset 1</title>
<ellipse class="st0" cx="109.5" cy="165.3" rx="66.8" ry="6"/>
<g id="Layer_2">
	<g id="OBJECTS">
		<path class="st1" d="M16,109c-4-5.6-12.2-9.4-14.4-16.3S3.8,77.9,3.8,71c0-7.1-4.2-15-2.1-21.7S12,38.8,16.2,33.1
			s5.3-14.6,11-18.8c5.6-4,14.4-2.4,21.3-4.6S61.6,1,68.4,1c7.2,0,13.3,6.6,19.9,8.8s15.5,0.6,21.2,4.7s6.8,13,11,18.8"/>
		<path class="st2" d="M135,48.6c2.2,6.9-2.1,14.8-2.1,21.7c0,7.1,4.2,15,2.1,21.7s-10.3,10.6-14.5,16.3s-5.3,14.6-11,18.8
			c-5.6,4-14.4,2.4-21.3,4.6s-13.1,8.7-20,8.7c-7.1,0-13.3-6.6-19.9-8.8s-15.5-0.6-21.2-4.7s-6.8-13-11-18.8
			c-4-5.6-12.2-9.4-14.4-16.3S3.8,76.9,3.8,70c0-7.1-4.2-15-2.1-21.7S12,37.8,16.2,32.1s5.3-14.6,11-18.8c5.6-4,14.4-2.4,21.3-4.6
			S61.6,0,68.4,0c7.1,0,13.3,6.6,19.9,8.8s15.5,0.6,21.2,4.7s6.8,13,11,18.8C124.7,37.8,132.8,41.7,135,48.6z"/>
		<path class="st3" d="M135,82.9c-2.2,6.7-10.3,10.6-14.5,16.3s-5.3,14.6-11,18.8c-5.6,4-14.4,2.4-21.3,4.6s-13.1,8.7-20,8.7
			c-7.1,0-13.3-6.6-19.9-8.8s-15.5-0.6-21.2-4.7s-6.8-13-11-18.8c-4-5.6-12.2-9.4-14.4-16.3c0-0.1,0-0.2-0.1-0.3
			c-0.8,3.1-0.7,6.3,0.1,9.3C3.9,98.6,12,102.4,16,108c4.2,5.8,5.4,14.7,11,18.8s14.5,2.5,21.2,4.7s12.8,8.7,19.9,8.8
			c6.9,0,13.1-6.5,20-8.7s15.7-0.6,21.3-4.6c5.8-4.2,6.9-13.1,11-18.8s12.3-9.6,14.6-16.3c1-2.9,0.7-6,0.1-9.2
			C135,82.7,135,82.8,135,82.9z"/>
		<path class="st4" d="M71.7,13.7c-1.5,0.4-14.7,5-12.2,17s13.4,8.8,15.8,9.4c5.6,1.2,11.3-1.7,13.7-6.9
			C94.1,22.3,82.8,10.6,71.7,13.7z"/>
		<path class="st4" d="M116.1,37.6c-2.6-1.4-5.8-1.6-8.5-0.4c-5.4-1.2-11,4.5-9.7,10.5c0.9,3.9,4.5,8,7.6,10.3
			c3.5,2.6,8.4,3.6,12.3,1.4C126.4,54.4,124.1,41.8,116.1,37.6z"/>
		<path class="st4" d="M113.4,79.7c-4.9-4.9-12.7-0.5-14,5.4c-0.5,1-0.8,2.1-0.8,3.2c0,6.2,6.9,9.2,11.8,5.9
			C115.2,91,118,84.2,113.4,79.7z"/>
		<path class="st4" d="M64.5,100.7c-3.3-2.8-8.6-3.1-11.8,0.2c-0.3,0.3-0.5,0.6-0.8,1c-3.5,0.4-5.7,3.9-5.7,7.3
			c0.1,7.2,9.1,11.4,15.3,9.6C69.5,116.4,70.4,105.7,64.5,100.7z"/>
		<path class="st4" d="M82.6,109.1c0-0.8-0.3-1.6-0.6-2.4c-0.7-1-1.6-1.8-2.8-2.2c-0.2-0.1-0.5-0.1-0.7-0.1c-0.4-0.1-0.9-0.1-1.3,0
			c-0.6,0.1-1.3,0.3-1.8,0.6c-0.4,0.2-0.7,0.5-1,0.8c-0.4,0.3-0.7,0.7-0.9,1.2c-0.2,0.4-0.4,0.8-0.5,1.2v0.2c-0.2,0.9-0.2,1.8,0,2.8
			c0.2,0.7,0.5,1.3,0.9,1.8c0.2,0.4,0.5,0.7,0.9,0.9c0.2,0.1,0.3,0.3,0.5,0.4c0.4,0.2,0.8,0.4,1.2,0.5c1.3,0.3,2.6,0.1,3.8-0.5
			c1.5-0.8,2.4-2.4,2.3-4.1l0,0C82.7,109.8,82.7,109.4,82.6,109.1z"/>
		<path class="st4" d="M30.8,68.6c-3.5-3.8-9.2-4.5-13.5-1.7c-2.1,1.4-13.8,8.2-4.6,21.1c6.1,8.5,17.9,3.5,20.8-5.7
			C35.1,77.6,34.1,72.4,30.8,68.6z"/>
		<path class="st4" d="M17.9,56.4c-0.2-0.7-0.6-1.4-1.2-2c-0.9-0.8-2-1.3-3.2-1.3c-0.6,0-1.2,0.1-1.8,0.2c-0.5,0.2-0.9,0.3-1.3,0.6
			C9.6,54.4,9,55,8.6,55.8c-0.3,0.5-0.6,1.1-0.8,1.7c-0.2,0.9-0.2,1.8,0,2.8c0.1,0.5,0.3,1,0.6,1.4c0.9,1.5,2.4,2.4,4.1,2.4
			s3.3-0.9,4.1-2.4l0.1-0.2c0.3-0.5,0.4-1,0.5-1.5l0,0v0.2c0-0.1,0-0.2,0.1-0.2l0,0l0,0c0.1-0.2,0.2-0.4,0.2-0.5
			C18.1,58.5,18.2,57.4,17.9,56.4z"/>
		<path class="st4" d="M40.4,25c-1-2.5-3.5-4.2-6.2-4.2c-2.7,0.1-5.1,1.9-5.9,4.5C28.1,25.9,28,26.4,28,27c-0.4,1.1-0.5,2.3-0.2,3.4
			c0.6,2.1,2.3,3.7,4.5,4.1c2.5,0.4,5-0.4,6.7-2.3C40.8,30.3,41.4,27.5,40.4,25z"/>
		<path class="st5" d="M48.4,48.9c-1.1-2.8-4.3-4.1-7.1-4.3c-2.2-0.2-4.5,0.6-6.2,2.1c-0.9,0.3-1.8,0.8-2.5,1.5
			c-2.1,1.8-2.6,4.9-1.3,7.3c3.1,5.9,10.3,3.9,14.4,0.5C47.8,54.3,49.5,51.8,48.4,48.9z"/>
		<path class="st6" d="M92.4,44.5c-5-3.1-12.5,0-12.9,6.1c-0.4,5.5,5.7,9.8,10.3,7.1h0.4c3.9-0.8,6.4-4.6,5.6-8.4
			C95.4,47.3,94.2,45.6,92.4,44.5L92.4,44.5z"/>
		<path class="st5" d="M40,96.2c-2.8-2.5-7.1-2.4-9.8,0.3c-2.5,2.7-3,6.8-1.1,10.1l0,0c0,0.1,0,0.2,0.1,0.3c0.8,3.3,4,5.4,7.3,4.9
			C43.3,110.6,44.5,100.4,40,96.2z"/>
		<path class="st6" d="M99.6,102.4c-2.4,0.1-4.6,1.5-5.7,3.6c-0.1,0.3-0.3,0.6-0.4,0.9v0.1c-0.8,2.2-0.4,4.8,1.1,6.6
			c1,1,2.4,1.4,3.7,1c2.1,0.5,4.3-0.1,5.8-1.5C108.3,109.3,105,102.4,99.6,102.4z"/>
		<path class="st5" d="M48.4,35.7c-0.6-1.1-1.9-1.6-3.1-1.2c-2.3,0.6-5.1,3.2-3.5,5.8c0.6,1.1,1.7,1.8,3,2c1.1,0.2,2.1-0.1,2.9-0.9
			c0.3-0.3,0.5-0.6,0.6-1c0.3-0.4,0.5-0.8,0.6-1.2C49.2,38,49,36.8,48.4,35.7z"/>
		<path class="st5" d="M108.7,26c-0.8-4.5-7.1-7.1-9.9-2.8c-1.3,1.9-1.1,4.3,0.4,6c0.6,1.1,1.6,2,2.8,2.4c2.6,1,5.5-0.2,6.5-2.8
			C108.8,27.9,108.8,26.9,108.7,26z"/>
		<path class="st4" d="M77.5,65.3c-1.4-6.8-10.3-7.5-14.7-3.3c-1,0.6-1.8,1.3-2.4,2.2C57,69.5,61.1,75.8,67,75.8
			C72.7,75.8,78.8,71.8,77.5,65.3z"/>
		<path class="st6" d="M77.3,80.8c-2.4-1-5.2-0.7-7.4,0.9c-0.3,0.2-0.5,0.4-0.7,0.7l-0.1,0.1c-1.7,1.7-2.2,4.3-1.3,6.5
			c0.7,1.4,2,2.3,3.6,2.5c2,1.3,4.4,1.8,6.7,1.1C83.9,90.8,83,83.1,77.3,80.8z"/>
		<path class="st6" d="M55.8,77.6c-0.6-1.1-1.9-1.6-3.1-1.2c-2.3,0.6-5.1,3.2-3.5,5.8c0.6,1.1,1.7,1.8,3,2c1.1,0.2,2.1-0.1,2.9-0.9
			c0.3-0.3,0.5-0.6,0.6-1c0.3-0.4,0.5-0.8,0.6-1.3C56.5,79.8,56.4,78.6,55.8,77.6z"/>
		<path class="st7" d="M56.3,142.8c-4.1-5.7-12.3-9.6-14.5-16.6s2.1-14.9,2.1-21.9c0-7.2-4.3-15.2-2.1-21.9S52.1,71.8,56.2,66
			s5.3-14.7,11.1-19c5.6-4.1,14.4-2.4,21.4-4.6s13.1-8.8,20.1-8.8c7.2,0,13.4,6.7,20.1,8.9c6.7,2.2,15.6,0.6,21.4,4.8
			s6.9,13.2,11.1,19"/>
		<path class="st8" d="M175.7,82.3c2.2,6.9-2.1,14.8-2.1,21.7c0,7.1,4.2,15,2.1,21.7s-10.3,10.6-14.5,16.3s-5.3,14.6-11,18.8
			c-5.6,4-14.4,2.4-21.3,4.6s-13.1,8.7-20,8.7c-7.1,0-13.3-6.6-19.9-8.8s-15.5-0.6-21.2-4.7s-6.8-13-11-18.8
			c-4-5.6-12.2-9.4-14.4-16.3s2.1-14.8,2.1-21.7c0-7.1-4.2-15-2.1-21.7s10.3-10.6,14.5-16.3s5.3-14.6,11-18.8
			c5.6-4,14.4-2.4,21.3-4.6s13.1-8.7,20-8.7c7.1,0,13.3,6.6,19.9,8.8c6.6,2.2,15.5,0.6,21.2,4.7s6.8,13,11,18.8
			C165.3,71.6,173.4,75.4,175.7,82.3z"/>
		<path class="st3" d="M175.6,116.6c-2.2,6.7-10.3,10.6-14.5,16.3s-5.3,14.6-11,18.8c-5.6,4-14.4,2.4-21.3,4.6s-13.1,8.7-20,8.7
			c-7.1,0-13.3-6.6-19.9-8.8s-15.5-0.6-21.2-4.7s-6.8-13-11-18.8c-4-5.6-12.2-9.4-14.4-16.3c0-0.1,0-0.2-0.1-0.3
			c-0.8,3.1-0.7,6.3,0.1,9.3c2.2,6.9,10.4,10.7,14.4,16.3c4.2,5.8,5.3,14.7,11,18.8s14.5,2.5,21.2,4.7s12.8,8.7,19.9,8.8
			c6.9,0,13-6.5,20-8.7c7-2.2,15.7-0.6,21.3-4.6c5.8-4.2,6.9-13.1,11-18.8s12.3-9.6,14.5-16.3c1-2.9,0.7-6,0.1-9.2
			C175.6,116.4,175.6,116.5,175.6,116.6z"/>
		<path class="st4" d="M112.3,47.4c-1.5,0.4-14.7,5-12.2,17s13.4,8.8,15.8,9.4c5.6,1.2,11.3-1.6,13.7-6.8
			C134.7,56,123.5,44.3,112.3,47.4z"/>
		<path class="st4" d="M156.7,71.3c-2.6-1.4-5.8-1.6-8.5-0.4c-5.4-1.2-11,4.5-9.7,10.5c0.9,3.9,4.5,8,7.6,10.3
			c3.5,2.6,8.4,3.6,12.4,1.4C167.1,88.1,164.7,75.5,156.7,71.3z"/>
		<path class="st4" d="M154,113.4c-4.9-4.9-12.7-0.5-14,5.4c-0.5,1-0.8,2.1-0.8,3.2c0,6.2,6.9,9.2,11.8,5.9
			C155.8,124.7,158.7,118,154,113.4z"/>
		<path class="st4" d="M105.1,134.4c-3.3-2.8-8.6-3.1-11.8,0.2c-0.3,0.3-0.5,0.6-0.8,1c-3.4,0.4-5.7,3.9-5.7,7.3
			c0.1,7.2,9.1,11.4,15.3,9.6C110.2,150.1,111,139.4,105.1,134.4z"/>
		<path class="st4" d="M123.3,142.8c0-0.8-0.3-1.6-0.6-2.4c-0.7-1-1.6-1.8-2.8-2.1c-0.2-0.1-0.5-0.1-0.7-0.1c-0.4-0.1-0.9-0.1-1.3,0
			c-0.6,0.1-1.3,0.3-1.8,0.6c-0.4,0.2-0.7,0.5-1,0.8c-0.4,0.3-0.7,0.7-0.9,1.2c-0.2,0.4-0.4,0.8-0.5,1.2v0.2c-0.2,0.9-0.2,1.8,0,2.8
			c0.2,0.7,0.5,1.3,0.9,1.9c0.2,0.4,0.5,0.7,0.9,0.9c0.2,0.1,0.3,0.3,0.5,0.4c0.4,0.2,0.8,0.4,1.2,0.5c1.3,0.3,2.6,0.1,3.8-0.5
			c1.5-0.8,2.4-2.4,2.4-4.1l0,0C123.3,143.5,123.3,143.2,123.3,142.8z"/>
		<path class="st4" d="M71.5,102.3c-3.5-3.8-9.2-4.5-13.5-1.7c-2.1,1.4-13.8,8.2-4.6,21.1c6.1,8.5,17.9,3.5,20.8-5.7
			C75.8,111.3,74.7,106.1,71.5,102.3z"/>
		<path class="st4" d="M58.5,90.1c-0.2-0.7-0.6-1.4-1.2-2c-0.9-0.8-2-1.3-3.2-1.3c-0.6,0-1.2,0.1-1.8,0.2c-0.5,0.2-0.9,0.3-1.3,0.6
			c-0.8,0.5-1.4,1.1-1.9,1.9c-0.3,0.5-0.6,1.1-0.8,1.7c-0.2,0.9-0.2,1.8,0,2.8c0.1,0.5,0.3,1,0.6,1.4c0.9,1.5,2.4,2.4,4.2,2.4
			c1.7,0,3.3-0.9,4.2-2.4l0.2-0.2c0.3-0.4,0.5-0.9,0.5-1.4l0,0V94c0-0.1,0-0.2,0.1-0.2l0,0l0,0c0.1-0.2,0.2-0.4,0.2-0.5
			C58.7,92.2,58.8,91.1,58.5,90.1z"/>
		<path class="st4" d="M81,58.7c-1-2.5-3.5-4.2-6.2-4.2c-2.7,0.1-5.1,1.9-5.9,4.5c-0.2,0.6-0.3,1.1-0.3,1.7
			c-0.4,1.1-0.5,2.3-0.2,3.4c0.6,2.1,2.3,3.7,4.5,4.1c2.5,0.4,5-0.4,6.7-2.3C81.5,64,82,61.1,81,58.7z"/>
		<path class="st9" d="M89,82.7c-1.1-2.8-4.3-4.1-7.1-4.3c-2.2-0.2-4.5,0.6-6.2,2.1c-0.9,0.3-1.8,0.8-2.5,1.5
			c-2.1,1.9-2.6,4.9-1.3,7.3c3.1,5.9,10.3,3.9,14.4,0.5C88.5,88,90.1,85.5,89,82.7z"/>
		<path class="st9" d="M133.1,78.2c-5-3.1-12.5,0-12.9,6.1c-0.4,5.6,5.7,9.8,10.4,7.1h0.4c3.9-0.8,6.4-4.6,5.6-8.4
			C136,81,134.8,79.3,133.1,78.2L133.1,78.2z"/>
		<path class="st9" d="M80.7,129.9c-2.8-2.5-7.1-2.4-9.8,0.3c-2.5,2.7-3,6.8-1.1,10.1l0,0c0,0.1,0,0.2,0.1,0.3
			c0.8,3.3,4,5.4,7.3,4.9C84,144.3,85.1,134.1,80.7,129.9z"/>
		<path class="st9" d="M140.2,136.1c-2.4,0.1-4.6,1.4-5.7,3.6c-0.1,0.3-0.3,0.6-0.4,0.9v0.1c-0.8,2.2-0.4,4.8,1.1,6.6
			c1,1,2.4,1.4,3.7,1c2.1,0.5,4.3-0.1,5.8-1.5C148.9,143.1,145.6,136.2,140.2,136.1z"/>
		<path class="st9" d="M89.1,69.5c-0.6-1.1-1.9-1.6-3.1-1.2c-2.3,0.6-5.1,3.2-3.5,5.8c0.6,1.1,1.7,1.8,3,2c1.1,0.2,2.1-0.1,2.9-0.9
			c0.3-0.3,0.5-0.6,0.6-1c0.3-0.4,0.4-0.8,0.6-1.3C89.8,71.7,89.6,70.5,89.1,69.5z"/>
		<path class="st9" d="M149.3,59.7c-0.8-4.5-7.1-7.1-9.9-2.8c-1.3,1.9-1.1,4.3,0.4,6c0.6,1.1,1.6,2,2.8,2.4c2.6,1,5.5-0.2,6.5-2.8
			C149.4,61.6,149.5,60.6,149.3,59.7z"/>
		<path class="st4" d="M118.1,99.1c-1.4-6.8-10.3-7.5-14.7-3.3c-1,0.5-1.8,1.3-2.4,2.2c-3.5,5.2,0.7,11.4,6.6,11.4
			C113.3,109.5,119.5,105.5,118.1,99.1z"/>
		<path class="st9" d="M117.9,114.5c-2.4-1-5.2-0.7-7.4,0.9c-0.3,0.2-0.5,0.4-0.7,0.7l-0.1,0.1c-1.7,1.7-2.2,4.3-1.3,6.5
			c0.7,1.4,2,2.3,3.6,2.5c2,1.3,4.4,1.8,6.7,1.1C124.6,124.5,123.6,116.8,117.9,114.5z"/>
		<path class="st9" d="M96.4,111.3c-0.6-1.1-1.9-1.6-3.1-1.2c-2.3,0.6-5.1,3.2-3.5,5.8c0.6,1.1,1.7,1.8,3,2c1.1,0.2,2.1-0.1,2.9-0.9
			c0.3-0.3,0.5-0.6,0.6-1c0.3-0.4,0.4-0.8,0.6-1.3C97.2,113.6,97,112.3,96.4,111.3z"/>
	</g>
</g>
</svg>
