<svg id="svg2" xmlns="http://www.w3.org/2000/svg" viewBox="0 0 1127.26 855.788"><defs><style>.cls-1{fill:#b8b8b8;stroke:#fff;stroke-linecap:round;stroke-width:0.6px;}</style></defs><title>Saint Barthélémy</title><path id="polyline3308" class="cls-1" d="M933.359,855.094c0.263-1.805-1.265-3.262-1.125-5.062,0.054-1.465-.948-2.644-1.5-3.937a18.927,18.927,0,0,1-2.375-4.062c-1.013-.657-1.1-1.894-1.344-2.969a2.7,2.7,0,0,0-.656-2.437c-0.572-.629-1.748.019-2.437-0.531-1.342-.488-2.179-1.867-3.656-2-1.21-.35-2.525-0.36-3.531-1.219-1.485-.584-3.169-0.368-4.75-0.406a2.325,2.325,0,0,1-1.844,1.719c-1.406.394-1.4,2.143-2,3.25a3.436,3.436,0,0,0-.281,2.688c0.393,1.363,1.178,2.614,1.656,3.969,0.368,0.947,1.641,1.085,2.375,1.719,1.328,1.027,1.839,2.806,3.25,3.781,0.844,0.663,1.172,1.918,2.094,2.406,1.476,0.41,2.995.692,4.5,0.969,0.59,0.7,1.119,1.456,1.75,2.125M398.234-.094h0c-0.946.934-2.077,1.742-2.5,3.063a8.255,8.255,0,0,0-1.219,3.594c-0.429,2.559-.252,5.178-0.625,7.75-0.052,1.849-1.389,3.453-1.094,5.344a52.961,52.961,0,0,0,.5,7.281,33.759,33.759,0,0,1-.094,3.906c-0.724,1.067-2,1.862-1.906,3.281a28.747,28.747,0,0,1-1.062,4.625c0.81,1.482,1.941,2.855,2.094,4.594a37.069,37.069,0,0,0,1.625,5.438c0.711,0.972,1.044,2.337,2.25,2.813a2.994,2.994,0,0,1,2.438-1.469c0.788,0.017,1.814-.728,2.281.219A18.789,18.789,0,0,0,405.3,53.75l2.969,1.406a9.432,9.432,0,0,1,2.719-.75,6.08,6.08,0,0,0,2.875,1.906,19.016,19.016,0,0,1,3.438,1.531c0.54-.59.848-1.857,1.813-1.125,0.834,0.574,1.539-.338,2.281-0.656,0.558-.731,1.116-1.432,2.125-1.25a20.534,20.534,0,0,1,3.656.469,15.613,15.613,0,0,0,2.188-3.562c-0.03-.924-0.7-2.024.188-2.719,0.544-.627.86-1.581,1.844-1.531a5.4,5.4,0,0,0,2.969-1.344c0.487-1.139.374-2.706,1.438-3.469a7.652,7.652,0,0,0,3.375-1.469c1.181-.84,2.759-0.781,4.156-0.781a37.731,37.731,0,0,0,4.406.875,1.785,1.785,0,0,0,2.063,1.031,39.841,39.841,0,0,0,3.063-3.437c1.242,0,2.62.162,3.656-.625a4.427,4.427,0,0,1,2.219-2.125c1.2-.623,1.787-1.992,2.719-2.937a27.687,27.687,0,0,1,1.906-2.375c0.8-.441,2.124-0.318,2.375-1.375a6.214,6.214,0,0,0,.906-2.781c0.991,0.017,1.91-.023,1.469-1.25-0.025-.921-0.352-1.951.469-2.625,0.23-1.1,1.431-.651,1.906-1.219,0.7-1.59,1.328-3.22,1.938-4.844,1.569-.687,3.335-1.195,4.313-2.719a24.453,24.453,0,0,0,2.844-3.656,11.53,11.53,0,0,1,1.313-5.375,4.111,4.111,0,0,0,.469-3.375,6.6,6.6,0,0,1-.094-1.562M223.734,69.938A23.753,23.753,0,0,0,217.671,71a6.905,6.905,0,0,0-3.25,1.594,45.637,45.637,0,0,1-4.344,2.688c-1.27-.129-2.575-0.83-3.781-0.125a15.115,15.115,0,0,0-3.312,1.531,21.31,21.31,0,0,1-4.969.375,24.345,24.345,0,0,0-4.781,2.531c-1.427-.009-2.9-0.368-4.219.344-0.986.088-1.363,1.031-1.906,1.719a15.931,15.931,0,0,1,.094,2.656,5.315,5.315,0,0,1-2.187,2.344,78.889,78.889,0,0,0-6.562,4.656c-0.207.7,0.5,2.132-.562,2.156-1.066.357-2.238,0.383-3.281,0.625-0.963.981-2.131,1.831-3.031,2.844a5.684,5.684,0,0,0-.625,3.188c0.025,1.091.832,2.013,1.188,3.031a11.188,11.188,0,0,0,2.188,1.219,13.637,13.637,0,0,0,4.313-1.937,17.518,17.518,0,0,1,5.531-1.844,10.307,10.307,0,0,1,4.438-.125c1.119,0.179,1.674,1.563,2.875,1.688a33.911,33.911,0,0,0,4.563,1.375,12.641,12.641,0,0,0,4-.375c0.829,1.492,1.754,2.937,2.719,4.344,2.96,0.295,5.9.711,8.844,1.125a8.463,8.463,0,0,1,2.938,3.719,6.46,6.46,0,0,1,.563,4.625,4.885,4.885,0,0,0,.594,2.969c0.544,0.691.961,1.634,2,1.313a10.478,10.478,0,0,1,3.875.469c0.793,1.09,2.005,2,2.094,3.438a3.306,3.306,0,0,0,1.156,2.375c0.983,0.715.617,2.073,0.906,3.125,0.022,1.614.425,3.276-.25,4.813-0.538,1.332.165,2.726,0.25,4.094a24.482,24.482,0,0,1,1.125,6.25,44.7,44.7,0,0,0-2.625,7.219,125.268,125.268,0,0,1-5.812,15.813,9.506,9.506,0,0,0-2.625,3.438c-0.513,1.073-1.813,1.484-2.656,2.281a9.356,9.356,0,0,1-3.437,1.344c-1.444.144-2.912,0.488-4.344,0.531a27.766,27.766,0,0,1-4.906-2.094,11.7,11.7,0,0,0-4.469-1.187c-2.55-.286-5.163-0.214-7.687-0.656a17.006,17.006,0,0,0-5.094-.687,17.4,17.4,0,0,0-2.875.219,44.233,44.233,0,0,0-4.062,1.906c-0.463,1.121-1.4,2.151-1.156,3.438a17.5,17.5,0,0,1-.5,3.938,16.055,16.055,0,0,1-6.125.906c-0.717.81-1.237,1.872-2.406,2.063-0.924.314-1.825,1-2.812,0.531-1-.234-2.107-0.3-2.781-1.187a9.073,9.073,0,0,0-2.812-.625c-0.9-.034-1.963.415-2.625-0.406a1.554,1.554,0,0,0-2.219-.344c-1.018.065-1.347,0.908-1.719,1.719-0.286.823,0.249,1.785,0.281,2.656,0.209,1.162,1.145,2.032,1.781,3,0.642,0.9,1.591,1.679,1.563,2.875-0.159,1.2,1.2.782,1.969,1a4.535,4.535,0,0,1,2.438.813c-0.126.768-1.036,1.683-.656,2.344l2.531,2.5c0.786-.312,1.9-0.242,2.063-1.281a11.4,11.4,0,0,1,2.344-3.437c0.766,0.123,2.038-.469,2.469.125,0.225,0.837.26,1.984,1.375,1.281a2.734,2.734,0,0,0,2.094-1.469c0.536-1.051,1.125.713,1.688,1.031,0.952,1.075,2.475,1.51,3.5,2.469a6.569,6.569,0,0,0,2,2.844c0.555,1.006,1.3.788,2.094,0.188a11.018,11.018,0,0,1,3.813-1.344c1.808,0.769,3.857,1.071,5.344,2.438a16.672,16.672,0,0,1,3.406,3,44.668,44.668,0,0,1,2.094,4.156c1.082,1.089,2.391,2.09,3.344,3.25,0.471,2.786,1.167,5.56.969,8.406a48.479,48.479,0,0,0,1.219,5.688,16.755,16.755,0,0,1,1.563,5.031c0.731,3.258-.085,6.634.563,9.906,0.252,1.841-.115,3.77.156,5.594a43.6,43.6,0,0,0,1.563,4.125c1.277,0.307.664,1.194-.312,1.344-1.213-.043-0.78,1.248-0.937,2.063-0.336,1,.857,1.435,1.344,2.125,1.082,0.94,1.761,2.38,2.969,3.125,1.889,0.664,3.878,1.1,5.688,1.938,1.356,0.768,2.59,1.774,3.875,2.625a89.686,89.686,0,0,0,11.563,3,52.428,52.428,0,0,1,9.5,2.469,12.234,12.234,0,0,1,4.156,2.594,69.429,69.429,0,0,1,5.406,5.219,29.7,29.7,0,0,1,3.75,7.563,11.748,11.748,0,0,1-1.156,6.344,3.374,3.374,0,0,0-.125,2.656,10.4,10.4,0,0,0,2.75,3.281,3.518,3.518,0,0,0,2.375,1.281,13.819,13.819,0,0,0,6.813-.406,7.216,7.216,0,0,1,2.813-.062c-0.187,1.526-.4,3.062-0.531,4.594,1.014,0.676,2.242,1.114,2.75,2.313,0.275,0.888-.212,1.949-0.219,2.906a8.93,8.93,0,0,0,.281,4.156c1.12,0.981,1.949,2.465,3.5,2.781,1.715,0.5,2.714,2.094,4,3.219,0.837,2.091,2.605,3.545,3.969,5.281,0.619,1.022,1.936,1.114,2.969,1.469h4.094c0.754,0.922.929,2.193,1.594,3.125,0.632,0.582,1.368,1.105,1.344,2.063,0.253,1.108.346,2.266,1.219,3.094a6.456,6.456,0,0,0,2.5,2.531,20.221,20.221,0,0,1,4.406,3.438c1.928,0.785,4,1.275,5.844,2.219,0.813,0.711,1.867,1.254,2.094,2.406,0.5,1.027.695,2.286,1.781,2.875,1.142,0.727,1.176,2.242,1.813,3.344,0.841,1.836,1.48,3.8,2.438,5.563a50.547,50.547,0,0,1,5.094,6.75c1.043,1.309,1.973,3.07,3.781,3.344,0.922,0.355,2.1.5,2.75-.406a11.788,11.788,0,0,1,3.313-1.5,37.433,37.433,0,0,1,6.094.344,26.282,26.282,0,0,0,7.313,1.938c1.339,0.35,2.675-.366,3.938-0.719a12.256,12.256,0,0,1,4.219-2.125,36.038,36.038,0,0,0,7.063-1.062,21.784,21.784,0,0,1,5.531-1.875,42.35,42.35,0,0,1,6.188-1.937,26.944,26.944,0,0,1,4.156,1c1.46,0.6,3.095.893,4.188,2.125,0.763,0.613,1.94.808,2.094,1.938,0.64,2.062,2.341,3.611,3.031,5.625a33.616,33.616,0,0,1,.438,4.938,25,25,0,0,0-1.687,5.594c-0.26.822-.7,1.669-0.062,2.438a16.939,16.939,0,0,1,2.094,4.406,31.748,31.748,0,0,1,1.094,6.406c0.308,0.656-.144,2.145.75,2.188,1.01-.2,1.449.673,1.844,1.438a3,3,0,0,0,1.781,1.844c1.13,0.835,2.571.425,3.875,0.5a12.3,12.3,0,0,1,4.75.281c0.953,0.233,1.409,1.347,2.188,1.906a15.835,15.835,0,0,0,5.531,4.063,12.412,12.412,0,0,0,3.875,3.125,23.908,23.908,0,0,0,4.406,2.906,4.356,4.356,0,0,1,2.781,1.094c0.937,1.391,1.45,3.111,2.406,4.531,1.23,1.958,1.883,4.224,3.344,6.031,1.744,3.793,2.983,7.791,4.375,11.719l0.188,3.031-3.062.906c0.072,1.271.32,2.558,0.281,3.813a16.758,16.758,0,0,1-2.656,5.063c-0.527.662-1.634,0.429-2.406,0.719-0.73-.036-2.067.884-2.062-0.344l-1.687-5.812c-0.55.436-2.189,0.3-1.906,1.156l2.094,7.125c0.985-.632,1.544-0.148,1.906.844a25.378,25.378,0,0,1,2.031,4.125c0.394,2.372.4,4.894,1.438,7.094,1.464,1.8,3.227,3.357,4.75,5.094a7.359,7.359,0,0,1,1.719,3.281c0.171,0.9.4,1.769,1.438,1.906a8.485,8.485,0,0,0,3.563.813,12.753,12.753,0,0,0,3.031,3.469c1.574,1.643,3.717,2.48,5.313,4.094a31.876,31.876,0,0,1,3.688,4.75c2.073,3.032,4.277,6.011,6.063,9.219a63.588,63.588,0,0,1,3.969,10.438l1.063,3.438c-0.732.477-1.809,0.838-.937,1.781l2.813,6.219c0.676-.4,1.385-1.526,2-0.437,2.5,2.012,3.855,5.026,5.688,7.594l6.438,9.906c-0.323.628-1.858,1.186-1.281,1.875,0.4,0.693,1.67,1.463.469,2l-15.187,13.438c-0.528-.876-1.248-1.686-1-2.781a12.883,12.883,0,0,0-.5-4.844c-0.369-1.5-1.636-2.594-2.406-3.906l-4.094-5.781c1.029-.623.775-1.28-0.031-1.969-0.583-.372-1.06-2.088-1.75-1.219-0.694,1.134-1.2.15-1.75-.531l-7-8.25,5.938-6.75c-0.057-1.4-.1-2.787-0.156-4.187a24.168,24.168,0,0,1-2.969-1.281c-0.769-1.239-1.352-2.625-2.625-3.437a14.339,14.339,0,0,0-6.25-3.687c-1.889-.792-3.416-2.263-5.219-3.219-1.313-.562-2.587-1.328-4.062-1.281-1.291-.342-2.234.927-3.469,1.125a30.931,30.931,0,0,0-8,4c-1.338,1.5-2.713,2.948-4.156,4.344a24.255,24.255,0,0,0-.5,6c-0.163,1.258-.79,2.506-0.219,3.75A36.879,36.879,0,0,0,404.078,524c0.958,2.435,1.805,4.923,2.688,7.375a52.36,52.36,0,0,1,5.875,9.813c0.052,0.8-.678,1.868-0.031,2.469,2.147,2.03,4.168,4.205,6.281,6.25,1.519,0.772,3.212,1.276,4.344,2.625,0.6,0.616.243,1.687,0.438,2.5,0.209,0.742,1.478.759,2.094,1.219a7.227,7.227,0,0,1,2.313,2.375c0.6,0.974,1.17,1.951,1.75,2.938a10.525,10.525,0,0,1,4,.594c0.837,0.75,1.987,1.28,2.25,2.469,0.4,0.829.564,1.888,1.594,2.125,1.554,0.85,3.166,1.626,4.656,2.563,0.89,1.11,1.959,2.149,2.844,3.219a8.571,8.571,0,0,0,1.313,3.75c0.886,1.284.726,2.926,1.313,4.344,0.464,0.578,1.793.1,2.156,0.906,0.575,0.541.724,1.874,1.688,1.688a20.467,20.467,0,0,1,5.531.438,9.356,9.356,0,0,0,2.594-.437l2.031-2.437c-0.511-.669-1.207-1.537-0.375-2.219,1.283-.568,2.513-1.311,3.969-1.187,1.152-.067,2.336-0.345,3.375.313a7.626,7.626,0,0,1,3.25,1.813c1.616,1.109,2.67,2.813,4.031,4.156a24.276,24.276,0,0,1,2.844,1.313c2.029,3.1,3.727,6.406,5.5,9.656a3.049,3.049,0,0,1,.719,2.469,2.634,2.634,0,0,1-.844,2.406c-1.335,1.46-1.724,3.566-3.312,4.813-0.866.529-.878,1.43-0.875,2.344a3.54,3.54,0,0,0,.531,2.656c1.132,1.983,1.075,4.427,2.469,6.281a17.9,17.9,0,0,0,2.219,2.625c-0.261.747-.818,1.62-0.594,2.375a2.907,2.907,0,0,0,2.188,1.281c1.124-.147,1.224.956,1.563,1.75,0.809,0.873,2.191,1.161,3.031,2.094,1.026,0.65.981,2.046,1.469,3.063-0.3.9-.966,1.8-0.437,2.75,0.058,1.3,1.451,1.687,2.281,2.469,1.578,1.312,3.615,2.076,4.844,3.781a34.074,34.074,0,0,1,4.469,6.531c1.636,3.764,3.575,7.419,4.719,11.375,0.839,1.136,1.445,2.591,2.813,3.188,2.373,1.54,4.622,3.235,7.094,4.625a40.641,40.641,0,0,1,3.375,2.844,8.914,8.914,0,0,0,1.906,3.5c1.4,1.443,2,3.39,2.875,5.156,1.085,0.579,2.012,1.631,3.344,1.438a3.084,3.084,0,0,0,2.5-.594,1.8,1.8,0,0,1,2.313-.156c1.095,0.47,2.432.279,3.281,1.25,0.653,0.583,1.7.919,1.719,1.938a3.239,3.239,0,0,0,1.281,2.344c0.69,0.85,1.908,1.184,2.594,1.938l0.469,2.656c-1.1.943-2,2.1-3.375,2.656,0.014,0.825-.586,1.981.563,2.219a26.98,26.98,0,0,0,6.219,2.875c0.111,0.75,1.061,1.749.625,2.344a6.417,6.417,0,0,0-1.969,2.125c0.694,0.532,1.2,1.569,2.219,1.281,0.708,0.185,1.885-.417,2.219.375a4.338,4.338,0,0,1,.844,2.813c0.89,0.833,2.321,1.24,2.563,2.563,0.3,0.893.934,1.783,0.406,2.719-0.565,1.746.261,3.576,0.094,5.375-0.387,1.141.795,1.16,1.563,1.5,1,0.579,2.267.419,3.281,0.781a11.644,11.644,0,0,0,3.25,2.938,37.09,37.09,0,0,1,7.438,6.781,32.212,32.212,0,0,1,4.438,5.281,23.483,23.483,0,0,0,4.531,5.156c-0.031.928,0.507,2.013-.375,2.688-0.779.614-.7,1.541-0.656,2.438a17.671,17.671,0,0,0,1.344,6.844,4.6,4.6,0,0,1-.625,2.938c-0.427.809-.13,1.776-0.219,2.656,0.451,0.81,1.5,1.469,1.094,2.5-0.149,1.167-1.267,1.943-1.844,2.938-0.834.609-.492,1.47-0.312,2.313a10.375,10.375,0,0,0,2.219,2.219,8.821,8.821,0,0,0,3.25,1.75,22.523,22.523,0,0,1,3.188.094,45.023,45.023,0,0,0,6.375,4.719c1.089,0.5.325,1.443,0.063,2.25-0.373.843-1.9,1.03-1.594,2.156a3,3,0,0,0,1.281,2.063c0.789,0.1,1.715.957,2.344,0.125a11.052,11.052,0,0,0,2.156-2c0.936-.086,1.834-0.1,2.125.969,0.371,1.1,1.719.855,2.625,1.219,0.728,0.345,1.806.052,2.219,0.813,0.876,0.62.2,1.508,0.031,2.313-0.49.965,0.553,1.8,0.844,2.688,0.472,0.625,1.654-.044,2.406.063,0.87-.172,1.076-1.453,1.969-1.719,0.8-.9,1.382-0.04,2,0.563a15.747,15.747,0,0,0,5.156,2.75,25.164,25.164,0,0,1,4.438.031,13.47,13.47,0,0,0,.156-2.812,10.036,10.036,0,0,0,3.594-1.031c0.247-.808,1.029-1.63.25-2.375-0.561-1.166-1.405-2.22-1.969-3.344,0.005-1.008-.156-2.069.594-2.875a7.492,7.492,0,0,1,2.125-2.469c0.305-2.62.137-5.244,0.188-7.875-0.68-.854-0.382-1.582.375-2.25a22.073,22.073,0,0,1,4-4.312c0.682-.676-0.093-2.016.75-2.656a10.993,10.993,0,0,0,2.188-3.906,1.6,1.6,0,0,1,2.188.75c0.79,0.627,1.384,1.689,2.531,1.5,1.068,0.255.217-1.405,0.375-2.062a6.22,6.22,0,0,1-.656-3.25c-0.082-1.543,1.254-2.722,1.406-4.25a5.588,5.588,0,0,0-.031-3.375,4.6,4.6,0,0,1-1-3.187,42.814,42.814,0,0,1,2-4.719c0.023-.933-0.51-2,0.313-2.719a12.53,12.53,0,0,0,2.25-4.094c0.648-1.366.117-2.929,0.469-4.375,0.18-.88-0.1-1.98.813-2.5,0.5-.789,1.586-0.662,2.344-0.437a3.574,3.574,0,0,1,1.906,1.813c0.438,1.007,1.74.909,2.625,1.313,1,0.055,1.161-.906.906-1.719-0.02-1.269-.8-2.39-0.562-3.687,0.055-2.423-.083-4.869-0.156-7.281a33.778,33.778,0,0,1,.938-3.656,26.232,26.232,0,0,1,7.125-4.812,61.968,61.968,0,0,1,6.906-3,32.059,32.059,0,0,0,6.656-2.25,67.914,67.914,0,0,1,6.375-2.594,27.764,27.764,0,0,1,6.438-.25c1.389,0.532,2.715,1.185,4.063,1.813a8.854,8.854,0,0,0,.75,4c0.407,1.58,1.967,2.407,2.969,3.594a43.947,43.947,0,0,1,3.375,4.063,35.052,35.052,0,0,0,3.281,1.969c0.941,0.05,2.05-.475,2.75.375l2.719,2.031c0,1.034-.464,2.166.313,3.031a6.456,6.456,0,0,0,1.875,2.438c0.278,1.333.987,2.643,1,4a12.566,12.566,0,0,0-.031,4.719,7.984,7.984,0,0,0,1.25,3.5c0.306,1.555.284,3.246,1.281,4.563,0.509,1.207,1.737,1.819,2.625,2.719a20.432,20.432,0,0,1,3.656.656c1.143,0.995,2.7,1.633,3.281,3.125a12.823,12.823,0,0,1,1.906,4.219c0.3,1.763,1.358,3.2,2.219,4.719a21.771,21.771,0,0,0,.438,5.094c1.418,2.218,3.072,4.25,4.531,6.438,0.671,0.553.994,1.839,2.031,1.594a3.253,3.253,0,0,0,2.5-.594,20.264,20.264,0,0,0,2.813-1.844c0.323-1.125,1.049-2.207.625-3.406-0.2-1.5-.453-2.976-0.687-4.469,0.6-.514.794-1.893,1.75-1.625a2.113,2.113,0,0,0,2.281-.937,11.394,11.394,0,0,0,1.031-4.281c0.22-1.034,1.794-1.464,1.656-2.656,0.217-1.987-.524-3.947-0.594-5.937-0.065-1.907-.788-3.8-0.281-5.687a45.009,45.009,0,0,0,.688-5.375c0.555-1.91,1.647-3.712,1.563-5.75a4.5,4.5,0,0,1,.813-2.875,5.472,5.472,0,0,1,1.969-2.562,2.644,2.644,0,0,1,2.313-1c2.106-.12,4.219-0.645,6.313-0.156,1.339-.049,2.075,1.3,3.094,1.969,0.908,0.851,1.108,2.239,1.719,3.313a32.436,32.436,0,0,1,.875,5.938c0.964,0.791,1.756,1.869,3.094,1.969,1.058,0.451,2.293-.351,3.25.469,1.277,0.853,2.854.277,4.281,0.594,0.87,0.077,1.869.422,2.25-.625,0.853-.6.414-1.6,0.688-2.437a22.15,22.15,0,0,0,1.063-8.031,20.531,20.531,0,0,0-.094-3.25c-0.7-.79-1.828-1.349-1.812-2.531a2.154,2.154,0,0,1,.281-2.406,12.2,12.2,0,0,0,1.25-2.469,10.8,10.8,0,0,1-.625-4.25,21.28,21.28,0,0,1,.75-3.875,10.747,10.747,0,0,0,2.156-3.937c0.449-1.9,1.853-3.318,2.531-5.125a20.324,20.324,0,0,0,1.563-4.625c-0.011-1.312.641-2.735-.094-3.937-0.34-.806-0.962-1.656,0-2.281,1.613-1.958,2.919-4.156,4.813-5.875a26.4,26.4,0,0,1,4.344-3.281c2.7-1.447,5.535-2.609,8.344-3.812a60.159,60.159,0,0,1,7.781-3.75c3.156-1.161,5.885-3.166,8.938-4.531,2.9-1.055,5.753-2.293,8.625-3.406,3.1-.827,6.115-1.9,9.25-2.562a17.378,17.378,0,0,1,5.219-.437c1.488-.143,2.64.97,3.938,1.531a7.68,7.68,0,0,0,3.438,1.563,6.462,6.462,0,0,1,3.156,1.313c1.056,0.736,2.242,1.317,3.219,2.125,0.863,1.741,2.074,3.342,3.031,5,0.314,1.974.335,4.008,0.563,5.969,0.6,1.094,1.063,2.276,2.188,2.938,0.86,0.577.61,1.836,0.969,2.719a6.1,6.1,0,0,1,.094,3.5c-0.635.658-1.19,1.341-.781,2.281-0.053,1.3.937,2.167,1.625,3.156a19,19,0,0,0,2.25,2.188c1.112-.046,2.329.258,3.25-0.531,2.389-1.455,5.087-2.39,7.281-4.156,1.348-1.15,3.4-.831,4.656-2.156a3.239,3.239,0,0,1,2.281-.969c0.916-.041,1.941-0.669,2.688.125a5.557,5.557,0,0,1,2.344,2.188c0.547,0.805,1.455,1.487,1.25,2.563,0.013,1.407.346,2.847-.344,4.156a4.225,4.225,0,0,0-.375,2.969c0.209,1.626.534,3.28,0.781,4.875a13.113,13.113,0,0,0-.812,4.875,58.875,58.875,0,0,0-.094,6.438c0.8,1.436,1.84,2.788,2.031,4.469a2.334,2.334,0,0,0,1.406,2c0.857,0.832,2.207.315,3.281,0.563,1.142,0.251,2.543.136,3.406,1,0.554,1.374,1.337,2.686,1.25,4.219,0.216,1.345,1.339,2.388,2.156,3.438,1.133,1.441,2.065,3.013,3.344,4.344a23.58,23.58,0,0,0,2.594,2.563,32.622,32.622,0,0,0,4.25,1.281c0.668,0.458,2.013.59,1.406,1.656a11.913,11.913,0,0,0-.219,5.594c0.257,0.886,1.232,1.411,1.781,2.156,0.484,0.911,1.326.907,2.219,0.688,1.1,0.177,1.28-1.1,1.844-1.781,0.521-.781,1.135-1.491,1.688-2.25a2.892,2.892,0,0,0,2.531-.25c1.092-.327,1.777-1.4,2.969-1.5A2.341,2.341,0,0,0,926.359,727c0.584-.872,1-1.946,2.125-2.219a13.776,13.776,0,0,1,3.938-.687,1.341,1.341,0,0,0,1.781-1.281c0.039-1.177,1.307-.537,2.063-0.75a4.251,4.251,0,0,0,2.813-.937c0.879-.619,1.868-1.233,2.063-2.375,0.118-.981,1.2-1.142,1.938-1.531,0.922-.286,2.1-0.228,2.5-1.281,0.347-.935,1.225-1.023,2.094-1.125,1.423-.224,2.875.047,4.281-0.344-0.2-.9-0.13-1.981-1.094-2.437-1.011-.874-1.885-1.861-2.969-2.656-0.368-.9-1.165-1.761-0.625-2.75,0.028-1.437,1.571-2.007,2.094-3.219a8.329,8.329,0,0,1,2.438-3.094,32.167,32.167,0,0,1,4.094-3.156,3.609,3.609,0,0,0,1.125-2.531,1.594,1.594,0,0,0-1.375-1.781c-0.792-.3-1.861-0.593-1.844-1.625a13.152,13.152,0,0,1,.719-5.406,23.078,23.078,0,0,0-.719-5.937c-0.3-1.375-1.481-2.381-1.687-3.812-0.619-1.287.108-2.664,0.188-4,0.581-1.055,1.473-2.027,1.281-3.312a11.422,11.422,0,0,0-.375-4.406c-0.55-1.759-1.562-3.395-1.969-5.187-0.089-1.426-.55-2.867.125-4.219,0.769-1.861.319-3.917,0.438-5.875,0.117-2.627.99-5.174,1.031-7.812A22.257,22.257,0,0,1,953.8,638c0.738-.6,1.684.03,2.5,0.188,0.96,0.31,1.9,1.073,2.906.5,0.805-.31,1.971-0.2,2.156-1.25a12.336,12.336,0,0,0,.813-2.937c-0.881-1.108-1.539-2.431-2.875-3.062-0.971-.362-0.3-1.559-0.437-2.344,0.143-1.077-.257-2.337.688-3.125,0.641-.683,2.092-0.673,2.125-1.812a3.749,3.749,0,0,0-.187-3.125,11.935,11.935,0,0,1-2.594-5.906,13.836,13.836,0,0,1,.281-3.906c1.254-3.231,3.379-6.029,5.125-9,0.916-1.253,2.483-1.84,3.531-3,0.946-.789,1.783-1.724,2.656-2.562,3.218-1.193,5.784-3.554,8.875-5,2.756-1.472,5.536-2.971,8.219-4.562,1.982-1.817,4.422-2.958,6.719-4.312,2.04-.957,4.116-1.9,6.063-3a40.438,40.438,0,0,1,3.063-3.594c1.024-.423,1.939-1.425,3.125-1.031a3.3,3.3,0,0,0,2.594-.312,13.1,13.1,0,0,1,6.469-1.687c2.241-.151,4.493.333,6.719,0.313,1.691-.271,3.453-0.285,5.094-0.719a17.253,17.253,0,0,1,5.063-2.156c2.681-.633,5.385-1.091,8.031-1.875,2.118-1.145,4.35-2.173,6.375-3.469a77.2,77.2,0,0,1,10.125-7.625,47.27,47.27,0,0,1,5.719-2.562,3.641,3.641,0,0,0,2.969.031c1.216-1.636,2.532-3.356,4.5-4.094,0.526-.656,1.466-1.151,1.188-2.125-0.135-1.355.791-2.517,1.281-3.719a40.382,40.382,0,0,0,4.188-6,17.719,17.719,0,0,1,4.219-3.062c1.787-.958,3.474-2.2,5.5-2.594,1.067-.081.97-1.419,1.438-2.156,0.442-1.162,1.656-1.815,2.437-2.75,2.016-1.561,3.842-3.4,6.188-4.469a61.966,61.966,0,0,1,9.156-4.437,13.972,13.972,0,0,1,4.875-.781,44.492,44.492,0,0,0,6.844-.625,34.817,34.817,0,0,1,8.406-4.594c1.915-.833,4.05-0.991,6.063-1.5a34.306,34.306,0,0,1,3.5.438,23.289,23.289,0,0,1,5.938,5.906c1.244,1.546,2.084,3.393,3.344,4.906a43.614,43.614,0,0,1,6.219,5.656c0.976,1.737,1.616,3.692,3.125,5.063,0.589,0.688,1.406,1.279,1.344,2.281a23.015,23.015,0,0,0,1.438,5.656,14.544,14.544,0,0,1,1.125,5.938c-0.157,1.19.628,2.207,1.187,3.188a6.849,6.849,0,0,1,1.75,3.313,15.272,15.272,0,0,0,2.156,2.313c1.522,0.236,2.858-.516,4.25-1,0.918-.072,1.8-0.085,2.313.813a4.027,4.027,0,0,0,2.094,1.375,2.4,2.4,0,0,0,2.156,1.094c1.26,0.214,2.144-.768,3.125-1.375,0.31-.963.271-2.154,1.281-2.687,1.018-1.2,1.366-2.9,2.313-4.156,0.854-.995,2.044-1.763,2.312-3.125,0.285-1.068,1.6-1.268,2.375-1.937a2.247,2.247,0,0,0,1.469-1.906,29.387,29.387,0,0,0,.75-6.25c0.344-1.362-.816-2.39-1.312-3.562a14.144,14.144,0,0,1-.344-3.687,6.652,6.652,0,0,0-.5-3.531c-0.562-1.582-1.387-3.117-1.313-4.844a13.72,13.72,0,0,0-.875-4.656c-0.848-2.3-.807-4.8-0.969-7.219,0.139-2.424-1.188-4.668-.937-7.094a23.777,23.777,0,0,0-.406-6.156c-0.489-2.358-.272-4.769-0.813-7.125a5.472,5.472,0,0,1,.063-3.312c0.962-3.012.6-6.237,0.5-9.344-0.387-1.94-.646-3.942-1.125-5.844-0.922-1.417-1.991-2.763-2.813-4.219a29.9,29.9,0,0,1-.437-3.531,33.1,33.1,0,0,1,2.219-3.875,8.353,8.353,0,0,1,3.469-1.969,26.361,26.361,0,0,0,4.719-2.156c1.1-1.091,2.371-2.07,2.938-3.562,1.035-1.8,1.888-3.743,3.063-5.437,0.838-.632,1.485-1.636,2.438-2.031,1.583-.372,3.374-0.253,4.688-1.344a15.28,15.28,0,0,0,2.656-1.781,9.948,9.948,0,0,0,1.719-3.812c0.411-1.1.351-2.44,1.219-3.312,0.217-1.8.733-3.606,0.281-5.406a15.726,15.726,0,0,1,.094-3.906c0.644-1.628,1.523-3.211,2.031-4.875a9.589,9.589,0,0,1,1-3.406,17.463,17.463,0,0,0,2.813-.469,21.181,21.181,0,0,0,1.938-2.344,6.947,6.947,0,0,1,.813-3.562,9.8,9.8,0,0,0,1-3.562c-0.732-2.068-2.484-3.56-3.375-5.562-0.507-1-1.37-.138-1.875.406-0.748,1.17-1.184.228-1.625-.625-0.307-.981.231-2.3-0.812-2.937a5.521,5.521,0,0,1-1.25-2.469,21.909,21.909,0,0,1,1.344-5.094c-0.069-2.851.206-5.693,0.375-8.531a15.379,15.379,0,0,0,.812-4.969c0.719-1.167,1.064-2.623,2.375-3.281,2.228-1.628,3.8-3.974,5.875-5.781,0.66-1.939,1.285-3.973,1.813-5.969a10.66,10.66,0,0,0,.031-4.469c-0.463-1.56.149-3.237-.625-4.719-0.5-1.742-1.359-3.388-2-5.062-0.194-1.944-.1-3.907-0.187-5.844a38.468,38.468,0,0,1-1.531-5.031c-0.072-1.126-.32-2.278.344-3.281,0.71-1.131-.036-2.436-0.094-3.656-0.328-.7-0.851-1.646-1.75-1.656a12.959,12.959,0,0,1-4.031-1.531c-1.266-.4-1.111.645-1.062,1.563,0.074,1.113-1.012,1.861-1.469,2.813-0.447.847-1.851,0.992-1.781,2.125a13.851,13.851,0,0,1-1.812,4.281,2.081,2.081,0,0,0-1.594,1.75c-0.435,1.924-1.71,3.505-2.719,5.156a66.089,66.089,0,0,1-7.75,8.344c-1.954,2.055-3.656,4.337-5.437,6.531-1.778,1.179-2.876,3.037-4.406,4.469-1.842,1.517-3.623,3.138-5.313,4.813-2.363,1.283-4.586,2.825-7,4a25,25,0,0,0-5.469,2.938c-1.358.453-2.643,1.229-4.125,1a23.114,23.114,0,0,1-3.687-.375,2.175,2.175,0,0,0-.875,2.313c0.122,0.9,1.782,1.13,1.5,2.188a16.5,16.5,0,0,1-.719,5.094c-0.5,1,.057,1.994.25,3a7.512,7.512,0,0,1,2.031,3.188c-0.871,2.195-1.312,4.609-2.75,6.531a22.989,22.989,0,0,1-3.219,2.844,19.341,19.341,0,0,1-5.063,2.219c-2.631-.063-5.258.134-7.875-0.094-1.714-.395-3.6-0.366-5.094-1.406-1.376-.9-3.015-1.234-4.437-2a43.616,43.616,0,0,0-5.062-3.625c-1.275-1.773-2.22-3.847-4-5.187a9.355,9.355,0,0,1-2.156-3c-0.265-2.177-.722-4.33-0.969-6.5a19.786,19.786,0,0,1,.281-3.531c0.822-1.411,1.445-2.981,2.812-3.969a3.774,3.774,0,0,0,1.625-2.344,18.319,18.319,0,0,1,2.156-4.469,17.227,17.227,0,0,0,3.5-4.125,52.708,52.708,0,0,0,1.938-11.156,35.221,35.221,0,0,1,.938-6.281c0.119-1.835.539-3.687,0.031-5.5-0.278-1.077-.055-2.371-1.031-3.125-0.991-.988-0.854-2.552-1.312-3.812-0.375-1.8-.048-3.782-1.062-5.406-0.829-1.926-2.431-3.4-3.469-5.187-0.459-2.639-.418-5.373-0.875-8a13.845,13.845,0,0,0-1.438-2.344,6.288,6.288,0,0,0-3.437-.094c-0.391-1.091-.434-2.411-1.5-3.094a33.574,33.574,0,0,0-4.781-3.531,2.253,2.253,0,0,0-1.781,1.656,2.172,2.172,0,0,1-1.656,1.719,45.27,45.27,0,0,1-7.281,2.5c-2.539,1.011-5.094,1.957-7.656,2.906a6.865,6.865,0,0,0-1.875,4.344c-0.066,1.428-.655,2.9.062,4.25a15.006,15.006,0,0,1,1.063,4.75c0.13,1.242,1.315,2.135,1.344,3.438a4.487,4.487,0,0,1,.125,3.063c-0.49,1.989-.843,3.993-1.25,6-1.219,1.256-2.783,2.231-3.469,3.906-1.259,2.06-2.316,4.331-4.125,5.969a16.543,16.543,0,0,0-4.125,2.969,105.055,105.055,0,0,1-8.312,6.938c-2.094.749-4.324,0.39-6.5,0.469a21.344,21.344,0,0,1-5.812-1.875,43.4,43.4,0,0,0-6.344-3.344,12.973,12.973,0,0,1-3.813-2.656c-1.986-1.968-3.668-4.245-5.656-6.219-1.977-2.352-3.809-4.851-5.562-7.375a13.948,13.948,0,0,1-2.812-10.875c-0.145-1.34,1.146-2.2,1.469-3.437,0.589-1.574,2.034-2.645,3.156-3.844,0.972-1.064,2.365-1.813,2.688-3.312,0.763-1.577.319-3.408,0.063-5.062-0.587-.837-1.626-1.475-1.437-2.625a84.83,84.83,0,0,1-.25-10.25c0.257-1.212.49-2.577,1.594-3.312a2.273,2.273,0,0,1,2.375-.531c1.482,0.045,2.422,1.553,3.938,1.5,1.385,0.462,2.683-.4,4-0.75,1.253-.638,2.759-0.466,3.906-1.344a8.924,8.924,0,0,0,.406-3.687,12.41,12.41,0,0,0-2.094-4.031c-0.651-.837-1.325-1.8-2.469-1.906-2.081-.623-4.068-1.58-6.188-2.031-2.12-.537-4.176.709-6.312,0.469-0.911-.082-0.9,1.335-1.406,1.906-0.666,1.075.09,2.566-.969,3.469-1.306,1.805-2.591,3.969-4.875,4.594a6.34,6.34,0,0,0-2.937,1.781,3.57,3.57,0,0,1-2.375,1.156c-2.032.432-4.035,1.075-6.062,1.438-1.125-.338-2.541-0.076-3.281-1.156a2.153,2.153,0,0,0-2.281-.969,6.273,6.273,0,0,0-3.406.531c-1.022.207-1.032,1.541-1.562,2.281a14.783,14.783,0,0,1-.875,2.563,16.957,16.957,0,0,0-6.625,3.313c-0.9.726-1.974,1.316-2.312,2.5a38.617,38.617,0,0,1-2.687,4.594c-0.465,2.067-.813,4.2-1.406,6.219-0.563.88-1.514,1.619-1.844,2.594a44.373,44.373,0,0,1-1.844,9.688c-0.394,1.723-1.692,3.014-2.531,4.531a44.192,44.192,0,0,1-5.062,1.625,35.344,35.344,0,0,0-10-2.156,30.808,30.808,0,0,1-4.094-.219,17.211,17.211,0,0,1-5.719-3.625c-1.581-1.427-3.445-2.607-4.562-4.469a8.891,8.891,0,0,1-1.937-3.437c-0.536-1.731-1.511-3.335-2-5.062a15.874,15.874,0,0,1,.125-4.656c0.673-.833,1.148-1.874,2.281-2.125a41.656,41.656,0,0,0,5.719-2.437c1.5-.53,2.237-2.026,3.313-3.094a10.8,10.8,0,0,0,1.25-4.25c0.211-1.751,1.232-3.275,1.781-4.937a8.311,8.311,0,0,1,1.938-3.312c0.856-1.428,2.558-1.862,3.875-2.75a51.521,51.521,0,0,0,4.063-3.344,20.819,20.819,0,0,0,2.219-5.75c0.078-1.017-.314-2.172.563-2.937a6.86,6.86,0,0,1,2.5-2.656,24.255,24.255,0,0,0,4.25-4.187,5.993,5.993,0,0,0-.469-2.969c-1.9-.724-3.968-1.223-5.625-2.406a26.4,26.4,0,0,1-5.219-6.062c-0.838-.97-1.412-2.248-2.75-2.594-1.025-.3-1.418-1.394-2.094-2.125-0.047-2.413-.278-4.858-0.094-7.25,0.923-1.884,2.069-3.851,1.813-6.031a16.963,16.963,0,0,0-.344-4.156,3.659,3.659,0,0,1-.312-3.031c0.244-.742-0.056-1.868,1-1.875,0.983-.135,1.86-0.92.5-1.344a2.338,2.338,0,0,1-1.25-1.906,2.264,2.264,0,0,0-1.687-1.844c-0.858-.449-1.7.484-2.562,0.656-1.119.118-1.054,1.374-1.437,2.188a7.083,7.083,0,0,1-.812,3.219c-0.754.934-.054,2,0.094,3.031a17.739,17.739,0,0,1,1.75,5.281,4.933,4.933,0,0,1-.094,3.125,5.915,5.915,0,0,1-1.719,2.594c-0.742.454-1.334,1.386-2.312,1.031a11.382,11.382,0,0,1-4.312-.781,6.088,6.088,0,0,0-3.406-.594c-1.514.157-3.116-.089-4.469,0.75a14.276,14.276,0,0,0-4.312,2.594,65.778,65.778,0,0,0-4.844,4.719c-1.509,2.144-2.6,4.616-4.156,6.688a31.224,31.224,0,0,1-3.25,1.563,17.163,17.163,0,0,1-4.719-1.094,9.81,9.81,0,0,0-4.656-3.375c-0.74.069-1.1,1.314-1.937,1.469-1.721.681-3.605,0.71-5.375,1.25a2.527,2.527,0,0,1-2.375-.75,15.462,15.462,0,0,1-1.187-2.687c0.127-1.083-.079-2.265.781-3.094,0.247-.661,1.422-1.588.781-2.187a9.766,9.766,0,0,0-2.937-2.219l-0.687-2.562c-0.925.233-2.005,0.178-2.531,1.125-0.516,1.08-1.424-.117-2.156-0.344-0.789-.606-1.9-0.546-2.687-1.031a42.763,42.763,0,0,1-3-5.094c-0.692-.724-1.771-1.231-1.719-2.375a16.978,16.978,0,0,1-.5-5.156,64.005,64.005,0,0,1,.844-8.906,33.449,33.449,0,0,0-1.344-5.594,9.994,9.994,0,0,0-.531-4.312,11.051,11.051,0,0,0-2.281-4.187,7.64,7.64,0,0,1-1.719-3.281c-0.317-.781-1.054-1.377-1.25-2.219-0.746-.075-1.812-0.986-2.344-0.5-1.134,2.109-2.715,3.93-3.969,5.969a63.826,63.826,0,0,0-7.312,8.531c-1.523,1.236-2.892,2.72-4.5,3.813a31.492,31.492,0,0,0-5.719,2.625c-0.622.593-1.19,1.338-2.156,1.125a3.031,3.031,0,0,0-2.437.813c-1.385.788-2.448,2.18-4.094,2.406-0.864.358-2.156,0.214-2.437,1.313a36.882,36.882,0,0,0-2.625,5.375c0.066,2.308-.264,4.659.406,6.906,0.552,3.273,1.648,6.426,2.219,9.688a54.466,54.466,0,0,0,1.281,7.969,98.516,98.516,0,0,0,1.344,10.156,54.047,54.047,0,0,1-.75,8.094c-0.3,1.326-.041,2.891-1.062,3.938a13.612,13.612,0,0,0-2.437,4.344c-0.453,1.12-.669,2.387-1.75,3.094-1.619,1.6-3.333,3.148-4.844,4.844a6.755,6.755,0,0,1-2.344,2.781c-1.1.706-1.259,2.17-2,3.188A74.533,74.533,0,0,1,845.7,312a41.926,41.926,0,0,0-4.031,3.25c-0.944,1.847-1.668,3.819-3.125,5.344-2.6,3.2-4.918,6.692-8,9.469-1.554,1.386-2.446,3.323-3.594,5.031a19.106,19.106,0,0,0-2.25,4.969c-0.827,1.977-.326,4.181-0.75,6.25-0.453,2.362.222,4.836-.656,7.125-0.626,2.226-1.139,4.483-1.656,6.719-0.936,1.343-1.649,2.872-3.094,3.75-2.051,1.548-3.606,3.736-5.937,4.906-1.732,1.312-4.021,1.406-5.844,2.563-4.286,2.278-8.487,4.758-12.906,6.781a39.141,39.141,0,0,0-4.125,2.344c-0.957,1.053-1.682,2.379-3.094,2.875-2.455,1.191-5.3,1.223-7.937,1.781a5.2,5.2,0,0,1-3.531-.437c-1.854-.706-3.561-1.828-5.562-2.094a51.015,51.015,0,0,0-10.969-1.406,41.579,41.579,0,0,1-7.406,1.063,25.405,25.405,0,0,1-6.406-.719c-1.44-1.673-3.226-3.051-4.687-4.687-1.555-2.065-2.675-4.388-4.344-6.375-1.516-2.171-2.048-4.808-3.062-7.219-0.585-1.245-.328-2.667-0.5-4a21.952,21.952,0,0,1,2.813-2.625,7.868,7.868,0,0,0,3.375-1.687,17.756,17.756,0,0,0,1.469-4.719c-0.04-.884-0.08-1.788-1.031-2.156a19.051,19.051,0,0,0-2.375-3.969,46.181,46.181,0,0,0-5.031.125,10.183,10.183,0,0,1-4.125,1.219c-1.606.368-3.27-.018-4.875,0.156a6.34,6.34,0,0,0-3.312,1.188c-2.42,1.431-4.577,3.267-7.094,4.531-2.763,1.944-5.821,3.669-7.75,6.531-0.658.881-.46,2.147-0.75,3.188-0.018.969-1.429,0.737-2.094,1.156-0.9.195-1.793,0.919-2.687,0.344-1.228-.693-2.562.084-3.875,0-1.4.022-2.534,1.073-3.812,1.563-1.245.656-1.918,2.017-2.969,2.938-1.287,1-1.6,2.671-2.312,4.063-0.032.927,0.521,2.025-.375,2.688a20.814,20.814,0,0,0-2.687,5.344c-1.442,1.057-3.071,1.9-4.062,3.438a33.768,33.768,0,0,1-2.906,3.063,4.612,4.612,0,0,0-2.75.969c-1.419.845-2.734,1.907-4.406,2.188a33.19,33.19,0,0,1-6.969,2.563c-1.034,1.246-2.518,2.2-2.937,3.844a12.923,12.923,0,0,0-.5,6.906c0.37,2.095,1.967,3.612,2.938,5.438,1.675,2.3,3.575,4.443,5.438,6.594a21.517,21.517,0,0,1,.969,5,10.269,10.269,0,0,1-1.844,5.281c-2.022,2.532-4.029,5.26-6.969,6.781-2.062,1.133-3.79,2.892-6.125,3.469a40.306,40.306,0,0,0-5.906,2.531,83.613,83.613,0,0,1-10.531,2.125,5.108,5.108,0,0,1-3.062-.531,2.7,2.7,0,0,1-1.094-2.187c-0.134-1.932,1.468-3.393,2.094-5.062,0.38-.873-0.19-1.487-0.719-2.125a8.143,8.143,0,0,0-3.75-.656c-0.742.2-1.845,0.061-2.312,0.656-0.573,1.133-.889,2.553-2.094,3.188,0.1,0.791,1.024,1.681.344,2.375a4.325,4.325,0,0,1-1.875,1.563c-2.07.159-3.943-.9-5.906-1.406-3.752-1.284-7.562-2.413-11.344-3.594a37.065,37.065,0,0,1-6.594-3.406q-3.82-1.791-7.781-3.25a72.653,72.653,0,0,0-8.344-4.5,17.924,17.924,0,0,0-5.687-1.906c-1.383-.226-2.937-0.511-3.844-1.656-1.133-2.2-2.839-4.047-3.656-6.406-0.638-1.562-1.661-3.007-2.187-4.594-0.51-3.325-.317-6.729-0.906-10.031-0.977-2.635-2.062-5.256-2.969-7.906a9.471,9.471,0,0,1,.219-4.187c0.46-1.526.479-3.229,1.594-4.469a19.242,19.242,0,0,1,2.844-3.562c1.217-.8,2.689-1.2,3.938-1.875,1.15-1.505,2.2-3.118,3.438-4.531,1.177-.762,2.68-1.152,3.375-2.469,0.93-.727.419-1.9,0.438-2.906-0.06-.942.871-1.625,1.219-2.469A35.881,35.881,0,0,0,583.514,358l-0.5-3.812a23.975,23.975,0,0,0-4.062-2.906,12.018,12.018,0,0,1-.437-4.531c0.1-2.564.292-5.176,0.375-7.719-0.93-2.144-1.419-4.446-2.562-6.5a14.783,14.783,0,0,0-2.781-1.937,51.558,51.558,0,0,0-4.781-2.219,39.505,39.505,0,0,0-4.219.313,10.952,10.952,0,0,0-2.969,3.406,2.868,2.868,0,0,1-1.937,1.688,9.708,9.708,0,0,1-2.937,1.125c-2.269,1-4.478,2.173-6.781,3.063-1.448.218-2.892,0.837-4.344,0.313a12.353,12.353,0,0,1-3.437-1.562,21.705,21.705,0,0,1-4.187-3.906,22.459,22.459,0,0,1-2.187-4.219c-1.276-3.172-2.589-6.371-3.875-9.531A31.467,31.467,0,0,0,527.8,314a35.69,35.69,0,0,1-4.937-7.687c-1.358-2.976-2.252-6.149-3.812-9.031a43.427,43.427,0,0,1-1.75-7.906c-0.26-2.057-.831-4.072-0.531-6.156,0.222-1.412-.2-2.876.031-4.25,0.875-1.915,1.581-3.988,2.563-5.812,1.04-.575,1.94-1.563,3.219-1.437a17.841,17.841,0,0,1,5.844.375c0.794-.414,1.762-0.67,2-1.656,0.47-.927.206-2.05,0.375-3.062-0.741-2.263-1.675-4.451-2.562-6.656-0.6-1.448-.5-3.091-1.312-4.469-0.394-1.054-1.332-1.917-1.125-3.125a40.869,40.869,0,0,0-.625-5.906,30.068,30.068,0,0,1,.344-4.656,9.055,9.055,0,0,1-5.094-2.281c-1.09-.808-1.833-2.241-3.312-2.312-0.86-.2-1.773-0.643-2.437.188a4.93,4.93,0,0,1-2.812,1.313c-1.721.067-3.473-.153-5.125,0.469-3.686.822-6.963,2.841-10.437,4.25a20.446,20.446,0,0,1-4.5,1.844,16.512,16.512,0,0,1-4.5.688c-1.267-.282-2.677-0.208-3.656-1.187-2.056-1.221-3.3-3.375-5.187-4.812a42.4,42.4,0,0,0-3.25-2.781c-1.707-.354-3.423-0.789-5.156-1-0.842-1.7-1.9-3.3-2.156-5.219-0.393-2.136-1.262-4.154-1.75-6.25a20,20,0,0,1,.156-5.656c0.47-1.93-.544-3.821-0.625-5.75a26.161,26.161,0,0,0-1.594-7.281c-0.857-2.132-.392-4.623-1.687-6.594-0.529-1.16-1.428-2.246-1.25-3.594,0.152-.763-0.511-1.926.25-2.375,1.13-.3.748-1.364,0.688-2.25-0.363-1.815-.933-3.6-1.219-5.437a15.338,15.338,0,0,0-2.687-4.312,28.865,28.865,0,0,0-3.937-4.344,11.818,11.818,0,0,1-1.781-4.062,21.144,21.144,0,0,0-1.781-4.219,15.683,15.683,0,0,0-4.437-2.156c-1.355-.636-2.921-0.4-4.375-0.469-0.769.221-1.844-.1-2.406,0.469a27.54,27.54,0,0,0-2.219,3.688c-1.849.938-4.052,0.508-5.906,1.438-2.242.938-4.687,1.3-6.937,2.156-1.807,1.1-3.438,2.541-5.531,3.063a23.674,23.674,0,0,1-5.531,1.375c-2.255.079-4.522,0.5-6.781,0.625a41.371,41.371,0,0,0-4.375,2.063,14.012,14.012,0,0,0-2.125,4.438,10.725,10.725,0,0,0-.844,4.25c-0.341,2.915.615,5.756,0.75,8.656a4.249,4.249,0,0,1-.281,2.938c-0.423.8-.492,1.907-1.156,2.5a12.52,12.52,0,0,1-4.219,1.781c-3.346.828-6.635,1.877-9.937,2.844-3.435.6-6.856,1.205-10.219,2.125-3.587.228-7.147,0.9-10.75,0.75a40.476,40.476,0,0,1-10.062-.812c-2.609-.352-4.883-1.811-7.469-2.281-2.417-.59-4.584-1.927-6.844-2.937a43.511,43.511,0,0,1-9.062-5.687c-0.566-.649-1.526-1.121-1.312-2.125a6.648,6.648,0,0,1,.281-3.531c0.444-.863.122-1.836,0.094-2.75-2.047-1.565-4.395-2.962-5.531-5.375-1.13-1.887-1.36-4.231-2.781-5.969a26.753,26.753,0,0,0-3.531-4.531c-2.35-2.317-5.448-3.594-8.25-5.25a35.531,35.531,0,0,0-5.312,7.281,26.138,26.138,0,0,0-1.125,4.219,12.519,12.519,0,0,0,.781,4.531c0.309,1.457,1.55,2.653,1.25,4.219-0.07.848,0.3,1.863-.594,2.375-0.671.645-1.211,1.56-2.25,1.531a7.465,7.465,0,0,0-3.437,1.188c-2.137,1.237-4.637,1.656-7,2.281a5.435,5.435,0,0,1-2.406,2.219,12.1,12.1,0,0,1-3.5,1.563c-1.128-.458-2.428-0.676-3.125-1.781-1.045-1.225-2.767-1.891-3.25-3.531a29.149,29.149,0,0,0-3.531-5.719c-0.805-1.594-1.372-3.35-2.75-4.562-1.705-2.12-4.157-3.468-6.187-5.219-0.934-1.386-1.618-3-3.062-3.937-1.29-.78-1.748-2.231-2.469-3.469,0.095-1.4-.2-2.875.156-4.219a2.814,2.814,0,0,0,.281-2.5c-0.172-1.826-1.155-3.5-1.281-5.312a30.838,30.838,0,0,0-.594-5.937c-0.353-1.165-1.031-2.3-.594-3.531a28.106,28.106,0,0,1,1.344-5.625c-1.172-1.47-2.058-3.156-3.187-4.625a20.528,20.528,0,0,0-6.844-2.75,57.436,57.436,0,0,0-7.406-2.844c-2.234-.036-4.235-1.092-6.437-1.344-0.872-.225-2.163-0.2-2.312-1.312-0.874-1.8-.839-3.865-1.156-5.812,0.089-.752-0.737-2.13.469-2.125a11.329,11.329,0,0,1,3.594-.687c0.778-.991,1.715-1.893,2.375-2.937a27.57,27.57,0,0,0,.375-5.219,30.971,30.971,0,0,1,.906-3.281,17.485,17.485,0,0,0,3.313-3.844c0.1-1.091-.233-2.234-0.094-3.281a16.417,16.417,0,0,0,1.438-2.344,4.233,4.233,0,0,0-.875-2.719,3.433,3.433,0,0,0-2-1.844c-0.753-.41-1.687-0.685-1.594-1.719-0.162-1.356-.972-2.737-0.312-4.062a8.076,8.076,0,0,0,.313-3.75,20.9,20.9,0,0,0-2.781-4.906c-0.552-1.023-1.864-1.125-2.781-1.719a5.047,5.047,0,0,1-3.031-.5,2.15,2.15,0,0,1-1.75-1.687c-0.764-.85.4-1.39,0.875-2.031a2.456,2.456,0,0,0,.156-2.469c0.005-1.179-1-1.019-1.875-1.031-1.034.241-1.532-.4-1.875-1.281a4.875,4.875,0,0,1-.843-2.969,31.477,31.477,0,0,0-3.187-1.906h0ZM234.2,72.219a1.328,1.328,0,0,0-1.281.844,5,5,0,0,0,.281,4,1.583,1.583,0,0,0,1.125-.25c1.092-.015.84-1.226,0.938-2-0.139-.828.685-1.77-0.156-2.375A1.728,1.728,0,0,0,234.2,72.219ZM168.765,94.625a0.676,0.676,0,1,0,.281,1.281C169.685,95.78,169.405,94.714,168.765,94.625Zm968.875,41.313c-0.728.161-.689,1.1-0.625,1.844,0.324,0.665.834,0.178,1.375,0.125a1.121,1.121,0,0,0-.406-1.969A1.148,1.148,0,0,0,1137.64,135.938Zm5.812,4.125c-0.74-.027-0.96,1.012-1.437,1.531a6.275,6.275,0,0,0-3.313,3.438c-0.455.762,0.244,1.652,0.031,2.5-0.143.823,0.31,2.072,1.344,1.594l1.031-2.562a32.211,32.211,0,0,0,5.781-1.531,4.273,4.273,0,0,0,.906-2.531c-0.628-.77-1.755.19-2.156-0.719-0.618-.573-0.815-1.794-1.844-1.625a1.039,1.039,0,0,0-.344-0.094h0Zm-3.937,12.656c-0.279.027-.579,0.159-0.906,0.219a0.865,0.865,0,0,0,.438,1.656c1.042,0.163,1.379-.62,1.281-1.531a0.913,0.913,0,0,0-.812-0.344h0ZM124.828,179.25a2.981,2.981,0,0,0-1.687.813c-0.84.71-.651,2.061-1.719,2.531-0.777.534-1.418,1.4-2.469,1.219-1.1-.285-0.9,1.174-1.5,1.656-0.808.527-2.061,0.635-2.312,1.719-0.417.859,0.164,1.856,0.156,2.781a9.114,9.114,0,0,0,2.938,2.688,8.556,8.556,0,0,1-.219,2.406c0.671,0.551,1.291,1.29,2.25,1.031,0.954-.128.71,1.395,1.469,1.813a2.454,2.454,0,0,0,2.156.75c2.22-.551,4.544-1.033,6.781-0.281,0.918-.018,1.714.124,1.906,1.156,0.129,0.864.349,1.572,1.344,1.719a1.555,1.555,0,0,0,1.75-1.375,6.93,6.93,0,0,0,.156-3.781,7.357,7.357,0,0,1,.781-3.312,11.139,11.139,0,0,0,.031-3.031c-0.645-.639-1.631-1.182-1.375-2.25a2.4,2.4,0,0,0-.906-2.312,23.46,23.46,0,0,0-3.094-2.969,5.215,5.215,0,0,0-2.937-.781c-1.247-.269-1.828-1.6-2.844-2.156a2.45,2.45,0,0,0-.656-0.031h0Zm988.938,0.375a0.8,0.8,0,0,0-.719.438,0.927,0.927,0,0,0,.375,1.5c0.8,0.031,2.063-.051,1.469-1.125A1.219,1.219,0,0,0,1113.765,179.625Zm2.25,5.438a2.241,2.241,0,0,0-1.969,1.531c-2.075,1.092-4.541,1.081-6.844,1.344a5.019,5.019,0,0,0-3.312-.781,5.215,5.215,0,0,0-2.688,1.688c-0.922.506-2.235,0.3-2.875,1.313-1.1,1.446-3.233,1.5-4.219,3.063-0.92,1.017-1.8,2.084-2.687,3.125-1.741,2.22-3.619,4.274-5.531,6.344a9.051,9.051,0,0,0-1.625,2.594c-0.293,1.816-.116,3.659-0.313,5.469-0.23,1.975-1.5,3.607-1.812,5.563-0.493,2.344.282,4.718,0.656,7.031,0.913-.5.868-1.434,0.813-2.344,0.206-.734.117-1.823,0.938-2.156a10.363,10.363,0,0,1,3.188-1.375,7.549,7.549,0,0,1,3.719.531c1.208,0.234,2.026,1.554,3.344,1.25,0.867,0.254,1.786-.538,2.531-0.219,1.164,1.059,2.889,1.146,4.375,1.188a13.682,13.682,0,0,0,5.156-1.469,6.218,6.218,0,0,0,2.313-2.5,17.078,17.078,0,0,1,1.563-2.5c0.9-.247,1.739-0.375,2.125.656,0.7,0.444,1.3,1.322,2.219.906,1.743-.06,3.172-1.173,4.719-1.781a3.421,3.421,0,0,0,2.656-.594c0.7-.641,1.615.146,2.406,0.25,1.03-.175,1.335,1.395,2.094,1.031a1.959,1.959,0,0,0,1.344-2.312c-0.2-.76.051-2.04-0.875-2.281a1.5,1.5,0,0,1-1.219-1.875,4.689,4.689,0,0,0-.187-3.125c-0.143-.912.57-1.485,0.937-2.187,0.128-.728.15-1.874-0.625-2.187-0.8-.787-1.58.372-2.344,0.344-1.131-.306-0.48-1.56-0.937-2.344a10.9,10.9,0,0,1-.75-5.719c-0.142-1.044-.033-2.212-0.906-2.969-0.793-.77-0.834-2.082-1.625-2.781A17.281,17.281,0,0,0,1116.015,185.063ZM98.546,188.844a8.088,8.088,0,0,0-1.312.156,0.947,0.947,0,0,0-.469,1.781,2.731,2.731,0,0,0,1.281.594c0.665-.4,2.022-0.838,1.375-1.812A0.824,0.824,0,0,0,98.546,188.844Zm-5.562.75a0.515,0.515,0,0,0-.25.125c-0.1.525-.341,1.072,0.469,0.906C94.317,190.4,93.566,189.436,92.984,189.594Zm10.719,2.469a19.047,19.047,0,0,0-2.469.531,2.486,2.486,0,0,0-1.781,2.906c-0.2,1.206,1.009.958,1.781,0.844,0.85-.2,1.91-0.2,1.844-1.344a6.137,6.137,0,0,1,1.438-2.844,2.561,2.561,0,0,0-.812-0.094h0Zm-4.437,6.5a2.066,2.066,0,0,0-.594.063c-1.085.829,0.484,0.995,1.094,1.406,0.739,0.426,1.45,1.014,2.344.656,0.7-.386.951-1.729,0-1.812l-0.875-.125C100.6,198.748,99.9,198.572,99.265,198.563Zm25.031,5a3.41,3.41,0,0,0-1.156.406c-0.606.908,0.348,1.417,0.625,2.188,0.155,0.7.635,1.857,1.469,1.688,0.788-.16.078-1.532,0.781-2.094a10.674,10.674,0,0,0-.5-2.031A2.146,2.146,0,0,0,124.3,203.563ZM1099.89,331.781l1.375,0.5c0.438,0.983.875,1.986,1.312,2.969a3.842,3.842,0,0,1,.469,1.313,22.971,22.971,0,0,1-.531,3.625c-0.46,1-1.075,1.931-1.594,2.906a5.805,5.805,0,0,1-1.437,1.719,8.181,8.181,0,0,1-2.125,1.5,1.662,1.662,0,0,0-.812.875,5.407,5.407,0,0,1-1.562,1.625c-0.335.382-.307-0.5-0.469-0.719a1.841,1.841,0,0,1-.094-1.219,2.794,2.794,0,0,1,.375-1.531,7.438,7.438,0,0,0,1.125-2.344,8.939,8.939,0,0,0,.469-2.406,17.9,17.9,0,0,0-.469-3.656,15.172,15.172,0,0,1,.563-1.469c0.916-.634,1.813-1.31,2.688-2,0.3-.525.466-1.13,0.719-1.687h0Zm-63.875,15.969a3.9,3.9,0,0,1,.781.75,12.526,12.526,0,0,1,1.781,2.156c1.029,0.968,2.153,1.847,3.219,2.781,0.974,1.066,1.846,2.24,2.781,3.344,1.171,1,2.422,1.88,3.625,2.844,1.1,0.719,2.3,1.333,3.438,2,0.891,0.663,1.678,1.44,2.531,2.156,1.13,0.87,2.361,1.62,3.531,2.438,1.819,0.975,3.617,1.964,5.5,2.813a16.688,16.688,0,0,0,2.969,1.125,18.879,18.879,0,0,0,3.25.813c0.813-.079,1.623-0.228,2.438-0.344a14.662,14.662,0,0,1,.125,2.656l1.313,1.094a11.674,11.674,0,0,0,1.531.063,26.643,26.643,0,0,1,.469-3.031,1.142,1.142,0,0,0-.281-1.094c-0.387-.36.139-0.643,0.344-0.937a8.261,8.261,0,0,1,1.281-.187,5.487,5.487,0,0,0,2.156-.875,7.352,7.352,0,0,1,2.25.875,10.5,10.5,0,0,1,2.094,1.594,2.585,2.585,0,0,1,.094,1.094,5.439,5.439,0,0,1-1.375,1.469,9.321,9.321,0,0,0-1.937,1.844h-2.656c-0.522.223-.993,0.6-1.5,0.875a2.5,2.5,0,0,0-1.063,1.125,3.83,3.83,0,0,1-1.125,1.25c-0.78.743-1.407,1.633-2.125,2.438-0.366,1.221-.613,2.508-0.937,3.75-0.245.9-.509,1.812-0.781,2.719-0.427.6-.944,1.169-1.406,1.75a28.681,28.681,0,0,0-1.437,2.531c0.346,1.906.664,3.8,1.094,5.688,0.01,0.34.353,0.791-.062,1a29.1,29.1,0,0,1-3.031,2.594c-0.911.534-1.927,0.932-2.875,1.406l-2-.625c-0.482-.428-0.86-0.963-1.313-1.437a17.239,17.239,0,0,0-1.687-.937c-1.4-.675-2.872-1.218-4.25-1.937-1.406-.179-2.834-0.263-4.25-0.406-0.787-.92-1.588-1.861-2.375-2.781-0.961-1.172-1.736-2.459-2.625-3.687-0.591-1.161-1.057-2.4-1.594-3.594-0.7-.331-1.394-0.669-2.094-1-0.384-.388-0.677-0.856-1.031-1.281a9.046,9.046,0,0,1-1.281-2.5,15.005,15.005,0,0,1-.969-3.062c-0.82-2.943-1.307-5.941-2.156-8.875-0.867-2.926-1.578-5.914-2.312-8.875,0.517-2.435,1.016-4.865,1.469-7.312,0.591-1,1.247-1.955,1.875-2.937a14.691,14.691,0,0,0-.062-1.656c0.16-.562.449-1.1,0.656-1.656h0Zm51.062,7.219,2.094,1.094a12.733,12.733,0,0,1,.688,1.375,6.054,6.054,0,0,0,1.156,1.781c0.536,0.8.905,1.718,1.375,2.563,0.036,0.663-.077,1.357-0.094,2.031-0.428.868-.964,1.677-1.437,2.531-0.76.529-1.609,0.977-2.406,1.469-0.332.337-.823,0.7-1.156,1.063a0.717,0.717,0,0,1-.625.813c-0.4.351-.617-0.091-0.875-0.375a10.7,10.7,0,0,1-.531-1.594,17.457,17.457,0,0,1-.656-3.406c-0.365-.739-0.849-1.461-1.25-2.187a16.024,16.024,0,0,0-1.437-.781,15.3,15.3,0,0,1-.844-1.312l1.25-.5c0.567,0.382,1.12.774,1.688,1.156l1.437-.75a13.983,13.983,0,0,0,.688-1.5,5.949,5.949,0,0,0-.531-1.094c-0.3-.359.413-0.52,0.594-0.781a13.34,13.34,0,0,0,.875-1.594h0Zm20.875,43.781,1.563,0.125a19.747,19.747,0,0,0,.125,2.75,4.4,4.4,0,0,0,1.031.438c0.491-.3.977-0.609,1.469-0.906,2.482,2.9,4.956,5.817,7.437,8.719a4.727,4.727,0,0,1,.688.875c-1.617,1.539-3.125,3.2-4.875,4.594a33.847,33.847,0,0,0-3.188,2.969c-1.877,1.76-3.356,3.886-5.156,5.719a32.556,32.556,0,0,0-2.969,3.625c-0.3.3-.56,0.643-0.875,0.938a0.962,0.962,0,0,0-.469.938,7.465,7.465,0,0,0,0,2.438l-1.375.906c-0.46-.3-0.915-0.611-1.375-0.906a14.851,14.851,0,0,1-1.531-1.594c-0.4-1.009-.7-2.1-1.062-3.125,0.405-.661.814-1.307,1.219-1.969,0.076-.607.01-1.253,0.031-1.875a14.891,14.891,0,0,1,.281-3.125c0.36-2.076.448-4.154,0.625-6.25-0.113-.958-0.392-1.92-0.562-2.875,0.266-1.043.682-2.085,1-3.125a5.049,5.049,0,0,1,.906-1.781,10.429,10.429,0,0,1,1.687-2.062,8.662,8.662,0,0,1,2.031-1.875c0.31-.092.656-0.589,0.938-0.406a26.3,26.3,0,0,1,2.625,2.688l2.156,0.125c-0.146-.532-0.292-1.062-0.437-1.594a8.915,8.915,0,0,0-1.156-.75,21.032,21.032,0,0,1-1.344-1.719l0.562-1.906h0ZM620.421,458.938c0.288-.005.5,0.065,0.281,0.469a11.031,11.031,0,0,1-.969,2.719c-0.077,1.49-.163,2.991-0.375,4.469h-1.125c-0.462-.1-0.215.6-0.344,0.875a7.175,7.175,0,0,0,.031,2.375c0.381,1.1.764,2.185,1.063,3.313a13.077,13.077,0,0,1,0,1.969,19.914,19.914,0,0,1-.812,2.813,10.529,10.529,0,0,1-1.437,2.594c-0.755.563-1.589,1.061-2.375,1.594-0.5.312-1.014,0.608-1.5,0.938a13.989,13.989,0,0,1-1.75.594,65.517,65.517,0,0,0-8.031,1.875c-0.852-.029-1.707-0.15-2.562-0.219-0.619-.43-1.187-1.012-1.781-1.5-0.643-.672-1.11-1.487-1.687-2.219-0.767-.7-1.631-1.3-2.437-1.969-0.525-1-.951-2.095-1.437-3.125-0.639-.919-1.4-1.751-2.062-2.656a30.7,30.7,0,0,1-2.312-3.312,22.5,22.5,0,0,1-1.812-3.312,5.2,5.2,0,0,1-.25-1.5,3.594,3.594,0,0,1,.469-1.875,4.216,4.216,0,0,0,.719-1.75c-0.016-.515.364-0.515,0.781-0.5a13.568,13.568,0,0,1,2.906.031,34.712,34.712,0,0,1,3.688-.125c1.139,0.111,2.243.407,3.375,0.594,1.728,0.5,3.448,1.093,5.188,1.563,2.62-.206,5.222-0.386,7.844-0.562a9.745,9.745,0,0,1,2.75.188,7.206,7.206,0,0,0,1.406-.5,4.1,4.1,0,0,0,1.531-1.031,10.271,10.271,0,0,0,1.906-2.062c0.276-.227.4-0.77,0.813-0.719,0.1,0,.217-0.029.313-0.031h0Zm-298.875,3.375a3.276,3.276,0,0,0-2.281.813c-0.852,1.034-1.244,2.384-2.344,3.219,0.1,1.559.607,3.168-.094,4.656,0.046,1.7.808,3.411,0.625,5.156,0.048,0.9.531,2.038,1.594,1.906a5.191,5.191,0,0,0,.906-0.375,6.191,6.191,0,0,0,1.5-2.062,2.849,2.849,0,0,0,2.125-1.344c0.308-.749.227-1.659,1.094-2.125,0.736-.627,1.461-1.52,1.063-2.531-0.412-1.1-.284-2.351-1.094-3.281a6.113,6.113,0,0,0-.781-3.437c-0.458-.615-1.609-0.233-2.312-0.594h0Zm-39.437,9.25c-1.309.292,0.255,1.909,0.344,0.5C282.456,471.755,282.435,471.635,282.109,471.563ZM319.64,482.5a1.973,1.973,0,0,0-2.125,1.125,6.423,6.423,0,0,0-.344,2.844c0.215,1.42,1.478,2.3,2.688,2.875a2.108,2.108,0,0,0,2.25-.844,1.97,1.97,0,0,0,.281-2.281C321.408,485.042,320.561,483.723,319.64,482.5Zm4.781,3.188c-0.994.367-.376,1.627,0.313,1.969,0.449,0.219.882,0.535,1.188-.062C325.61,486.784,325.346,485.945,324.421,485.688Zm4.375,4.719c-1.168-.034-0.591,1.859.25,1.281C329.592,491.184,329.724,490.5,328.8,490.406Zm791.969,2.938c0.794,0.085,1.581.165,2.375,0.25,0.039,0.955.086,1.888,0.125,2.844,0.552,1.253,1.2,2.484,1.812,3.719a44.294,44.294,0,0,0,2.281,4.125c-0.3.467-.635,0.939-0.937,1.406-1.077.333-2.142,0.667-3.219,1-1.64.082-3.293,0.071-4.937,0.125H1117.2a11.009,11.009,0,0,1-2.906-.375c-0.33-.576-0.67-1.143-1-1.719-0.1-.83-0.066-1.688-0.125-2.531,0.337-.741.826-1.461,1.219-2.187a14.192,14.192,0,0,1,1.656-.531,17.045,17.045,0,0,0,1.063-1.5c0.552-.318,1.192-0.54,1.781-0.812a9.509,9.509,0,0,0,.687-1.187,8.126,8.126,0,0,0,.031-1.5c0.378-.382.778-0.743,1.156-1.125h0ZM119.14,498.5a0.865,0.865,0,0,0-.625.313c-0.658.646-.1,1.947,0.75,1.281C119.5,499.58,119.577,498.557,119.14,498.5Zm4.219,9.688a0.714,0.714,0,0,0-.25.031c-0.964.774,1.163,1.506,0.625,0.438a0.612,0.612,0,0,0-.375-0.469h0Zm-0.562,4.156a1.784,1.784,0,0,0-1.125.563,5.841,5.841,0,0,1-3.531,1.063c-0.758.3-2.089-.058-2.156,1.031a4.127,4.127,0,0,0-.312,2.781c0.38,1-1.051,1.016-1.656,1.438a3.127,3.127,0,0,0-2.125,1.625,11.467,11.467,0,0,0-.125,2.625l1.719,2.063c1.2,1.033,2.4,2.076,3.531,3.188a32.874,32.874,0,0,0,5.656.5c0.928-1,2.4-1.636,2.656-3.094,0.488-1.487,1.175-2.96.969-4.562,0.279-1.482-.857-2.615-1.312-3.937-0.9-1.359-.092-3.294-1.312-4.469A1.081,1.081,0,0,0,122.8,512.344Zm239.5,18.031c-0.924.65-.486,1.472,0.219,2.094a4.788,4.788,0,0,0,2.438.969c0.516-.742-0.2-0.987-0.625-1.531C363.761,531.218,363.293,530.386,362.3,530.375Zm10.469,19a1.446,1.446,0,0,0-1.562.781,4.976,4.976,0,0,0-.312,2.375c0.385,0.712.1,2.079,1.094,2.188a4.9,4.9,0,0,0,3.125.281c0.716-.215,1.72-0.611,1.719-1.5,0.42-.989-0.445-1.836-0.906-2.625-0.777-.59-1.414-1.511-2.5-1.375A5.293,5.293,0,0,0,372.765,549.375Zm6.094,13.969a1.962,1.962,0,0,0-1.25,2.031c-0.151.839-.392,1.745,0.438,2.313,0.887,1.194,2.5,1.531,3.719,2.313,1.007,0.518,1.78,1.439,2.938,1.625a3.922,3.922,0,0,0-.281-2.344c-0.159-1.115.318-2.311-.5-3.25-0.515-.593-1.174-1.068-1.719-1.656A9.277,9.277,0,0,1,378.859,563.344Zm364.719,1.938a3.805,3.805,0,0,1,1.125.063,32.329,32.329,0,0,1,4,.969,36.233,36.233,0,0,0,4.313,1.281c1.125,0.4,2.208.978,3.313,1.438,0.973,0.7,1.868,1.505,2.813,2.25,0.974,1,1.956,2.014,2.875,3.063a31.959,31.959,0,0,1,2.531,3.281,29.68,29.68,0,0,1,2.25,3.656,3.933,3.933,0,0,0,1.406,1.375,22.918,22.918,0,0,0,3.094,2.125,14.908,14.908,0,0,0,2.906,1.406c0.9,0.236,1.83.278,2.75,0.438,1.08,0.39,2.123.93,3.188,1.375,0.873,0.6,1.686,1.319,2.531,1.969a8.171,8.171,0,0,1,1.688,1.719,3.088,3.088,0,0,0,1.344.938,23.93,23.93,0,0,0,3.719,1.563c1.167,0.555,2.266,1.263,3.406,1.875,0.158,0.075.358,0.141,0.531,0.219a8.834,8.834,0,0,1,2.125,1.281A14.938,14.938,0,0,1,796.953,600a13.262,13.262,0,0,1,1,3.063,23.693,23.693,0,0,0,.781,3.938,21.636,21.636,0,0,0,1.25,3.344c0.492,1.5.837,3.047,1.281,4.563l-3.094,6.969a0.831,0.831,0,0,1-.719.75c-1.5.068-2.994,0.012-4.5,0.031-2.208.492-4.375,1.167-6.594,1.625a6.762,6.762,0,0,0-2.25,1,5.547,5.547,0,0,1-2.125.594,22.952,22.952,0,0,1-4.062.344c-1.055.123-2.057,0.548-3.125,0.625a2.173,2.173,0,0,1-1.062.063A2.108,2.108,0,0,1,772.89,626a11.236,11.236,0,0,0-.687-3,15.146,15.146,0,0,1-.875-3.156,17.3,17.3,0,0,0-1-3.187,40.108,40.108,0,0,0-1.719-4.125,31.925,31.925,0,0,0-2.719-3.437,49.459,49.459,0,0,0-3.719-3.625,42.049,42.049,0,0,0-3.719-3c-1.291-.544-2.632-1.043-3.937-1.562-2.029-.221-4.051-0.3-6.094-0.375-1.126-.41-2.257-0.93-3.375-1.375-0.841-.577-1.6-1.278-2.406-1.906-1.534-.971-3.095-1.928-4.562-3a8.963,8.963,0,0,1-1.969-1.562c-1.184-1.5-2.478-2.912-3.781-4.312a16.971,16.971,0,0,1-1.187-2.156,19,19,0,0,1-.781-2,10.659,10.659,0,0,1,.094-2.969,8.744,8.744,0,0,1,.625-2.531,39.965,39.965,0,0,1,2.156-3.937c0.282-.816.432-1.692,0.656-2.531,0.341-.763.824-1.477,1.219-2.219a13.483,13.483,0,0,1,1.781-2.5,8.279,8.279,0,0,1,2.094-1.781c1.154-.128,2.279-0.286,3.438-0.375,0.378,0,.776-0.065,1.156-0.094h0Zm59.281,51.406c0.129,0.067.324,0.148,0.469,0.219a6.447,6.447,0,0,0,1.969.531,2.665,2.665,0,0,1,1.344.656,18.216,18.216,0,0,1,2.188,2.719,2.574,2.574,0,0,1,.594,1,7.7,7.7,0,0,1-.312,2.281,2.289,2.289,0,0,1-.937,1.281,10.036,10.036,0,0,1-1.531.594c-0.6-.055-1.214-0.265-1.812-0.375l-0.719-1.719a9.9,9.9,0,0,0-1.25-.687c-0.612,0-1.253.187-1.875,0.25Zm217.656,77.063a0.718,0.718,0,0,0-.781.75c-0.175.611-.47,1.977,0.438,1.906l0.375-.281a1.115,1.115,0,0,0,.938-1.781A0.881,0.881,0,0,0,1020.515,693.75Zm-0.156,7.625a0.7,0.7,0,0,0-.469.719,3.235,3.235,0,0,0,.25,2.563c-0.547.888-1.588,1.623-1.312,2.781-0.035,1.252.78,0.752,0.938-.125,0.855-.938,1.663-1.992,2.438-2.937a2.132,2.132,0,0,0-.594-2.312A1.412,1.412,0,0,0,1020.359,701.375Zm-2.969,7.719c-1.323-.033.219,1.965,0.563,0.906C1018.35,709.616,1017.689,709.234,1017.39,709.094ZM924.2,746.281a2.66,2.66,0,0,0-1.812,2.281c0.184,0.17.379,0.362,0.563,0.531,0.752,0.306,1.869.6,2.156-.406a2.556,2.556,0,0,0-.469-2.406A1.482,1.482,0,0,0,924.2,746.281Zm77.563,10.625a2.312,2.312,0,0,0-.687.156c-1.236.231-1.676,1.441-1.906,2.531a2.886,2.886,0,0,0,1.875,2.563c0.958,0.371,2.479.766,3-.437,0.447-.382-0.118-0.872-0.187-1.312-0.181-.867.317-1.789-0.375-2.5A1.554,1.554,0,0,0,1001.765,756.906ZM620.453,787.375c-0.143-.01-0.318.052-0.469,0.031-1.193-.044-1.04,1.234-0.25,1.563a0.845,0.845,0,0,0,1.031-1.312,0.308,0.308,0,0,0-.312-0.281h0Zm298.469,38.219c-0.675,1-.295,1.356.813,1.313,0.915,0.532,1.535-1.138.5-1.281a6.838,6.838,0,0,0-1.312-.031h0Zm-0.437,2.813c-0.734-.065-1.627.849-0.625,1.094,0.477,0.423,2.068.646,1.844-.25,0.067-.67-0.484-0.548-0.937-0.75a0.645,0.645,0,0,0-.281-0.094h0Z" transform="translate(-92.32 0.394)"/></svg>