<svg id="svg3252" xmlns="http://www.w3.org/2000/svg" viewBox="0 0 1076.229 491.045"><defs><style>.cls-1{fill:#b9b9b9;stroke:#fff;stroke-linecap:round;stroke-width:0.6px;}</style></defs><title>Saint Martin</title><g id="layer8"><path id="polyline5116" class="cls-1" d="M887.656,414.891a2.734,2.734,0,0,0-.867,1.233c0.081,0.439.055,0.972,0.634,0.983a1.721,1.721,0,0,0,1.221-.117,1.7,1.7,0,0,0,.271-1.355,5.056,5.056,0,0,0-.414-1.2A1.38,1.38,0,0,0,887.656,414.891ZM888.5,280.331c0.564-3,1.153-6,1.927-8.946a34.136,34.136,0,0,1,2.3-4.043c0.63-.961,1.478-1.76,2.1-2.732a3.11,3.11,0,0,0,.708-1.083,12.432,12.432,0,0,1-.153-2.571,1,1,0,0,0-.908-0.861,2.933,2.933,0,0,0-1.275.228,15.37,15.37,0,0,0-3.22,2.793,7.112,7.112,0,0,1-1.961,1.721c-0.482.255-1.143,0.294-1.332,0.888a29.433,29.433,0,0,0-1.51,2.893,11.352,11.352,0,0,0-1.852,2.343,3.963,3.963,0,0,1-.509,2.016,31.636,31.636,0,0,1-2.259,3.26,7.9,7.9,0,0,0-.666,2.971,9.738,9.738,0,0,0,.642,2.671,3.287,3.287,0,0,0,1.068,1.594,22.553,22.553,0,0,0,2.32,1.766,1.12,1.12,0,0,1,1.086.566c0.364,0.272.192,1.005,0.757,0.966,0.576-.128,1.2-0.061,1.757-0.15a1.706,1.706,0,0,0,.843-1.055c0.29-.516-0.119-1.094-0.19-1.633a2.95,2.95,0,0,1-.072-1.721A16.505,16.505,0,0,1,888.5,280.331ZM891.723,403a4.1,4.1,0,0,1-2.561,1.111,2.878,2.878,0,0,0-1.685.666,2.93,2.93,0,0,1-1.894.111,3.242,3.242,0,0,0-1.613.039,8.018,8.018,0,0,1-1.38.655,1.826,1.826,0,0,0-1.386-.239c-0.834.155-1.759-.366-2.511,0.189a2.875,2.875,0,0,0-1.314.966,8.6,8.6,0,0,1-1.607.944c0.027,0.394-.176,1.011-0.574.761a6.421,6.421,0,0,0-.115-1.594,2.512,2.512,0,0,1,2-1,4.694,4.694,0,0,0,1.377-.389,6.324,6.324,0,0,0,.7-1.005,12.614,12.614,0,0,0,2.689-3.049c-0.034-.6-0.423-1.255-0.007-1.794,0.3-.827,1.181-1.261,1.5-2.093a6.287,6.287,0,0,0,1.908-1.294c0.267-.289.339-1.105,0.845-0.755,0.638,0.305,1.45.178,1.95,0.744a4.84,4.84,0,0,0,1.451.855c0.408-.105.972,0.078,1.19-0.383a3.537,3.537,0,0,1,1.523.178c0.324,0.444.348,0.822-.191,1.072a0.821,0.821,0,0,0-.834.816c-0.228.55,0.444,0.533,0.624,0.933a4.413,4.413,0,0,1,.931.916c0.228,0.25.212,0.988,0.607,0.916a7.6,7.6,0,0,1,2.078-.433,8.89,8.89,0,0,0,1.714.211A3.846,3.846,0,0,1,898.5,400a6.245,6.245,0,0,1,1.786-1,3.127,3.127,0,0,1,2.222.833c0.488,0.189.742-.389,1.1-0.466a2.618,2.618,0,0,0,2.115.35c0.792,0.139,1.6.15,2.4,0.228a0.744,0.744,0,0,1,.974.489,0.829,0.829,0,0,1-.658.955,3.289,3.289,0,0,1-2.55-.25,2.05,2.05,0,0,0-1.392-.361c-0.6.089-1.223-.294-1.768,0.078a4.909,4.909,0,0,1-1.3.633,6.48,6.48,0,0,1-3.107.461c-1.24,0-2.485-.039-3.721-0.039A7.285,7.285,0,0,0,891.723,403ZM836.806,180.554a4.1,4.1,0,0,0-1.069,1.5,1.881,1.881,0,0,0-.308,1.416,16,16,0,0,0,.269,3.254,1.037,1.037,0,0,0,.929.772c1.133-1.2,2.238-2.432,3.309-3.676a2.85,2.85,0,0,0,.475-1.6c0.03-.994.2-2,0.142-2.988-0.14-.45-0.012-1.066-0.54-1.266a1.451,1.451,0,0,0-1.181.3C838.107,178.977,837.476,179.782,836.806,180.554Zm25.36-22.212a36.754,36.754,0,0,1-4.3-.555,1.579,1.579,0,0,1-.829-1.172,0.954,0.954,0,0,0-.922-0.694,1.212,1.212,0,0,0-1.01.683,5.918,5.918,0,0,1-1.827,2.149,3.258,3.258,0,0,0-.541,1.322,7.716,7.716,0,0,0-.1,1.877,11.3,11.3,0,0,1,1.007,2.821,5.4,5.4,0,0,1,.1,2.066,7.5,7.5,0,0,1-1.559,2.093,14.72,14.72,0,0,1-2.076,1.844,0.491,0.491,0,0,0,.369.877,7.053,7.053,0,0,0,1.739-.244,5.5,5.5,0,0,1,2.192-.105,15.968,15.968,0,0,1,2.012.528,36.19,36.19,0,0,1,2.869,3.387,39.212,39.212,0,0,1-.115,6.053,4.323,4.323,0,0,1-1.111,2.182c-0.4.383-.431,0.839,0.223,0.8a11.874,11.874,0,0,0,3.018-.744c1.161-.65,2.366-1.238,3.544-1.844a4.329,4.329,0,0,1,1.637-1.322,1.024,1.024,0,0,0,.821-0.911,18.234,18.234,0,0,0,.314-2.771,7.7,7.7,0,0,1,.89-2.993,11.885,11.885,0,0,1,1.452-1.949,15.606,15.606,0,0,1,3.114-1.366c1.4-.394,2.85-0.594,4.247-0.966,1.008-.472,2.053-0.9,3.013-1.444a4.673,4.673,0,0,0,1.3-1.9,5.885,5.885,0,0,0,.248-2.571,31.263,31.263,0,0,1-.216-4.465,25.238,25.238,0,0,0-.148-3.065c-0.091-.594-0.724-0.317-0.98.017A1.673,1.673,0,0,1,879,156.5a2.19,2.19,0,0,1-1.186-1.05,1.862,1.862,0,0,0-1.787-.411c-0.595.139-.818,0.861-1.391,1.083-0.886.422-1.192,1.422-1.747,2.143a6.068,6.068,0,0,1-1.727,1.294,3.584,3.584,0,0,1-2.217-.461,28.993,28.993,0,0,0-5.173-.661C863.234,158.4,862.7,158.37,862.166,158.342Zm212.024-53.309a35.5,35.5,0,0,1,4.777-1.932,14.6,14.6,0,0,0,3.308-1.333c1.032-.522,2.051-1.327,3.272-1.177,0.709,0.117,1.171-.561,1.61-1.011a15.2,15.2,0,0,1,3.1,0,8.546,8.546,0,0,1,2.565-.8c0.533-.05.981,0.455,1.538,0.422a3.947,3.947,0,0,0,1.921.022,11.393,11.393,0,0,1,2.811-.25c0.594,0.305.447,1.061,0.574,1.616a1.088,1.088,0,0,0,1.213.189c0.517,0.039.811-.65,1.323-0.394,0.546-.061.622,0.505,0.94,0.805a1.1,1.1,0,0,0,1.183.333,0.544,0.544,0,0,0,.5-0.833,1.883,1.883,0,0,1-.824-1.1,3.241,3.241,0,0,1,.135-1.449,1.845,1.845,0,0,1,1.126-.789c0.4-.117.942,0.133,1.054-0.433,0.323-.472.932-0.816,0.858-1.455a2.53,2.53,0,0,1,.682-1.583c0.233-.35.866-0.472,0.869-0.905,0.077-.478-0.741-0.4-0.459-1.011a2.853,2.853,0,0,1-.229-1.255c0.34-.45,1.087-0.244,1.54-0.589a2.217,2.217,0,0,0,1.2-.988,1.143,1.143,0,0,1,.238-1.216,0.6,0.6,0,0,1,1-.294,1.764,1.764,0,0,0,1.571.422,11.121,11.121,0,0,1,1.176-1.005c0.359-.228.886,0.006,1.111-0.494a1.292,1.292,0,0,0,.116-1.577c-0.077-.428-0.149-1,0.453-0.966,0.461-.222.752,0.355,1.117,0.55a0.673,0.673,0,0,0,.987-0.411,6.3,6.3,0,0,0,1.024-.872,2.423,2.423,0,0,0,1.205-1.433c0.169-.528-0.361-0.711-0.7-0.994-0.355-.25-0.866-0.372-0.681-0.916a3.67,3.67,0,0,1,1.836-.222c0.541-.522-0.247-0.455-0.624-0.572a8,8,0,0,0-1.619-.111,3.744,3.744,0,0,1-2.232.405,7.066,7.066,0,0,1-1.332.872c-0.755-.117-1.272-0.905-2.088-0.761-0.443-.017-1.038.555-1.346,0.033-0.356-.594.006-1.372-0.423-1.955-0.647-.927-0.372-2.116-0.433-3.176a9.522,9.522,0,0,0-.459-1.733,31.189,31.189,0,0,0-3.308-.255,1.241,1.241,0,0,1-1.09-.877c-0.18-.578-0.885-0.622-1.339-0.922-0.727-.089-1.456-0.167-2.18-0.278a2.353,2.353,0,0,1-.459-1.7,13.105,13.105,0,0,1,.063-2.044,5.3,5.3,0,0,1,1.267-1.832,3.233,3.233,0,0,1,1.722-.305c0.443,0.183.821,0.683,1.261,0.805a2.225,2.225,0,0,0,1.08-.661,1.787,1.787,0,0,0-.246-1.216c-0.452-.278-1.2-0.35-1.222-1.011a0.941,0.941,0,0,1,.875-0.766c0.392-.155.956,0.172,1.177-0.317,0.759-.689,1.116-1.716,1.969-2.3,0.895-.855,2.123-1.233,3.069-2.027a7.871,7.871,0,0,1,2.368,0c0.408-.072.981,0.2,1.185-0.289a1.14,1.14,0,0,0,.31-1.222,4.024,4.024,0,0,1-.731-1.56c0.236-.366.3-0.95,0.849-0.922,0.525-.244,1.142,0,1.651-0.2a5.16,5.16,0,0,0,1.483-1.261,13.8,13.8,0,0,1,3.052-.35,2.828,2.828,0,0,0,1.652-1.088c-0.47.05-1.044-.178-1.365,0.283-0.6.416-1.344,0.039-2.013,0.106a1.1,1.1,0,0,1-1.26-.233c-0.356-.217-0.509-0.8-1-0.661a2.507,2.507,0,0,0-2.06,1.077,0.918,0.918,0,0,1-.869.972,3,3,0,0,0-1.81.283,10.892,10.892,0,0,1-2.012.839,7.157,7.157,0,0,0-3.01-.494,1.416,1.416,0,0,1-1.14-.811c-0.272-.317.01-0.938-0.526-1.038a1.509,1.509,0,0,0-1.714.111,22.6,22.6,0,0,1-2.568,1.588,2.276,2.276,0,0,1-1.4.528c-1,.011-1.769.755-2.727,0.955a7.65,7.65,0,0,0-2.085,1.149c-0.336.233-.843,0.6-0.78-0.111a2.707,2.707,0,0,0-.284-1.771,3.915,3.915,0,0,0-1.606-.489,31.146,31.146,0,0,1-4.134-.172,1.468,1.468,0,0,0-1.287.283,2.75,2.75,0,0,1-1.884,1.544,0.683,0.683,0,0,1-.927-0.55c-0.223-.416.085-0.961-0.337-1.3a1.755,1.755,0,0,0-1.2-.511,2.562,2.562,0,0,0-1.646,1.161c-0.587.727-1.689,0.911-2.079,1.816a1.636,1.636,0,0,1-1.11.966,1.69,1.69,0,0,1-1.374-.067,12.756,12.756,0,0,1-2.394.861,6.586,6.586,0,0,1-1.926-.244,9.425,9.425,0,0,1-1.627.583,3.138,3.138,0,0,1-1.764.133,2.62,2.62,0,0,1-1.454-.428,4.32,4.32,0,0,0-2.634-.544,21.88,21.88,0,0,0-2.92,1.816c-0.527.461-1.286,0.933-1.149,1.744-0.008.639,0.443,1.194,0.459,1.844,0.292,0.877.663,1.744,0.913,2.627a11.385,11.385,0,0,1-.771,4.154c-0.366.716-1.256,0.872-1.66,1.555a6.33,6.33,0,0,0-1.015,2.132,7,7,0,0,1-.934,2.216,11.908,11.908,0,0,1-2.694,2.6,10.554,10.554,0,0,1-1.965,1.322c-1.841.533-3.662,1.155-5.515,1.638a16.448,16.448,0,0,0-4.549,1.088c-0.715.283-1.549,0.261-2.233,0.583a7.439,7.439,0,0,1-2.6,1.688,1.334,1.334,0,0,1-1.443-.211,4.41,4.41,0,0,0-1.607-.239,5.425,5.425,0,0,0-2.446.261,25.361,25.361,0,0,1-2.749.833,7.983,7.983,0,0,1-2.444,1.249,5.708,5.708,0,0,1-2.679.378,3.012,3.012,0,0,0-1.624-.339,2.04,2.04,0,0,0-1.266.544,8.625,8.625,0,0,0-1.746,1.716,12.917,12.917,0,0,0-1.581,3.332,11.614,11.614,0,0,1-.877,2.41,3.065,3.065,0,0,0,.688,1.438,1.313,1.313,0,0,1,1.069.644,2.009,2.009,0,0,1,.471,1.494,12.434,12.434,0,0,1-.278,3.415,9.291,9.291,0,0,0-.881,2.743,52.914,52.914,0,0,0-.955,6.825,36.022,36.022,0,0,1-.344,4.87c-0.935,1.222-1.586,2.643-2.56,3.832-0.768.861-1.637,1.627-2.448,2.449a8.649,8.649,0,0,0-1.531,2.127c-0.34.677-.329,1.51-0.626,2.2a18.317,18.317,0,0,1-2.7,2.116c-0.425-.172-1.023.172-0.545,0.466a1.175,1.175,0,0,1,1.119.594,2.436,2.436,0,0,0,1.146,1.149,2.319,2.319,0,0,0,1.267-.239,19.623,19.623,0,0,0,1.508-1.311,1.152,1.152,0,0,1,1.256-.139,1.861,1.861,0,0,0,1.2-.233,2.554,2.554,0,0,0,1.123-1.122,6.8,6.8,0,0,1,1.529-1.333,11.231,11.231,0,0,1,2-.966,3.29,3.29,0,0,1,2.211-.755,5.752,5.752,0,0,0,2.749-.472,1.381,1.381,0,0,0,1.025-.789,6.6,6.6,0,0,0,1.236-3.182,2.324,2.324,0,0,1,.942-1.66,7.117,7.117,0,0,0,2.271-1.005,5.982,5.982,0,0,0,2.285-1.161c1.132-.938,2.1-2.088,3.3-2.943,1.252-.639,2.451-1.383,3.665-2.082a50.617,50.617,0,0,1,5-1.349,5.181,5.181,0,0,1,2.406.006,14.911,14.911,0,0,1,1.9.75c1.465-.111,2.934-0.122,4.4-0.105a9.692,9.692,0,0,1,3-.955,33.968,33.968,0,0,0,3.441-.55c1.073-.45,2.111-1,3.153-1.5a9.013,9.013,0,0,1,3.083-.128,7.149,7.149,0,0,0,2.45.178c0.98,0.056,1.791-.605,2.738-0.761C1073.25,105.294,1073.72,105.161,1074.19,105.033Zm37.536-56.363a1.575,1.575,0,0,0,1.122-1.011,0.775,0.775,0,0,0-.862-0.716,1.282,1.282,0,0,0-.914,1.288C1111.052,48.564,1111.482,48.609,1111.726,48.67Zm0.918,47.084c-0.438-.111-1.14-0.378-1.326.217,0.346,0.278.836,0.161,1.074,0.405,0.188-.3,1.193-0.35.416-0.566C1112.753,95.793,1112.7,95.771,1112.644,95.754Zm-1.683.772c-0.41-.161-0.944.289-0.6,0.655a0.585,0.585,0,0,0,.945-0.4A1.288,1.288,0,0,0,1110.961,96.526Zm-100.074,38.543a1.62,1.62,0,0,0-1.6.239c-0.23.194-.894,0.478-0.5,0.822a4.158,4.158,0,0,0,2.924-.278c0.638-.139.062-0.594-0.3-0.65A1.289,1.289,0,0,0,1010.886,135.069Zm-324.81-50.76a2.068,2.068,0,0,1,.357-1.882c0.271-.15-0.236-0.861.287-0.905,0.049-.4-0.989.094-0.723-0.361,0.37-.056.816-0.422,0.205-0.627-0.352-.283-1.153.167-0.823,0.622a6.191,6.191,0,0,0,.275,1.416,10.464,10.464,0,0,1,.074,1.866c-0.164.4,0.466,0.894,0.535,0.328C686.2,84.615,686.139,84.459,686.076,84.309ZM626.6,92.7a10.448,10.448,0,0,1-1.9.205,2.329,2.329,0,0,0-1.237.844,0.62,0.62,0,0,1,.141,1.038,1.347,1.347,0,0,1-1.86.044c-0.514-.1-0.385-0.683-0.887-0.777-0.313-.189.135-0.883,0.533-0.611,0.5,0.355.505-.655,0.035-0.661a3.491,3.491,0,0,0-1.482-.144c-0.312.261-.3,0.95-0.822,0.783a3.823,3.823,0,0,0-1.837.205,1.267,1.267,0,0,0-.823,1.36c0.006,0.733.865,1.005,1.472,1.094,0.4-.033.632-0.528,1.085-0.361a1.207,1.207,0,0,0,1.217-.006,2.755,2.755,0,0,1,2,.155c0.5-.072.811,0.411,1.3,0.378a5.4,5.4,0,0,0,.545,1.688,2.566,2.566,0,0,0,1.138,1.316c0.3,0.478.869,0.439,0.458-.1a1.342,1.342,0,0,1-.45-1.566c0.21-.627-0.056-1.372.451-1.894a2.8,2.8,0,0,1,2.142-1.716,2.049,2.049,0,0,0-.383-1.338C627.033,92.439,626.9,92.206,626.6,92.7ZM354.244,514.229a5.562,5.562,0,0,1,.612-2.338,3.112,3.112,0,0,0,.074-1.849,1.943,1.943,0,0,0-.631-1.344,3.633,3.633,0,0,0-1.438-1.1,5.792,5.792,0,0,0-2.314-.933,22.774,22.774,0,0,0-3.928-.416c-0.995-.006-2.016-0.056-2.995.022a3.548,3.548,0,0,0-1.533,1.194,27.046,27.046,0,0,0-1.138,2.6c-0.336.644-.928,1.127-1.257,1.788a2.866,2.866,0,0,0-.791,1.388,2,2,0,0,0,1.007,1.105,15.216,15.216,0,0,0,3.077,1.244c0.831,0.183,1.691.267,2.521,0.4a18.879,18.879,0,0,0,3.146,1.571,6.467,6.467,0,0,0,2.615-.089,2.314,2.314,0,0,1,2.438.528,1.715,1.715,0,0,0,1.759-.494c-0.017-.505.324-1.055-0.048-1.494a3.145,3.145,0,0,0-1.112-.583A5.3,5.3,0,0,1,354.244,514.229ZM168.264,491.2l-8.827.042-18.27,6.386h-0.213a9.744,9.744,0,0,1-5.911-.8c-1.183-.175-2.423.33-3.639,0.24-1.183-.076-1.9-1.28-2.416-2.239-0.144-.837-1.116-1.174-1.247-1.866,0.107-1.25,1.146-2.221,1.747-3.285a18.871,18.871,0,0,1,4.622-3.993,8.224,8.224,0,0,0-1.149-3.6,18.688,18.688,0,0,0-2.52-4.3,28.1,28.1,0,0,0-5.016-5.889c-3.9-2.752-7.63-5.741-11.521-8.51-1.555-.506-3.209-0.793-4.787-1.276a8.854,8.854,0,0,1-3.47-1.62c-3.2-1.433-6.244-3.194-9.469-4.578a16.519,16.519,0,0,1-5.231-3.064c-0.82-1.007-2.154-.984-3.312-1.312-1.553-.943-3.386-1.005-5.122-1.373-3.013-.877-5.961-2.005-8.982-2.873a23.389,23.389,0,0,0-6.69-1.242,41.924,41.924,0,0,1-7.913-1.129c-1.379-.468-2.86-0.026-4.214-0.567a65.633,65.633,0,0,1-4.831-4.588c0.105-.81-0.253-1.752.275-2.442a28.408,28.408,0,0,1,3.11-4.026c0.831-1.255,2.192-2.036,2.912-3.362,0.906-1.045.991-2.442,1.517-3.663,0.164-.841,1.194-1.106,1.43-1.6-0.519-1.077.471-2.033,1.478-2.239a8.925,8.925,0,0,0,4.253-1.713,35.241,35.241,0,0,0,3.777-2.646c2.015-1.024,3.376-2.881,5.077-4.318a12.882,12.882,0,0,0,3.1-3.114c2.094-2.876,5-5.063,6.907-8.086a13.946,13.946,0,0,0,3.322-7.03c0.053-1.177.524-2.393,0.225-3.549-0.563-1.556-.55-3.311-1.406-4.743-0.855.253-1.942,0.5-2.553-.332a4.307,4.307,0,0,0-2.656-1.411,2.225,2.225,0,0,1-.879-2.312c0.274-.684.444-1.588,1.368-1.53a1.258,1.258,0,0,0,1.339-1.458c0.054-.784,1.209-1.314.512-2.058a7.038,7.038,0,0,1,1.92-2.743,14.948,14.948,0,0,1,2.712-.1,5.445,5.445,0,0,1,3.035.58,1.6,1.6,0,0,0,2.087-.414,2.658,2.658,0,0,1,1.609-1.71c0.827-.857,2.289-0.575,2.948-1.638,0.555-.792,1.379-0.491,2.156-0.261,0.073,1.169,1.9,1.167,2.357.306,0.368-.867.867-2.071,1.988-1.874a1.853,1.853,0,0,0,2.066.846c0.746-.27.685-1.391,1.68-1.277,1.543,0.552,3.169,0,4.647-.5a3.532,3.532,0,0,1,2.717-.715c1.14,0.779,2.531.411,3.824,0.493,1.592,0.873,3.455.394,5.176,0.389a10.518,10.518,0,0,1,5.6.941,21.415,21.415,0,0,0,3.506.114,20.945,20.945,0,0,0,2.657,1.362c0.588,0.622,1.4.332,2.091,0.71,1.446,0.286,3.016-.186,4.421.448a7.55,7.55,0,0,1,2.31,1.729c0.391,0.6-.845,1.249.307,1.822a3.454,3.454,0,0,0,2.328-.238c1.01,0,1.386,1.26,2.351,1.486,1.914,0.817,4.07,1.264,5.657,2.691a7.423,7.423,0,0,0,4.028,2.236,18,18,0,0,1,5.058,2.025,57.864,57.864,0,0,0,6.716,4.3c1.49,0.962,3.251,1.6,4.418,2.973a100.544,100.544,0,0,1,12.839,5.708,74.186,74.186,0,0,0,7.742,2.566,32.144,32.144,0,0,0,9.116,1.346,54.3,54.3,0,0,0,8.514-.18c2.191-1.243,4.511-2.23,6.765-3.35a71.769,71.769,0,0,0,11.982-6.937c1.017-.4.472-1.813,1.421-2.318,0.9,0.006,1.913.09,2.548-.671,0.969-.912,2.381-1.379,3-2.606a19.445,19.445,0,0,0,.132-3.679c-0.316-1.211.659-.7,1.1-0.083a3.117,3.117,0,0,0,3.2-.29c0.287-1.287,1.579-2.037,1.721-3.387a4.078,4.078,0,0,1,.23-2.888,17.365,17.365,0,0,1,2.281-.167c1.6-.036,3.478.115,4.657-1.159,0.705-.892,1.647-0.023,2.462.174a13.555,13.555,0,0,0,4.831-2.17c1.472-.588,2.636-1.7,4.129-2.232,1.533-.469,2.256-2.053,3.676-2.707a12.955,12.955,0,0,0,3.324-2.235c1.66-1.263,2.712-3.1,4.246-4.5-0.438-1.123-1.335-2.145-1.113-3.436,0.406-.875-0.094-1.922.464-2.717,1.006-1.368,2.308-2.549,3.187-4.028,0.756-.621.228-1.51-0.014-2.257a1.43,1.43,0,0,1,2.476-.134c0.374,0.963,1.385.5,2.1,0.281a2.214,2.214,0,0,1,2-.757c0.916,0.187,1.958-.764,2.727-0.046a2.028,2.028,0,0,1,.722,2.075c-0.094.86-.957,1.775-0.43,2.595,0.931,0.992-.425,2.076-0.624,3.1a8.283,8.283,0,0,1-2.006,3.776,23.964,23.964,0,0,1-5.367,4.636c-0.786.113-1.149,1.31-1.906,1.015-1.024-.226.619-1.326,0.268-1.8-0.342-.54-1.014-1.412-1.68-1.174-0.969.314-1,1.511-1.871,1.973a29.519,29.519,0,0,1-6.1,5.722c-2.171,1.535-4.7,2.431-6.967,3.788a17.858,17.858,0,0,1-4.026,2.168c-0.629.251-1.906,0.106-1.579,1.12-0.225.687,0.316,1.859,1.039,1.057,1.507-.292,2.582-1.59,4.063-1.981,0.633-.524,1.6-0.09,2.088-0.693,0.726-.479.458-1.49,1.093-1.972,0.7-.377,1.259.559,2.045,0.242,0.617,0.224,1.816.089,1.4-.815,0.1-1.063,1.184-.531,1.557.093a13.685,13.685,0,0,0,6.267-1.916c0.915-.353.679-1.242,0.947-1.874,1.017-.491.748-1.657,0.807-2.576,0.73-.4.347,1.2,0.416,1.737,0.548,1.473.592,3.1,1.132,4.6a18.1,18.1,0,0,0,2.815,3.285c0.957,1.225,2.223,2.27,2.826,3.727,0.279,1.346-.041,2.8.241,4.178-0.016.6,0.016,1.907-.86,1.668a4.086,4.086,0,0,0-1.8,1.94c-0.1,1.006-1.155,1.134-1.934,1.389a2.107,2.107,0,0,1-2.491-.525,3.286,3.286,0,0,0-2.449-.052,4.009,4.009,0,0,0-1.9,2.405,2.606,2.606,0,0,1-1.393,1.741c-0.693.161-1.559-.1-2.181,0.593a1.456,1.456,0,0,0-.784,1.95c0.007,0.877-.979,1.049-1.033,1.944a12.738,12.738,0,0,0-1.18,5.439,13.453,13.453,0,0,0,.479,4.444,21.183,21.183,0,0,0,2.257,5.008c0.718,1.892,2.7,2.806,3.76,4.456,1.307,2.145,3.387,3.677,4.614,5.874a19.222,19.222,0,0,0,5.424,5.774,30.491,30.491,0,0,0,5.906,3.347,4.134,4.134,0,0,1,2.149,1.7,13.381,13.381,0,0,0,4.682,2.478c2.3,0.59,4.2,2.082,6.287,3.153,2.4,1.11,4.239,3.081,6.492,4.424,1.08,0.88,2.495.846,3.8,1.118,1.178,0.461,2,1.684,3.186,2.155,1.425,0.58,3.074.714,4.311,1.666,0.726,0.81,1.8.658,2.786,0.766a15.871,15.871,0,0,0,3.1,1.514,18.315,18.315,0,0,0,5.331,1.131c3.233,0.635,6.408,1.577,9.643,2.224,4.136,0.138,8.286.2,12.425,0.352,2.255,0.035,4.665-.567,6.789.418a17.067,17.067,0,0,0,3.838.117c0.959,0.2,1.613-.543,2.357-1.007,1.911-.339,3.919-0.411,5.866-0.649,0.9,0.138,1.426-.565,2.02-1.113,0.712-.215,1.583.023,2.335-0.24a2.872,2.872,0,0,0,2.191-1.29c0.509-1.036,1.76-1.059,2.678-1.563,0.847-.816,1.342-2.033,2.249-2.818,1.143-.526,1.155-2.21,2.481-2.452,1,0.288,1.553,1.237,2.448,1.721a8.363,8.363,0,0,0,2.2,2.58,15.506,15.506,0,0,0,3.824.938c0.992,0.143,1.478.99,2.126,1.644,1.748,2.007,4.373,2.751,6.624,4.018,0.743,0.2,1.739.61,1.336,1.551-0.5,1.1-1.177,2.14-1.742,3.215a6.389,6.389,0,0,1-3.265,2.544c-0.892.634-1.778-.276-2.715-0.307a2.271,2.271,0,0,0-2.566.915,14.6,14.6,0,0,0-2.139,3c-0.535.924-1.544,1.2-2.387,1.75-1.562.686-2.928,1.764-4.526,2.365-1.267.21-1.84,1.543-3.028,1.891-1.07.248-2.21-.457-3.312-0.1-1.345.106-2.391,0.993-3.68,1.292-1.946.765-4.049,0.377-6.085,0.469a28.414,28.414,0,0,0-6.82-.46c-1.184.01-1.455,1.325-2.315,1.9a2.524,2.524,0,0,1-2.784.28c-0.749-.253-2.218-0.22-1.982-1.363-0.343-1.049-.73-2.579-2.083-2.63-1.313.24-2.409-.678-3.638-0.888a12.711,12.711,0,0,1-4.147.389,2.3,2.3,0,0,1-2.065-.722c-0.614-.9-1.574-1.85-2.754-1.444a3.673,3.673,0,0,1-1.836,2.152,1.186,1.186,0,0,1-1.631-.841,1.955,1.955,0,0,0-2.041-.7,2.568,2.568,0,0,0-2.165-1.095,6.464,6.464,0,0,0-2.1-1.11c-0.989-.146-1.872-0.921-2.871-0.786-1.454-.029-2.331,1.209-3.215,2.172a7.811,7.811,0,0,0-3.055,2.581c-0.844.73-.691,2.114-1.634,2.71-1.044,1.16-2.582,1.522-3.889,2.289a17.493,17.493,0,0,1-3.281.123c-1.839-.167-3.914-0.32-5.247-1.769-0.854-1.076-2.386-1.717-2.6-3.189,0.134-.518,1.388-0.264,1.9-0.1a1.6,1.6,0,0,0,2.186-.286,4.917,4.917,0,0,1,1.357-1.738c0.437-.592.7-1.366,1.547-1.477,1.2-.32,1.76-1.525,2.651-2.24a3.1,3.1,0,0,0,1.831-3.251c-0.818-1.256-2.347-1.736-3.487-2.644-0.7-.7-1.737-0.675-2.533-1.162-0.736-.819-1.848-0.445-2.816-0.525a3.818,3.818,0,0,1-3.442.111,2.972,2.972,0,0,0-2.494-1.166c-1.129.214-2.066-.427-3.013-0.938-0.94-.211-1.264-1.177-1.986-1.681a11.72,11.72,0,0,0-7.072-2.023,4.258,4.258,0,0,1-3.183-2.205c-0.221-1.287-1.112-2.264-1.55-3.459-0.359-.656-0.928-1.5-1.774-1.037-0.712.5-1.59,0.3-1.419-.742a5.942,5.942,0,0,0-2.065-1.575,7.5,7.5,0,0,0-3.27-1.277c-0.853-.634-0.768-1.835-1.377-2.665-0.242-.62-0.906-1.659-1.611-1.015a5.238,5.238,0,0,1-2.692-.429,4.282,4.282,0,0,0-1.846-2.079,4.89,4.89,0,0,1-1.653-2.922c-0.45-.867-1.362-0.657-2.181-0.663-0.6-.766-1.656-1.026-2.181-1.846a35.02,35.02,0,0,0-3.163-3.86c-1.693-1.788-2.122-4.355-3.791-6.16a24.693,24.693,0,0,0-3.194-4.242c-0.588-.793-1.734-0.386-2.379-0.96-0.738-.5-0.839-1.286-1.311-1.861-0.595-.8-1.635-0.761-2.4-1.34a2.16,2.16,0,0,0-2.279-1.777c-2.329.628-4.305,2.118-6.518,3.057a3.622,3.622,0,0,1-3.08.386l-1.2,2.166c-1.42.587-2.409,1.835-3.787,2.5-1.253.023-2.739-.521-3.787,0.389-0.211,1.356-1.471,2.312-1.721,3.645,0.075,0.735,0,1.6-.861,1.8a3.285,3.285,0,0,0-3.042,2.048,27.086,27.086,0,0,1-2.949,2.1,6.815,6.815,0,0,1-3.733,1.674,8.7,8.7,0,0,0-3.52,1.4c-0.668.346-1.52,0.189-1.733,1.03-1.178.645-1.626,1.926-2.2,3.065-0.715,1.051-.626,2.318-0.84,3.518a2.574,2.574,0,0,1-.988,2.078c-0.842.516-.375,1.825-1.376,2.176a17.122,17.122,0,0,1-4.753.8c-1.063-1.187-2.543-1.829-3.678-2.931-0.72-1.049-1.2-.338-0.823.637a24.461,24.461,0,0,0,2.563,2.064c0.628,0.5,1.64.924,0.78,1.569,0.248,1,1.3.524,1.584,1.3a1.222,1.222,0,0,1-.288,1.972c-0.551.837-.038,1.481,0.551,2.111a1.4,1.4,0,0,1-.012,2.1c-0.82.415-.7,1.357-1.289,1.955-1.593,1.273-3.318,2.416-4.962,3.639-2.034.906-3.931,2.121-6.018,2.911-0.835.184-1.665,1.006-2.522,0.609,0.223-1.179-.824-1.979-1.736-2.484-0.689-.7-1.608-0.163-2.439-0.1-0.977-.142-1.251.575-1.82,1.022-1.133.238-2.219-.623-3.345-0.791a5.4,5.4,0,0,0-2.707,2.122,3.343,3.343,0,0,0-.69,3.287,6.092,6.092,0,0,0-1.5,3.74,15.787,15.787,0,0,0,.112,5.414c0.182,1.908.964,3.692,1.158,5.59a15.7,15.7,0,0,1,0,4.775c0.018,1.636-.855,3.134-0.629,4.783C169.642,488.941,168.7,489.957,168.264,491.2Zm669.4-13L834.4,477.3l-4.683-2.277-4.488-1.61-3.122-1.666-3.317-1.61-3.9-.833-2.732.222-1.756,1.222-1.171,1.444-1.951,1.222-1.561.833-1.171,1.388-1.756,1.666-1.561,1.222-1.951,1.055-2.146,1.61-1.171,1.666-2.146,1.444-1.951,1.222-4.878,1.444-2.537.611-1.756.222-2.342-.222-2.146-1.055-1.366-.167H774.5l-1.756.167-2.146-.611-3.317-.611-2.537-1-2.927-2.5-2.732-1.444-17.952-10.218-7.667-3.276,0.208-1.5-2.493,3.721L717.322,480.8l-4.878-2.665L693.906,464.2l-64.784-31.43-5.854,2.277-12.1-.833-5.659.833H601.8l-1.171-.611-3.122-.389-2.342-.444-1.561-1.222-2.342-.611H590.1l-1.756.389-1.951-.611h-2.342l-4.1-1.61-4.39.389-0.976,2.277-1.171,2.055-1.171,2.443-0.976,1.666v2.221l-0.2,2.055-0.781,1.666-1.951,1.832-1.366,2.055-0.781,1.222-0.976,1.444-1.171,1.222-1.561,1.888-0.585,2.221-0.39,3.276-0.39,2.277-0.585,2.277-1.366,1.833-0.976,1.444-1.951,1.444-2.342,1-1.951.611-1.951.833-1.951.389-2.537.833-1.756.444h-5.464l-3.122.389h-4.488l-1.951.222-2.537.611-2.342.611-1.366.611-1.171,1.222-1.561,1.055-2.537,1.832-1.366,2.11-1.756,1.666-0.2,1.61-0.781,2.888-1.171,2.443-1.171,2.277-1.171,1.832-0.585,3.11-0.39,2.221-0.2,2.277-0.585,1.832-0.976,1.888-1.756,1.388-2.342.777-5.464,3.054-2.537,1.055-0.781.611-0.976,1.444-0.781,1.222-0.781,1.222-0.976.611-1.561,1.055-56.492,18.889a24.885,24.885,0,0,1-.664-3.747,7.072,7.072,0,0,0-1.54-2.386c-1.18-.984-1.691-2.434-2.387-3.754a46.034,46.034,0,0,0-4.568-3.819,28.376,28.376,0,0,0-4.382-1.852,12.539,12.539,0,0,0-4.535-.776c-1.961.748-4.091,0.971-5.975,1.922-1.312.8-2.879,0.353-4.331,0.465a8,8,0,0,1-3.684-.682,48.361,48.361,0,0,1-7.186-2.268c-0.972-.129-1.349-1.046-1.9-1.727a19.363,19.363,0,0,1-1.706-6.929c0.683-2.463,1.523-4.96,1.377-7.548a16.048,16.048,0,0,1,1.277-4.538,5.473,5.473,0,0,1,2.185-1.63c1.183-.816,2.639-0.572,3.981-0.405a10.661,10.661,0,0,1,3.3,2.62,29.8,29.8,0,0,1,2.463,4.321,9.607,9.607,0,0,0,1.945,3.091c2.531,2.011,5.651,2.971,8.65,4.043a5.647,5.647,0,0,0,3.317-.733c1.448-.834,3.122-0.67,4.723-0.667,0.509-.752,1.107-1.467,1.561-2.242,0.438-1.2-.422-2.247-0.761-3.357-0.3-1.221-1.672-1.749-1.95-3a20.037,20.037,0,0,0,.219-3.37,4.1,4.1,0,0,1,.04-2.73c0.422-.786.558-1.88,1.422-2.3,0.465-.4,1.965-0.365,1.324-1.267a1.438,1.438,0,0,1,.621-2.09,16.852,16.852,0,0,0,1.108-3.781,55.724,55.724,0,0,1,.289-6.656,13.07,13.07,0,0,0-.147-4.4c-0.485-.912-0.061-1.834.167-2.753a29.594,29.594,0,0,1,4.891-8.308c1-1.43,2.52-2.311,3.69-3.568a6.891,6.891,0,0,0,.09-3.2c-0.663-2.669-.127-5.434-0.478-8.141,0.011-.744-0.376-1.819.65-1.966a10.169,10.169,0,0,0-.291-3.359,1.86,1.86,0,0,1,.119-2.25c0.844-1.082,1.451-2.624,2.867-3.035,0.737-.2,1.512-0.361,1.718-1.214,0.8-.978.616-2.272,1.059-3.4a7.042,7.042,0,0,0,1.629-3.383c0.485-1.567-.814-2.779-1.642-3.941-0.775-1.386-2.422-1.57-3.786-2.034-1,.107-1.783.968-2.688,1.369-0.972.257-1.883,1.055-2.9,0.9-1.2-.452-2.141.645-3.1,1.205-2.15,2.036-4.154,4.246-6.248,6.348-0.4.624-1.415,1-1.369,1.808-0.322.953,1.034,1.047,1.033,1.932l-5.539,8.24c-0.754.758-.783,1.831-1.233,2.74-0.452.67-1.419-.116-2.006-0.319-0.893-.235-1.289.793-1.579,1.466a0.861,0.861,0,0,1-1.691.033c-1.106-1.1-1.339-2.673-1.969-4.043a6.4,6.4,0,0,0-2.077-3.06c-0.538-.774-1.479-0.439-2.275-0.5a1.156,1.156,0,0,0-1.39,1.351c0.131,1.157,1.27,2.03,2.258,2.566a3.933,3.933,0,0,1,1.838,1.3c-0.25,1.005.895,1.435,1.4,2.128a2.079,2.079,0,0,1-1.4,2.09,2.759,2.759,0,0,1-3.284-.359,22.209,22.209,0,0,0-4.312-2.3,23.208,23.208,0,0,1-3.408-2.537c-1.7-.6-3.785-0.3-5.166-1.662-0.942-.819-1.074-2.128-1.9-3.03-0.712-.682-1.74-1.015-2.468-1.721a2.852,2.852,0,0,1-.3-2.575,2.151,2.151,0,0,1,1.6-1.6c1.743-.407,3.036-1.736,4.7-2.3,1.495-.719,3.163-0.374,4.762-0.484,1.867,0.166,3.625-.512,5.418-0.916,2.578-.719,4.954-2.039,7.52-2.821,4.365-1.4,8.43-3.615,12.866-4.8a10.233,10.233,0,0,0,2.029-2.8c0.144-.834.275-1.677,1.249-1.843,2.076-.6,4.319-0.811,6.182-1.993,1.8-.712,3.033-2.252,4.488-3.465,1.792-2.05,3.394-4.281,4.979-6.5A19.478,19.478,0,0,0,443.1,405.3c0.245-.918-0.045-2.135.966-2.625,1.64-1.71,2.233-4.1,3.3-6.165a29.106,29.106,0,0,1-2.537-1.775c-0.464-.983-1.612-1.014-2.5-1.4a3.221,3.221,0,0,1-1.8-2.763c-0.011-1.291-.329-2.829.566-3.893-0.119-.835.614-1.239,0.937-1.939a13.315,13.315,0,0,0-3.071-2.74,7.469,7.469,0,0,0-4.439-.572,17.709,17.709,0,0,0-6.254,2.469,6.9,6.9,0,0,0-2.645,3.842c0.066,0.612.506,1.928-.541,1.61-0.73-.107-1-1.232-0.874-1.888a6.464,6.464,0,0,1,2.4-3.891,15.681,15.681,0,0,1,5.476-2.446,16.048,16.048,0,0,1,6.151-.5,4.319,4.319,0,0,1,2.539.967c0.928,0.209,1.175,1.424,2.051,1.6,0.573-.379,1.005-1.153,1.611-1.6a55.792,55.792,0,0,1,8.62-6.219,8.055,8.055,0,0,0,3.454-2.762c3.043-3.434,5.615-7.235,8.346-10.913a39.593,39.593,0,0,0,4.887-8.08,34.324,34.324,0,0,1,3.476-5.859,43.676,43.676,0,0,0,3.588-9.491c-0.11-1.034.325-2.226-.464-3.062-1.261-1.585-1.535-3.639-1.832-5.582-0.98-1.6-2.6-2.859-3.294-4.661-0.483-.771-0.991-1.755-1.985-1.884-2.318-.521-4.471-1.56-6.79-2.079a51.289,51.289,0,0,1-2.912-5.263,16.708,16.708,0,0,0-3.172-4.26c-0.727-.638-0.5-1.663-0.751-2.459a16.425,16.425,0,0,0-1.083-1.79l-7.832,3.352c-0.737.606-1.412-.358-1.634-1.02l7.872-3.468a1.462,1.462,0,0,0,1.25-1.752,12.924,12.924,0,0,1-2.166-2.611c-0.422-1.443-.989-2.9-1.347-4.35-1.058-.918-1.144-2.882-2.683-3.2a6.014,6.014,0,0,1-.628-3.21c0.427-1.7,2.109-2.556,3.652-3.051,1.624-.281,2.369-1.933,2.829-3.345,1.084-.358,2.21.145,3.313,0.2,1.164-.325,2.274-1.14,3.517-1.259,1.47-.124,3.042.311,4.413-0.349,2.315-.718,3.825-2.709,5.7-4.121,1.239-1.309,3.227-1.735,4.215-3.281,1.179-1.247.615-3.257,1.692-4.549a5.457,5.457,0,0,0,1.079-4.1,12.134,12.134,0,0,0,0-3.538,4.12,4.12,0,0,1,2.683-2.234c1.352-.33,2.909-0.406,3.962-1.441,1.331-.889,2.729-1.689,4.054-2.6,1.035-.862,2.5-0.824,3.48-1.76a3.637,3.637,0,0,0-.014-4.116c-0.673-.593-0.1-1.542-0.739-2.123a3.568,3.568,0,0,1,1.616-1.755c1.555-.542,3.212-0.848,4.78-1.4a3.037,3.037,0,0,1,3.358.815,5.4,5.4,0,0,1,1.576,2.541c0.542,0.2,1.535-.228,2.232-0.33,1.807-.57,2.814-2.317,4.243-3.452,1.294-1.856,2.9-3.468,4.227-5.309,0.644-1.259,1.855-2.472,1.661-3.971-0.009-1.908-.766-3.727-0.629-5.635,0.4-.623.362-1.762,1.3-1.767,0.967-.059,1.136-0.9,1.262-1.7,0.537-1.265-.04-2.586.11-3.9-0.008-1.034-1-.822-1.721-1.075-0.921-1.381.385-3.014-.153-4.49a6.8,6.8,0,0,0-3.978-5.061,1.269,1.269,0,0,1-.973-1.749c0.259-1.013,1.348-.54,1.828-1.169,0.406-.557.4-1.677,1.3-1.74,0.715,0.014,1.2.986,2.068,0.924a9.995,9.995,0,0,0,4.626.371c1.473,0.15,2.668-.817,4.058-1.11a6.53,6.53,0,0,0,2.928-1.524c0.748-1.158,2.071-1.953,2.516-3.28,0.6-1.1-.431-2.153-0.418-3.256,0.479-1.275-.775-2.667.071-3.848,0.258-.785.489-1.72,1.421-1.948,1.334-.892,3.086-0.087,4.412-0.907a4.606,4.606,0,0,0,2.153-3.031c0.189-1.575,1.782-2.4,2.19-3.876,0.258-.928,1.132-0.926,1.911-1.112a3.152,3.152,0,0,1,2.537.509c0.9,0.366.466,1.389,0.162,2.02a1.968,1.968,0,0,0-.089,2.607,6.615,6.615,0,0,0,2.754,2.74,4.263,4.263,0,0,1,2.065,2c0.2,1.007,1.08,1.572,1.7,2.312,0.6,0.935,1.853.738,2.7,1.354a4.447,4.447,0,0,1,2.831,3,3.944,3.944,0,0,0,1.2,3.276,5.038,5.038,0,0,1,1.826,1.456c1.374,1.118,3.134,1.381,4.789,1.822a31.814,31.814,0,0,0,10.672,1.442c1.977-.15,3.919.311,5.886,0.333a36.487,36.487,0,0,0,8.667-1.027c1.516-.431,3.106-0.037,4.609-0.5a28.945,28.945,0,0,0,4.842-.446,7.1,7.1,0,0,0,4.057-2.43,32.589,32.589,0,0,1,3.376-2.63c1.338-.263,1.785-2.013,3.207-2.073,0.914-.3,2.028.227,2.783-0.457,1.416-.793,1.5-2.579,2.48-3.75a5.935,5.935,0,0,1,2.232-2.248c1.617-1.241,2.866-2.884,4.516-4.1a12.061,12.061,0,0,1,2.41-3.11,54.2,54.2,0,0,1,5.115-5.649c0.722-1.509,2.11-2.506,3.064-3.857,1.167-1.771,2.8-3.143,4.085-4.817a19.753,19.753,0,0,0,3.107-4.991,37.719,37.719,0,0,0,1.018-6.477,9.928,9.928,0,0,0-.845-5.408c-1.02-.913-2.583-0.516-3.84-0.842a1.958,1.958,0,0,1-.4-2.735,5.209,5.209,0,0,1,1.509-1.9,4.985,4.985,0,0,0,2.106-2.636c0.289-1.781,1.118-3.424,1.383-5.214,0.287-1.561.513-3.317-.43-4.7a6.039,6.039,0,0,0-2.9-2.411c-0.618-.5-0.389-1.58-0.609-2.324-0.406-.939.349-1.661,0.78-2.432,0.43-1.144,1.839-.651,2.7-1.094,1.406-.7,1.765-2.317,2.114-3.711,0.563-1.4.036-2.84-.36-4.2a17.439,17.439,0,0,0-.022-3.772c-0.378-1.339.1-2.642,0.33-3.962a7.523,7.523,0,0,1-1.322-3.52,12.816,12.816,0,0,1,.594-5.573,1.448,1.448,0,0,0,.418-2,3.5,3.5,0,0,1-.378-2.161,19.206,19.206,0,0,0,.689-3.962c0.879-.39,1.015-1.378,1.411-2.157a2.208,2.208,0,0,1,2.365-1.952c0.915-.259,1.812.719,2.644,0.164,1.435-.4,2.174-2.022,3.738-2.108,0.69,0.019,1.283.7,2.016,0.84,1.1,0.724,2.312-1,3.366-.109,1.453,0.726,1.645,2.618,3.03,3.425a3.326,3.326,0,0,1,1.592,1.837,21.757,21.757,0,0,0,2.852,1.326c0.757,0.654,1.626.156,2.465-.034a16.335,16.335,0,0,1,2.741-.552,2.391,2.391,0,0,1,2.734.535c1.308,0.818,1.775,2.305,2.523,3.56,2.108,1.222,4.279,2.332,6.372,3.581a3.643,3.643,0,0,0,2.27.095c1.015-.208,1.236-1.326,2.1-1.766a4.77,4.77,0,0,0,2.165-1.551c0.845-.626,2.15-1.122,3.1-0.39,0.837,0.61,2.124.656,2.616,1.646,0.418,0.938.586,2.075,1.437,2.768,2.084,1.513,2.825,4.078,3.911,6.294,0.874,1.578,1.171,3.461,2.339,4.861,0.374,0.87,1.307.984,2.1,1.289,2.058-.165,4.048.566,6.107,0.389a18.773,18.773,0,0,0,3.714-1.273c2.565-1.016,4.646-2.864,7.047-4.169,0.664-.945,1.806-1.634,2.063-2.8a1.226,1.226,0,0,1,1.693-1.067,2.194,2.194,0,0,1,1.275,1.836c0.17,0.858-.4,1.886.236,2.592,0.354,0.844,1.228.615,1.877,0.629,1.387,0.628,1.867,2.129,2.139,3.51a8.331,8.331,0,0,1,.609,4.648c-0.4.8,0.847,1.314-.214,1.888a2.117,2.117,0,0,0-.44,2.753c1,0.129,1.269-1.186,2.042-1.564,0.626-.6,1.66-0.365,1.554.62-0.489.56-1.312,0.905-1.315,1.745-0.124.906,0.8,1.24,1.468,1.532a30.38,30.38,0,0,0-2.632,2.106c-0.357.337-1.344,1.511-.581,1.615a3.672,3.672,0,0,1,2.983-.722,1.872,1.872,0,0,0,2.752-.622,1.825,1.825,0,0,0-.456-2.16c-0.455-.553-0.062-1.449-0.019-2.114,0.22-.723.934-1.393,0.941-2.1a1.045,1.045,0,0,0-1.687-.721,38.6,38.6,0,0,1-2.151-3.386,46.914,46.914,0,0,0-1.7-4.706,8.653,8.653,0,0,0-2.1-3.7c-0.562-.777-1.785-0.881-2.039-1.865-0.253-1.228-.243-2.879-1.54-3.481a9.666,9.666,0,0,1-2.521-.794,2.948,2.948,0,0,0-1.893-2,24.1,24.1,0,0,0-2.033-4.935c-1.464-2.36-1.321-5.277-2.329-7.8-1-.9-1.063-2.263-1.526-3.448-0.623-1.024.111-2.121,0.454-3.119A11.333,11.333,0,0,0,716.013,80c-0.127-.974-0.28-2.227.566-2.907a17.463,17.463,0,0,0,3.14-.151c1.251-.735,1.972-2.149,3.132-3.037a13.25,13.25,0,0,0,.4-2.752,23.507,23.507,0,0,1,.514-5.5c0.42-.743-0.082-1.542.16-2.275a1.173,1.173,0,0,1,1.8-.832c1.315,0.736,2.807,1.968,4.376,1.241a6.116,6.116,0,0,1,2.7-.92c0.878-.4,1.248.707,1.842,1.15a5.136,5.136,0,0,0,2.976.578,14.8,14.8,0,0,0,4.475.555c0.764,0.333,1.374,1.087,2.269,1.223a1.78,1.78,0,0,0,2.509-1.39,3.447,3.447,0,0,1,2.355-.79c1.694,0.019,3.111-1,4.586-1.7,0.654-.453,1.751.157,2.113-0.636a1.275,1.275,0,0,1,1.9-.721c1.217,0.067,1.353,1.456,2.2,2.05a2.517,2.517,0,0,1,1.132,1.967,8.685,8.685,0,0,1,2.119.833,43.807,43.807,0,0,0,5.152-.111,6.593,6.593,0,0,0,2.809-2.059c0.366-1.041.183-2.283,0.923-3.2,0.489-.578-0.263-1.9.8-1.908,0.831,0.185.934,1.328,1.918,1.112,1.041,0.361,2.118-.423,3.1.185,0.79,0.547,1.569-.131,2.366-0.3a2.538,2.538,0,0,1,2.332.4,32.464,32.464,0,0,0,3.3-1.223c1.478-.51,2.377-1.869,3.547-2.792,1.471-1.187,3.479-.348,5.142-0.92,1.573-.72,3.2.091,4.706,0.6a7.479,7.479,0,0,0,4.475.333c0.927,0.773,1.815,1.614,2.811,2.291,1.305,0.885,2.895,1.156,4.155,2.113,1.253,1.051,3.258.506,4.352,1.795,0.974,1.132,2.546.914,3.829,1.408,1.4,1.708,3.36,2.834,4.795,4.509a3.405,3.405,0,0,0,2.09,1.267,12.532,12.532,0,0,1,5.68-.333,4.639,4.639,0,0,1,2.97-1.974,2.131,2.131,0,0,0,2.022.7c0.769,0.034,1.032,1.11,1.549,1.61a5.738,5.738,0,0,1-2.137,3.192,7.72,7.72,0,0,0-.789,3.36c-1.132,1.224-2.044,2.735-3.615,3.443a5.6,5.6,0,0,0-2.41,1.777c-0.332,1.032-1.148,2.142-.393,3.19a22.156,22.156,0,0,1,.909,7.892,21.872,21.872,0,0,0,.664,6,27.413,27.413,0,0,0-.814,3.609,15.59,15.59,0,0,0,2.043,7.015c-0.091,1.529.334,3.035,0,4.553a2.9,2.9,0,0,0-.861,2.166,12.1,12.1,0,0,1,.184,4.2c0.492,1.672,1.783,3.067,2.241,4.774,0.526,1.028.162,2.151,0.2,3.224,0.787,1.526.962,3.335,2.094,4.669a9.5,9.5,0,0,0,3.117,3.087,5.379,5.379,0,0,0,2.884,1.171c1.877,0.131,3.749-.267,5.635-0.136a2.665,2.665,0,0,1,1.317,1.8c0.7,1.5.181,3.127,0.06,4.693a2.288,2.288,0,0,0,.7,2.181,11.785,11.785,0,0,1,1.365,2.44,1.189,1.189,0,0,1-1.2,1.543,68.373,68.373,0,0,0-5.508,5.275c-0.425,1.308-.31,2.748-1.092,3.928a4.961,4.961,0,0,1-3.53,3.158,8.739,8.739,0,0,1-3.943-.188c-1.765-.41-3.308-1.561-5.112-1.762-1.425.149-2.17-1.231-3.283-1.814a1.941,1.941,0,0,1-1.285-1.745c-0.141-.865.363-1.984-0.427-2.593a30.209,30.209,0,0,0-4.781-1.842,27.027,27.027,0,0,0-4.481,1.531c-1.786,1.342-3.463,2.859-5.186,4.295-1.014,1.41-2.02,2.844-3.173,4.157a37.558,37.558,0,0,0-4.089,6.144,41.53,41.53,0,0,0,.263,7.534c0.587,1.221.847,2.573,1.347,3.838a9.731,9.731,0,0,0,2.117,2.332c1.115,0.431,2.338.092,3.435,0.512a9.451,9.451,0,0,1,1.449,1.877,3.617,3.617,0,0,0,1.982,2.507c0.98,0.587,2.22-.1,3.11.67a9,9,0,0,0,.478,2.429c0.764,0.882,1.894,1.489,2.538,2.522,0.3,0.806,1.049,1.391,1.227,2.235,0.017,0.707-.282,1.452-0.284,2.2a3,3,0,0,1-.123,2.988,3.728,3.728,0,0,1-2.287,1.01,12.134,12.134,0,0,0-1.788,2.743c-0.844,1.428-.455,3.253-1.351,4.638a2.421,2.421,0,0,0-.648,2.13,5.1,5.1,0,0,0,1.116,2.554c0.649,1,1.7,1.612,2.345,2.605,0.332,0.849-.085,1.9-0.1,2.821a24.153,24.153,0,0,0-1.762,3.225c-0.61,1.5.016,3.057,0.041,4.585a2.613,2.613,0,0,1-1.983,1.425c-0.7.325-1.848-.25-1.886,0.847-0.6,1-.373,2.138-0.485,3.239,0.078,1.076-.644,2.061-0.353,3.116,0.485,1.6.638,3.264,1.011,4.891a15.977,15.977,0,0,0,.865,3.966c0.309,1.786,1.2,3.391,1.627,5.138a30.059,30.059,0,0,0,3.261,8.516c0.975,2.142,1.981,4.266,3.144,6.316a53.288,53.288,0,0,0,3.336,5.635,44.277,44.277,0,0,0,4.81,6.917c1.47,2.349,3.166,4.546,4.659,6.877a46.034,46.034,0,0,1,3.511,3.721c1.723,1.1,3.032,2.7,4.753,3.8,1.37,0.75,2.16,2.112,3.247,3.176,1.982,1.795,3.62,3.916,5.582,5.727,0.634,0.34,1.544.141,2.254,0.515a12.254,12.254,0,0,0,2.41,2.166,5.479,5.479,0,0,1,2.33.318,13.072,13.072,0,0,1,2.145,2.07c1.468,0.7,2.442,2.032,3.615,3.11a35.168,35.168,0,0,1,4.876,4.12c1.611,1.19,3.347,2.23,4.978,3.4a5.389,5.389,0,0,0,3.661,1.256,16.545,16.545,0,0,0,2.968-2.364c1.145-.774,1.216-2.6,2.669-2.953,1.225-.662,2.633-0.348,3.912-0.742a2.1,2.1,0,0,1,2.107-.722c0.732,0.2,2.045.875,1.3,1.777-1.155,1.489-2.806,2.651-3.431,4.5,0.049,1.025-.986,1.447-1.83,1.646-1.316.195-2.186,1.207-3.119,2.057a18.5,18.5,0,0,0-4.109,5.471c-0.314.985-1.232,1.526-1.685,2.41a10.167,10.167,0,0,0-1.359,3.119c-0.213.954-1.162,1.417-1.4,2.342a8.029,8.029,0,0,1-2.064,3.128c-1.16,1-.969,2.677-1.4,3.988-1.4,1.8-1,4.283-1.854,6.293-0.789,1.212-.783,2.7-1.369,3.986a4.2,4.2,0,0,1-1.653,2.2c-0.61.83-1.356-.143-1.893-0.555-0.805-.713-0.482-1.825-0.458-2.77-0.085-1.224.7-2.291,0.63-3.5-0.147-.894.376-2.052-0.427-2.689a31.972,31.972,0,0,0-3.923-2.055,34.769,34.769,0,0,0-3.83-.315c-0.666.728-1.69,0.425-2.481,0.838-1.527.578-2.351,2.1-3.44,3.2-1.523.72-2.543,2.07-3.9,3.031-2.178,1.446-3.395,3.8-4.59,6.043-0.993,1.456-1.333,3.274-2.473,4.623a28.094,28.094,0,0,0-2.306,2.087A7.981,7.981,0,0,0,834.915,365a15.217,15.217,0,0,0-1.178,3.612,7.032,7.032,0,0,1-.5,3.058c-0.248,2.412.546,4.778,0.941,7.143a34.012,34.012,0,0,0,4.8,9.366c1.908,1.646,3.718,3.422,5.562,5.15,1.583,1.843,3.29,3.58,4.839,5.454,1.057-.016,2.273-0.126,3,0.8a6.2,6.2,0,0,1,.811,3.284c-0.091,1.043-.644,2.331.408,3.075a3.126,3.126,0,0,1-.4,2.832,2.812,2.812,0,0,1-.441,2.44c-0.336.978-1.5,0.852-2.313,0.67a18.949,18.949,0,0,0-4.03-3.461,3.459,3.459,0,0,0-2.988-.648c-1.072.192-1.878-.589-2.557-1.294-1.263-1.324-3.229-.568-4.769-1.2-0.78.009-1.64-.449-1.377-1.349a2.942,2.942,0,0,0-1.615-3.184,5.14,5.14,0,0,1-2.638-1.224,2.768,2.768,0,0,1-.164-2.844c0.279-1.065,1.492-.817,2.335-0.84a1.514,1.514,0,0,0,.644-2.033c-0.6-.963-0.621-2.236-1.623-2.916-1.31-.709-1.142-2.315-1.128-3.579,0.144-.867-1-1.115-1.377-1.8-0.7-2.094-.658-4.337-1.375-6.421a20.182,20.182,0,0,1-.792-4.611,66.333,66.333,0,0,1-.587-7.071c0.557-1.824.616-3.735,1.1-5.573,0.465-.752-0.109-1.64.389-2.27,0.528-.459.886-1.693,0.009-1.89a4.609,4.609,0,0,1-.641-3.019c0.265-.82.4-1.719,0.587-2.539,0.5-.6,1.285-0.7,1.478-1.59a4.265,4.265,0,0,1-.707-3.258,4.85,4.85,0,0,1,1.46-3.321,3.532,3.532,0,0,1,3.247-1.529c1.047-.478,1.635-1.792,2.885-2,0.981,0.083,2.295-.237,2.487-1.366,0.314-.884,1.271-0.787,2.024-0.867a2.383,2.383,0,0,0,1.87-1.608c0.2-.922,1.2-1.126,1.843-1.663a2.345,2.345,0,0,1,2.219-.271c0.828,0.208,1.428-.362,2.168-0.591a1.582,1.582,0,0,0,1.514-1.424c0.556-.494,1.544-0.183,2.267-0.364,1.637,0.051,3.386-.217,4.936.384,0.671,0.214,1.554.71,1.3,1.524-0.253.735-.44,1.681,0.467,2.014a1.882,1.882,0,0,0,2.27-.044c0.369-.768,1.4-1.707,2.229-1.084,0.618,0.555.375,1.74,1.49,1.361,0.645-.813.993-1.8,1.648-2.612a8.29,8.29,0,0,1,2.295-3.869,1.935,1.935,0,0,0,.877-2.011c-0.126-1.126.425-2.692-.751-3.376a1.724,1.724,0,0,0-2.048-.49,2.524,2.524,0,0,1-2.365.253c-0.875-.709-2.061-0.822-2.824-1.695-0.631-.8-1.635-0.723-2.554-0.844a5.215,5.215,0,0,1-2.211-.824c-1.126-.568-2.407.364-3.482-0.356a10.638,10.638,0,0,0-1.839-1.889c-1.306-.336-2.37-1.393-3.738-1.444-0.886-.051-0.314,1.348-0.909,1.832-0.4.8-1.525,0.376-1.824-.277-0.561-.565-0.1-1.664-1.145-1.53-0.778-.077-1.675.207-2.1-0.652a3.969,3.969,0,0,0-2.5-1.372c-0.9.227-.648-1.21-1.35-1.509a2.631,2.631,0,0,0-2-.284c-0.425.7,0.009,1.657-.958,1.959-1.3.086-2.276-1-2.926-2-1.145-.129-2.14-0.791-3.262-0.943a2.665,2.665,0,0,1-2.229-1.177,14.719,14.719,0,0,0-2.619-2.673,2.561,2.561,0,0,0-2.389-.816c-1.651,1.265-2.424,3.3-3.548,5a15.994,15.994,0,0,1-1.137,3.908,7.072,7.072,0,0,0-.187,2.248c2.042,2.17,3.792,4.625,5.687,6.936,0.765,0.923,1.555,2.138,2.841,2.235,0.619,0.354,1.044,1.157,1.9,1.181,1.754-.147,3.553-0.139,5.33-0.126a13.036,13.036,0,0,0,3.229.888,2,2,0,0,1,1.908,1.776c-0.026,1.134.726,2.228,0.329,3.333a5.492,5.492,0,0,0-1.377,2.166c-1.328-.189-2.528.411-3.787,0.722a11.452,11.452,0,0,0-5.381.3,33.539,33.539,0,0,1-6.839-.3c-1.187.977-1.324,2.688-2.38,3.767-0.9.562-.431,1.682-0.546,2.563a2.03,2.03,0,0,0-.4,2.436,10.678,10.678,0,0,1-1.286,2.909c-0.916,1.617-1.136,3.719-2.789,4.816-0.68-.137-1.759.194-1.549,1.055,0.276,1.135.351,2.6-.808,3.268-1.555,1.275-3.478,2.723-5.6,2.2a3.86,3.86,0,0,0-1.63,2.185,14.768,14.768,0,0,0-1.914,1.4c-0.637.337-1.523,0.782-2.2,0.278-0.738-.143-1.361.782-1.939,1.215-1.814,1.191-3.951,2-5.417,3.675a1.49,1.49,0,0,1-2.053.485c-0.723-.291-1.453-0.917-2.018-0.04,0.258,1.1-.683,1.854-1.449,2.47a9.91,9.91,0,0,1-4.359-.075,8.363,8.363,0,0,0-5.257.672,13.3,13.3,0,0,0-1.739,3.188c-0.626.658-.37,1.494-0.278,2.3-0.983,1.136-1.012,2.69-1.2,4.109,0.262,1.245-.7,2.158-1.323,3.122a1.561,1.561,0,0,0-.181,2.055,6.245,6.245,0,0,1,1.463,3.972,50.409,50.409,0,0,0-5.318,6.406c-0.364.641-.945,1.375-0.321,2.048,1.01-1.575,2.213-3.011,3.27-4.553a5.146,5.146,0,0,0,2.456-2.491,1.409,1.409,0,0,1,1.891-.757,24.8,24.8,0,0,0,3.163-1.136c0.789-.26.632-1.5,1.613-1.391,0.821,0.363,1.622,1.2,2.548.66,1.091-.472,1.618,1,2.66.926,0.938,0.217.132,1.7,1.038,1.833,1.065,0.665,2.249.148,3.394,0.191,0.554,0.941,1.127,2.154,2.328,2.322,0.879,0.042,1.264-1.2,2.091-1.472,1.005-.463,2.191.417,3.159-0.3a1.078,1.078,0,0,1,1.823.611,3.884,3.884,0,0,0,2.962.329c2.1-.758,4.3.032,6.441-0.366a8.152,8.152,0,0,1,2.495,2.481c0.36,1.031,1.2.534,1.984,0.349,0.821-.4,1.337.538,1.9,1,0.907,0.583.753,1.774,1.5,2.487a10.48,10.48,0,0,1,2.28.149c1.066,0.589,1.984,1.559,3.228,1.85,1.064-.225,1.879.512,2.749,1,1.747,0.847,2.539,2.718,3.62,4.223,0.118,1.037.725,2.078,0.344,3.11a7.781,7.781,0,0,0,4.475-.944c0.611-.689.068-1.358-0.111-2.078a1.83,1.83,0,0,1,1.89-2.365,6.851,6.851,0,0,0,3.1.389c1.229-.282,1.962.893,2.879,1.476a2.5,2.5,0,0,0,2.684.651c1.123-.375,1.852.652,2.716,1.155a15.475,15.475,0,0,1,2.848,2.394c1.012,0.133.781,1.169,1.4,1.676,0.435,0.648,1,1.348,1.873,1.035,0.987,0.357,1.094-.615.978-1.355-0.155-.732.318-1.339,0.373-2.075,0.506-1.057,1.242.01,1.875,0.38,0.708,0.855,1.831.47,2.8,0.551,0.69,0.371.83,1.5,1.385,1.734,0.917,0.047.244-1.459,1.2-1.567a2.97,2.97,0,0,1,2.109-1.252c0.892-.126,1.031-1.033,1.505-1.635,0.68-.357,1.358-0.766,2.066-0.222a2.549,2.549,0,0,0,1.844,1.722c0.785-.1,1.443.54,2.2,0.384,1.8-.027,3.109-1.571,4.909-1.551a8.675,8.675,0,0,1,3.27,3.276,3.01,3.01,0,0,0,.626,2.217,23.718,23.718,0,0,0,1.783,3.372c0.688,1.186.02,2.454-.344,3.629a15.766,15.766,0,0,1-.567,6.376c-0.317,1.057-.623,2.294-1.733,2.771-0.668.7-1.264-.7-2.089-0.137a33.09,33.09,0,0,0-2.945,1.831c-1.147.495-1.718,1.594-2.42,2.556a27.384,27.384,0,0,0-1.536,4.732,10.4,10.4,0,0,0,.18,3.9,43.932,43.932,0,0,0,2.456,7.116,45.194,45.194,0,0,0,5.859,7.694,7.172,7.172,0,0,0,2.739,2.074,3.034,3.034,0,0,1,1.87,1.3c0.518,1.219.661,2.6,1.457,3.713a4.72,4.72,0,0,1,2.258,1.786c0.778,0.8.342,1.874-.02,2.767,0.405,0.6.6,1.65,1.433,1.669,1.141,0.838.958,2.335,1.01,3.577a12.108,12.108,0,0,1,.139,4.36c0.483,0.657.862,1.6,1.684,1.851,0.909,0.148.17,1.484-.579,1.442-0.929.343-.405,1.415,0.026,1.986,0.649,0.335,1.413.821,0.975,1.682-0.253.679-1.437-.287-1.99,0.318-0.922.5-.442,1.339-0.222,2.118s1.343,0.772,2,1.1a0.963,0.963,0,0,1,.016,1.762c-0.61.394-1.52-.139-2.25-0.088-1.025.037-2.095-.437-3.072-0.017-0.738.222-.1,1.457-1.062,1.786-1.312-1.142-2.736-2.434-4.592-2.388-1.161.2-2.019-.759-3.109-1-0.977-.322-2.192-1.13-1.939-2.315a8.909,8.909,0,0,1,1.549-3.018c0.906-.313.381-1.405,0.516-2.138,0.253-1.655-1.113-2.845-2.217-3.849a13.766,13.766,0,0,0-2.819-.7c-1.276.145-2.2,1.2-3.386,1.641a3.621,3.621,0,0,0-2.062.894c-0.6.531-1.469,0.476-1.883,1.257-0.465,1-1.29.207-1.819-.292-0.476-1.376-1.166-2.764-1.768-4.13,0.271-.548,1.291-0.875,1.84-1.341a5.166,5.166,0,0,0-1.715-2.751c-0.789-.9-1.97-1.07-2.994-1.577a2.84,2.84,0,0,0-2.52-.058,8.252,8.252,0,0,0-2.926-1.444c-1.543-.092-3.12-0.507-4.647-0.167a3.037,3.037,0,0,0-2.191-.846,7.934,7.934,0,0,0-3.191.8,12.617,12.617,0,0,0-3.7,2.221c-0.7.647-1.815,1.052-1.757,2.158C838.978,476.432,837.571,477.251,837.663,478.195Z" transform="translate(-49.561 -46.629)"/></g></svg>